<svg xmlns="http://www.w3.org/2000/svg" viewBox="0 0 800 450" width="800" height="450">
	<path fill="#a78bfa" style="clip-rule: evenodd; fill-rule: evenodd;" d="M424.457367,236.378174h-54.309662v-16.505798l27.153961-29.969299l27.155701,29.969299V236.378174z" />
	<path fill="#ddd6fe" style="clip-rule: evenodd; fill-rule: evenodd;" d="M307.882233,178.717499h22.867798l20.699219,23.635483h0.014282l20.742706-23.635483h22.867798l-34.089783,37.621094v20.039581h-19.013641v-20.039581L307.882233,178.717499L307.882233,178.717499z M399.529358,178.717499l34.091431,37.621094v20.039581h19.014374v-20.039581l34.088348-37.621094h-22.870514l-20.73999,23.635483h-0.01355l-20.699219-23.635483H399.529358L399.529358,178.717499z M443.470398,173.085815L443.470398,173.085815L443.470398,173.085815z M398.844543,178.082962L398.844543,178.082962L398.844543,178.082962z M491.083771,178.717499v36.89418c0,7.600876,2.114166,13.073227,6.324982,16.404922c4.239288,3.330292,10.861816,4.996109,19.870422,4.996109h26.267334c9.005798,0,15.515564-1.784698,19.499451-5.353485c3.983826-3.555832,5.979858-8.989166,5.979858-16.272736v-36.668991h-19.014404v33.152878c0,3.925735-0.842407,6.635483-2.512329,8.142944c-1.641357,1.493286-4.452637,2.247406-8.421448,2.247406h-18.257629c-4.083008,0-6.879333-0.792816-8.422852-2.366287c-1.527252-1.57309-2.297638-4.256256-2.297638-8.024063v-33.152878H491.083771L491.083771,178.717499z M230.362732,224.229568v12.783142h48.693542c8.504425,0,14.803619-0.500687,18.900269-1.489868c4.122467-0.995941,6.966339-2.771179,8.535645-5.333099c1.413147-2.339783,2.129211-6.026062,2.129211-11.058197c0-4.95401-0.686218-8.601257-2.05719-10.914886c-1.58429-2.705292-4.539612-4.601089-8.865845-5.672791c-4.296387-1.071701-10.861877-1.608063-19.697845-1.608063h-12.919006c-3.213409,0-6.640198-0.052322-10.293915-0.156601c-3.625122-0.131134-5.439056-1.698776-5.439056-4.718246c0-3.020157,2.599274-4.536194,7.795197-4.536194h47.5495v-12.783493h-49.549576c-8.978668,0-15.374268,1.160065-19.155716,3.48996c-3.770523,2.32309-5.65242,7.045105-5.65242,14.169083c0,5.215515,0.59787,8.888229,1.797653,11.006226c1.426697,2.574432,4.269165,4.339523,8.535645,5.29364c4.297791,0.94133,10.980072,1.412094,20.071503,1.412094h11.720551c7.494934,0,12.219299,0.378799,14.175903,1.149551c1.983795,0.74556,2.968872,2.130875,2.968872,4.183548c0,3.188995-2.51239,4.784195-7.538391,4.784195H230.362732L230.362732,224.229568z M230.40892,271.283142h16.128403v-3.739288h-11.629562V252.47464h-4.49884V271.283142L230.40892,271.283142z M256.930359,271.283142V252.47464h-4.49881v18.808502H256.930359L256.930359,271.283142z M261.364014,252.47464l10.022095,18.808502h6.504364l10.087372-18.808502h-5.151031l-7.911987,15.069214h-0.542145l-7.81012-15.069214H261.364014L261.364014,252.47464z M296.881775,271.283142V252.47464h-4.500214v18.808502H296.881775L296.881775,271.283142z M303.157806,271.283142h4.49881V256.21933h0.623688l11.30481,15.063812h7.721161V252.47464h-4.499512v15.069214h-0.622284l-11.465179-15.069214h-7.561493V271.283142L303.157806,271.283142z M350.714844,258.275146h4.660492c0-1.165131-0.143311-2.123077-0.434113-2.877823c-0.288086-0.75412-0.717438-1.337021-1.286041-1.757568c-0.570038-0.419846-1.270447-0.713348-2.101288-0.884552c-0.830933-0.167099-1.852661-0.252747-3.066772-0.252747h-9.025482c-1.657684,0-2.985168,0.221512-3.987244,0.667862c-1.002747,0.447662-1.739899,1.161713-2.20932,2.154312c-0.470154,0.98912-0.71405,2.326828-0.735779,4.011703v5.523987c0.003418,1.49057,0.260895,2.710022,0.771729,3.663879c0.514313,0.952454,1.278595,1.652924,2.299713,2.095184c1.016327,0.442932,2.303741,0.663757,3.860901,0.663757h9.106384c1.654266,0,2.972931-0.189514,3.961426-0.573395c0.985077-0.379059,1.707275-1.006866,2.173309-1.883209c0.460602-0.876404,0.694977-2.064636,0.70047-3.559937v-5.012451h-11.930573v3.333008h7.430359l-0.02652,2.303131c-0.02713,0.483704-0.158966,0.853943-0.388611,1.120941c-0.234375,0.265625-0.605286,0.45108-1.114807,0.559113c-0.511597,0.108673-1.212036,0.162384-2.101318,0.162384h-6.643616c-0.989868,0-1.739899-0.098511-2.254211-0.293518c-0.514923-0.198334-0.868896-0.523773-1.056396-0.989166c-0.195679-0.45993-0.29892-1.133209-0.322021-2.018402l0.032623-4.526031c0.02713-1.427307,0.302277-2.426025,0.830872-2.9953c0.527863-0.573456,1.457916-0.858765,2.794952-0.858765h6.646332c1.291443,0,2.180817,0.177338,2.66452,0.524475C350.447815,256.928589,350.700562,257.493134,350.714844,258.275146L350.714844,258.275146z M385.587158,252.47464h-7.642944c-1.274506,0-2.343811,0.099823-3.216156,0.29892c-0.871674,0.197647-1.580933,0.505417-2.136627,0.930069c-0.552368,0.41983-0.956573,0.971512-1.220154,1.644104c-0.261597,0.677322-0.392029,1.490494-0.392029,2.43959c0,1.188232,0.126343,2.149536,0.374359,2.890778c0.248627,0.740479,0.641327,1.309845,1.180084,1.712006c0.537323,0.396759,1.241852,0.677307,2.113525,0.830231c0.870941,0.154846,1.982422,0.231659,3.32489,0.231659h6.666687c0.8125,0,1.450439,0.084869,1.905609,0.252045c0.452484,0.167786,0.75885,0.406891,0.917206,0.718079c0.157562,0.311859,0.239807,0.70993,0.239807,1.201782c0,0.7453-0.235077,1.283386-0.709961,1.612183c-0.474182,0.329529-1.21402,0.496643-2.217468,0.496643h-7.5336c-0.619568,0-1.142731-0.180054-1.577545-0.536713c-0.432709-0.362122-0.649475-0.777222-0.649475-1.251404h-4.603455c0,1.241852,0.199799,2.24942,0.596527,3.03067c0.396759,0.782013,1.056396,1.359436,1.978333,1.739197c0.921204,0.37915,2.177399,0.568665,3.76236,0.568665h9.088745c1.489868,0,2.70047-0.198334,3.626495-0.595154c0.930054-0.398071,1.613495-1.017029,2.051727-1.86145c0.438202-0.840363,0.658936-1.928772,0.658936-3.260986c0-1.288147-0.131775-2.308563-0.392639-3.067413c-0.262268-0.754822-0.650879-1.318665-1.166504-1.689606c-0.514954-0.370941-1.137238-0.614136-1.8703-0.73172c-0.730316-0.116852-1.692993-0.175934-2.885315-0.175934h-8.212311c-0.7229,0-1.264313-0.126404-1.625732-0.375031c-0.36142-0.247955-0.542145-0.76358-0.542145-1.54895c0-1.301666,0.723511-1.951843,2.172607-1.951843h7.556763c0.894714,0,1.490509,0.136536,1.793549,0.41098c0.29892,0.271759,0.469421,0.7229,0.514923,1.346588h4.49884c0-1.219543-0.221497-2.217499-0.663757-2.99881c-0.438202-0.781952-1.134583-1.360138-2.077515-1.739899C388.3237,252.664825,387.0961,252.47464,385.587158,252.47464L385.587158,252.47464z M398.724945,271.283142h19.218536v-3.550415h-14.71936v-4.308624h14.254669v-3.278687h-14.254669v-4.120361h14.71936v-3.550415h-19.218536V271.283142L398.724945,271.283142z M428.88147,256.21524h9.405273c0.975555,0,1.648132,0.220795,2.019073,0.663757c0.369598,0.442993,0.555756,1.179382,0.555756,2.208008c-0.014954,1.030579-0.207916,1.767029-0.588318,2.20929c-0.37915,0.442993-1.043518,0.664429-1.986511,0.664429h-9.405273V256.21524L428.88147,256.21524z M445.71228,271.283142v-3.901672c0-0.74118-0.141296-1.324097-0.415741-1.753448c-0.28125-0.42395-0.592438-0.722198-0.940277-0.902863c-0.342407-0.175995-0.925323-0.420532-1.733765-0.73172c0.839691-0.497284,1.50824-1.115509,2.000092-1.847931c0.493225-0.736389,0.737823-1.752075,0.737823-3.05307c0-1.305115-0.160339-2.394104-0.485107-3.261002c-0.319305-0.867584-0.775818-1.540863-1.358734-2.02861c-0.587006-0.487808-1.283997-0.831619-2.077576-1.029266c-0.800232-0.199097-1.725555-0.29892-2.773193-0.29892h-14.28183v18.808502h4.524628v-5.582428h8.704163c1.282684,0,2.19989,0.207245,2.746063,0.627716c0.551666,0.420532,0.827515,1.097931,0.827515,2.033386v2.921326H445.71228L445.71228,271.283142z M450.38916,252.47464l10.023499,18.808502h6.504333l10.085999-18.808502h-5.149658l-7.913361,15.069214h-0.543549l-7.807343-15.069214H450.38916L450.38916,252.47464z M486.991211,271.283142V252.47464h-4.49881v18.808502H486.991211L486.991211,271.283142z M508.883392,271.256012c1.864227,0,3.278656-0.193695,4.240692-0.577484c0.961975-0.388611,1.626404-1.038788,1.996033-1.960724c0.366821-0.916473,0.554321-2.24057,0.565247-3.966217h-4.666016c0,0.767761-0.112762,1.35199-0.335602,1.744019c-0.224213,0.39743-0.57608,0.668457-1.059814,0.809143c-0.483765,0.139893-1.175354,0.211975-2.073456,0.211975h-5.772003c-0.917114,0-1.630463-0.090363-2.142761-0.266388c-0.504089-0.176636-0.884491-0.510223-1.123657-1.002747c-0.243225-0.491852-0.365509-1.210632-0.365509-2.145477v-4.661835c0-0.998016,0.09375-1.725647,0.283966-2.177399c0.188873-0.447052,0.532623-0.7453,1.031281-0.885254c0.494629-0.144012,1.277252-0.216034,2.342499-0.216034h5.773376c1.218781,0,2.095184,0.202454,2.623688,0.613464c0.528595,0.411011,0.790863,1.110779,0.790863,2.095886h4.665924c0-1.688904-0.288086-3.00827-0.870972-3.952591c-0.578796-0.943695-1.398132-1.598602-2.453918-1.960007c-1.051636-0.357376-2.384552-0.53804-3.997437-0.53804h-7.398407c-1.89679,0-3.360138,0.194931-4.390106,0.587631c-1.025848,0.388611-1.75827,1.070663-2.199829,2.05101c-0.448425,0.97493-0.678009,2.380539-0.70108,4.214157v5.338593c0,1.698425,0.211975,3.026642,0.633118,3.984497c0.421234,0.957275,1.125061,1.639374,2.114258,2.051086c0.987793,0.406219,2.357452,0.608734,4.111542,0.608734H508.883392L508.883392,271.256012z M522.093201,271.283142h19.218201v-3.550415h-14.71936v-4.308624h14.254639v-3.278687h-14.254639v-4.120361h14.71936v-3.550415h-19.218201V271.283142L522.093201,271.283142z M562.465759,252.47464h-7.641602c-1.274475,0-2.343811,0.099823-3.216125,0.29892c-0.871033,0.197647-1.580261,0.505417-2.135986,0.930069c-0.551636,0.41983-0.957947,0.971512-1.221558,1.644104c-0.260864,0.677322-0.391296,1.490494-0.391296,2.43959c0,1.188232,0.126343,2.149536,0.375061,2.890778c0.247253,0.740479,0.639954,1.309845,1.177979,1.712006c0.536743,0.396759,1.244629,0.677307,2.115601,0.830231c0.870972,0.154846,1.982361,0.231659,3.323486,0.231659h6.667419c0.813904,0,1.449768,0.084869,1.906311,0.252045c0.449768,0.167786,0.758179,0.406891,0.917175,0.718079c0.157593,0.311859,0.24054,0.70993,0.24054,1.201782c0,0.7453-0.237793,1.283386-0.712036,1.612183c-0.472839,0.329529-1.213379,0.496643-2.217468,0.496643h-7.534302c-0.619568,0-1.1427-0.180054-1.576172-0.536713c-0.433411-0.362122-0.649475-0.777222-0.649475-1.251404h-4.603455c0,1.241852,0.199707,2.24942,0.596558,3.03067c0.396729,0.782013,1.055664,1.359436,1.978271,1.739197c0.922607,0.37915,2.176758,0.568665,3.763794,0.568665h9.087341c1.490479,0,2.701172-0.198334,3.627808-0.595154c0.929382-0.398071,1.611511-1.017029,2.050415-1.86145c0.4375-0.840363,0.658936-1.928772,0.658936-3.260986c0-1.288147-0.130432-2.308563-0.392639-3.067413c-0.260864-0.754822-0.650879-1.318665-1.167175-1.689606c-0.513611-0.370941-1.137268-0.614136-1.868286-0.73172c-0.732361-0.116852-1.694336-0.175934-2.88739-0.175934h-8.210876c-0.724182,0-1.265015-0.126404-1.626465-0.375031c-0.361389-0.247955-0.543518-0.76358-0.543518-1.54895c0-1.301666,0.7229-1.951843,2.174011-1.951843h7.557373c0.895447,0,1.489197,0.136536,1.792236,0.41098c0.29895,0.271759,0.470154,0.7229,0.514954,1.346588h4.49884c0-1.219543-0.220154-2.217499-0.663086-2.99881c-0.4375-0.781952-1.134583-1.360138-2.078918-1.739899C565.203613,252.664825,563.976746,252.47464,562.465759,252.47464L562.465759,252.47464z M178.253235,126.5625v196.875h443.49353v-196.875H178.253235L178.253235,126.5625z M183.892014,132.200653v185.599335h432.217285V132.200653H183.892014L183.892014,132.200653z" />
</svg>
