<svg xmlns="http://www.w3.org/2000/svg" viewBox="0 0 800 450" width="800" height="450">
	<path fill="#a78bfa" d="M275,278h22.299988v3.899994h-9.100006v27.5h-4.100006v-27.5H275V278z M331.700012,291.299988V278h4.100006v31.399994h-4.100006v-14.200012h-15v14.200012h-4V278h4v13.299988H331.700012z M357.5,295.5v10h14.299988v3.899994h-18.600006V278h18.200012v3.899994h-14.200012V291.5h13v3.899994h-12.799988V295.5H357.5z M410.799988,309.399994h-4.600006l-6.899994-12H392v12h-4V278h12.299988c2.700012,0,4.899994,1,6.799988,2.899994s2.899994,4.200012,2.899994,6.899994c0,2-0.700012,3.899994-1.899994,5.600006c-1.200012,1.700012-2.700012,2.899994-4.600006,3.5L410.799988,309.399994z M400.299988,281.899994H392V293.5h8.299988c1.5,0,2.899994-0.5,3.899994-1.700012s1.700012-2.5,1.700012-4.200012s-0.5-3-1.700012-4.100006C403.200012,282.399994,401.899994,281.899994,400.299988,281.899994z M450.799988,309.399994h-4.399994l-2.5-7.100006h-14l-2.5,7.100006H423L434.5,278h4.700012L450.799988,309.399994z M437,282.899994l-5.600006,15.5H442.5L437,282.899994z M465.600006,278h11.299988c2.899994,0,5.200012,1,7.100006,2.899994c1.899994,2,2.899994,4.399994,2.899994,7.299988s-1,5.200012-2.899994,7.299988c-1.899994,2-4.200012,2.899994-7.100006,2.899994h-7.100006v11.100006h-4V278H465.600006z M469.700012,294.200012h7.100006c1.700012,0,3.200012-0.5,4.200012-1.700012c1.200012-1.200012,1.700012-2.700012,1.700012-4.399994c0-1.899994-0.5-3.200012-1.700012-4.399994S478.500031,282,476.800018,282h-7.100006V294.200012z M520.299988,278h4.599976l-11,18.700012v12.700012h-4.100006v-12.799988l-11-18.700012h4.600006l8.399994,14.700012L520.299988,278z" />
	<path fill="#ddd6fe" d="M167.800003,249V140.600006h28l14.699997,38c0.800003,2.199997,1.699997,4.899994,2.699997,7.800003c1,2.899994,2.199997,6.199997,3.399994,10l3,9.600006c-1-9.399994-1.899994-17.399994-2.5-24.100006c-0.5-6.800003-0.800003-12.300003-0.800003-16.899994v-24.300003h28V249h-28l-14.699997-39.800003c-1.5-4.199997-2.899994-8.300003-4.199997-12C196.199997,193.5,195,189.899994,194.199997,186.599991c0.699997,7.600006,1,14.300003,1.399994,19.899994c0.300003,5.699997,0.300003,10.600006,0.300003,14.899994V249H167.800003z M292.799988,249h-29.200012V140.600006h29.200012V249z M312.200012,249V140.600006h28l14.700012,38c0.799988,2.199997,1.700012,4.899994,2.700012,7.800003c1,2.899994,2.200012,6.199997,3.399994,10l3,9.600006c-1-9.399994-1.899994-17.399994-2.5-24.100006c-0.5-6.800003-0.799988-12.300003-0.799988-16.899994v-24.300003h28V249h-28L346,209.100006c-1.5-4.199997-2.899994-8.300003-4.200012-12c-1.200012-3.699997-2.399994-7.300003-3.200012-10.600006c0.700012,7.600006,1,14.300003,1.399994,19.899994c0.299988,5.699997,0.299988,10.600006,0.299988,14.899994V249H312.200012z M408.100006,249V140.600006h28l14.700012,38c0.799988,2.199997,1.700012,4.899994,2.700012,7.800003c1,2.899994,2.200012,6.199997,3.399994,10l3,9.600006c-1-9.399994-1.899994-17.399994-2.5-24.100006c-0.5-6.800003-0.799988-12.300003-0.799988-16.899994v-24.300003h28V249h-28l-14.700012-39.800003c-1.5-4.199997-2.899994-8.300003-4.200012-12C436.5,193.5,435.300018,189.899994,434.5,186.599991c0.700012,7.600006,1,14.300003,1.399994,19.899994c0.299988,5.699997,0.299988,10.600006,0.299988,14.899994V249H408.100006z M533.099976,249h-29.200012V140.600006h29.200012V249z M632.200012,249h-31.599976l-19.400024-50L582,248.899994h-29.5V140.600006h29.200012L580.900024,187l17.5-46.399994h30.900024l-23.5,52.300003L632.200012,249z" />
</svg>
