<svg xmlns="http://www.w3.org/2000/svg" viewBox="0 0 640 640" width="640" height="640" fill="currentColor">
    <path d="M580.775024,28.10993c0-13.200428-6.768616-22.949142-19.3797-26.518625
    	c-14.025452-3.923102-26.872253-0.353619-38.641418,8.081846c-39.954712,28.539116-80.027374,56.842484-119.982086,85.499367
    	c-4.158752,2.980217-6.903229,3.215965-11.297821,0.235741C367.69986,79.177155,284.086243,22.772457,266.120972,10.683343
    	c-9.344757-6.313959-18.369476-9.462511-27.360489-9.462511c-9.311035,0-18.605209,3.384298-28.168747,10.169748
    	c-17.123428,12.139571-106.192375,75.5149-133.65387,95.012436c-11.75235,8.36805-17.948437,19.026039-17.948437,34.112228v0.488251
    	c0.471489,77.653259,0.235744,470.886597,0.235744,470.886597c0,13.200439,6.768494,22.949158,19.379662,26.518616
    	c14.02533,3.923096,26.872139,0.353638,38.641342-8.081848c39.954803-28.539124,80.027374-56.842468,119.982071-85.499451
    	c4.158844-2.980103,6.90332-3.215881,11.297806-0.235657c23.774155,16.231018,107.387772,72.635681,125.353134,84.724915
    	c9.344666,6.313965,18.369385,9.462524,27.360504,9.462524c9.310913,0,18.605103-3.384277,28.16864-10.169739
    	c17.123413-12.139587,106.192383-75.514893,133.65387-95.012451c11.75238-8.368042,17.948425-19.026062,17.948425-34.112244
    	v-0.48822C580.539246,421.343262,580.775024,28.10993,580.775024,28.10993z M396.71048,569.14032
    	c0,0-132.694153-88.866791-148.773788-99.709961c-2.980118-2.020508-4.764862-3.923096-4.764862-7.963989
    	c0.117874-129.006775,0.117874-390.606812,0.117874-390.606812s132.694153,88.866913,148.773682,99.710083
    	c2.980225,2.020493,4.764954,3.923111,4.764954,7.963974C396.71048,307.540405,396.71048,569.14032,396.71048,569.14032z" />

    <!--
    <path d="M320,0C143.27002,0,0,143.27002,0,320s143.27002,320,320,320s320-143.27002,320-320S496.72998,0,320,0z
    	 M475.02002,426.599976c0,8.960022-3.679993,15.290039-10.660034,20.26001
    	c-16.309998,11.580017-69.209961,49.220032-79.380005,56.429993c-5.679993,4.030029-11.199951,6.040039-16.72998,6.040039
    	c-5.340027,0-10.700012-1.869995-16.25-5.619995c-10.669983-7.179993-60.330017-40.679993-74.450012-50.320007
    	c-2.609985-1.77002-4.23999-1.630005-6.709961,0.140015c-23.730042,17.019958-47.530029,33.829956-71.26001,50.779968
    	c-6.98999,5.01001-14.619995,7.130005-22.950012,4.799988c-7.48999-2.119995-11.51001-7.909973-11.51001-15.75
    	c0,0,0.140015-233.549988-0.140015-279.669983v-0.289978c0-8.960022,3.679993-15.290039,10.660034-20.26001
    	c16.309998-11.580017,69.209961-49.220032,79.380005-56.429993c5.679993-4.030029,11.199951-6.040039,16.72998-6.040039
    	c5.340027,0,10.700012,1.869995,16.25,5.619995c10.669983,7.179993,60.330017,40.679993,74.450012,50.320007
    	c2.609985,1.77002,4.23999,1.630005,6.709961-0.140015c23.730042-17.019958,47.530029-33.829956,71.26001-50.779968
    	c6.98999-5.01001,14.619995-7.130005,22.950012-4.799988c7.48999,2.119995,11.51001,7.909973,11.51001,15.75
    	c0,0-0.140015,233.549988,0.140015,279.669983V426.599976z M365.630005,235.97998
    	c-0.070007,76.619995-0.070007,231.98999-0.070007,231.98999S286.75,415.190002,277.200012,408.75
    	c-1.77002-1.200012-2.830017-2.330017-2.830017-4.72998c0.070007-76.619995,0.070007-231.98999,0.070007-231.98999
    	S353.25,224.809998,362.799988,231.25C364.570007,232.450012,365.630005,233.580017,365.630005,235.97998z" />
    -->
</svg>
