<svg xmlns="http://www.w3.org/2000/svg" viewBox="0 0 640 640" width="640" height="640" fill="currentColor">
    <path d="M320,57.700001c85.399994,0,95.600006,0.299999,129.299988,1.900002
        c31.200012,1.400002,48.100006,6.600002,59.399994,11.000004C523.599976,76.400009,534.299988,83.300003,545.5,94.500008
        s18.099976,21.900002,23.900024,36.799995c4.400024,11.300003,9.599976,28.199997,11,59.400009
        c1.5,33.699997,1.900024,43.899994,1.900024,129.299988s-0.299988,95.600006-1.900024,129.299988
        c-1.400024,31.200012-6.599976,48.100006-11,59.399994C563.600037,523.599976,556.700012,534.299988,545.5,545.5
        s-21.900024,18.099976-36.799988,23.900024c-11.299988,4.400024-28.200012,9.599976-59.399994,11
        c-33.700012,1.5-43.899994,1.900024-129.300018,1.900024s-95.600006-0.299988-129.300003-1.900024
        c-31.199997-1.400024-48.099991-6.599976-59.400009-11c-14.900002-5.799988-25.599998-12.700012-36.800003-23.900024
        s-18.099998-21.900024-23.900002-36.799988c-4.400002-11.299988-9.599998-28.200012-11-59.399994
        c-1.5-33.700012-1.900002-43.899994-1.900002-129.300018s0.299999-95.600006,1.900002-129.300003
        c1.400002-31.199997,6.599998-48.099991,11-59.400009c5.800003-14.900002,12.699997-25.599998,23.900002-36.800003
        s21.900002-18.099998,36.800003-23.900002c11.300003-4.400002,28.199997-9.599998,59.399994-11
        C224.399994,58,234.600006,57.700001,320,57.700001 M320,0c-86.899994,0-97.800003,0.4-131.899994,1.9
        c-34.100006,1.6-57.300003,7-77.699997,14.9c-21,8.200001-38.900002,19.100002-56.700001,36.900002
        S25,89.300003,16.799999,110.400002C8.9,130.699997,3.5,154,1.9,188.100006C0.4,222.199997,0,233.100006,0,320
        s0.4,97.799988,1.9,131.899994c1.6,34.100006,7,57.299988,14.9,77.699982C25,550.599976,35.900002,568.5,53.700001,586.299988
        S89.300003,615,110.400002,623.200012C130.800003,631.100037,154,636.5,188.100006,638.100037
        c34.100006,1.599976,45,1.900024,131.899994,1.900024s97.799988-0.400024,131.899994-1.900024
        c34.100006-1.599976,57.299988-7,77.699982-14.900024c21-8.200012,38.900024-19.099976,56.700012-36.900024
        C604.099976,568.5,615,550.700012,623.200012,529.599976c7.900024-20.399994,13.299988-43.600006,14.900024-77.700012
        c1.599976-34.100006,1.900024-45,1.900024-131.899994s-0.400024-97.800003-1.900024-131.899994
        c-1.599976-34.100006-7-57.300003-14.900024-77.699997c-8.200012-21-19.099976-38.900002-36.900024-56.700001
        C568.5,35.899979,550.700012,24.999977,529.599976,16.799976C509.299988,8.9,486,3.5,451.899994,1.9
        C417.799988,0.4,406.899994,0,320,0L320,0z M320,155.699997c-90.800003,0-164.300003,73.599991-164.300003,164.300003
        S229.199997,484.299988,320,484.299988S484.299988,410.799988,484.299988,320S410.799988,155.699997,320,155.699997z
         M320,426.700012c-58.899994,0-106.699997-47.799988-106.699997-106.700012S261.100006,213.300003,320,213.300003
        S426.700012,261.100006,426.700012,320S378.899994,426.700012,320,426.700012z M454.558075,136.502396
        c7.019775-20.011642,28.933014-30.543617,48.944641-23.523857s30.54361,28.933022,23.523834,48.944664
        s-28.933014,30.543594-48.944641,23.523834S447.5383,156.514023,454.558075,136.502396z" />
</svg>
