<svg xmlns="http://www.w3.org/2000/svg" viewBox="0 0 640 640" width="640" height="640" fill="currentColor">
    <title>Icon von LinkedIn</title>

    <path d="M590.900024,0H49.099998c-26,0-47,20.1-47,46.099998v547.700012c0,25.200012,21,46.099976,47,46.099976H591
        c26,0,47-20.099976,47-46.099976V46.099998C637.900024,20.1,616.900024,0,590.900024,0z M195,535.200012H98.599998V246.600006H195
        V535.200012z M146.399994,207.199997L146.399994,207.199997L146.399994,207.199997c-32.699997,0-53.699997-21.800003-53.699997-49.5
        c0-28.5,21.800003-49.5,54.5-49.5S200,130,200.899994,157.699997
        C200.899994,185.399994,179.899994,207.199997,146.399994,207.199997z M540.599976,535.200012H445V380.799988
        c0-38.600006-14.299988-65.399994-48.700012-65.399994c-26.799988,0-41.899994,17.600006-49.5,35.200012
        c-2.5,5.899994-3.399994,15.100006-3.399994,23.5v160.999969h-95.600006c0,0,1.699997-261.700012,0-288.5h95.600006v41.100006
        C356,268.399994,378.600006,239.899979,429.799988,239.899979c62.899994,0,110.700012,41.099991,110.700012,129.999985v165.300049
        H540.599976z" />
</svg>
