<svg xmlns="http://www.w3.org/2000/svg" viewBox="0 0 640 640" width="640" height="640" fill="currentColor">
    <path d="M545.660217,93.001305C485.794312,33.058361,406.172882,0.030412,321.337524,0
        C146.527176,0,4.257603,142.254471,4.196776,317.11084C4.166363,373.008392,18.779575,427.56842,46.530979,475.651184L1.535689,640
        l168.120132-44.09845c46.31781,25.273682,98.475189,38.57843,151.545502,38.59436h0.1362
        c174.780304,0,317.066589-142.270386,317.12677-317.12677c0.03009-84.743347-32.922119-164.4095-92.804077-224.352615V93.001305z
        M321.337524,580.939026h-0.10614c-47.291931-0.014099-93.68512-12.727966-134.163712-36.738403l-9.626099-5.716431
        l-99.76815,26.168884l26.626099-97.274872l-6.265076-9.975006c-26.38282-41.968262-40.326962-90.477478-40.296535-140.276428
        C57.798779,171.800171,176.04245,53.55632,321.445465,53.55632c70.403625,0.03043,136.582275,27.477806,186.351135,77.308624
        c49.77066,49.815781,77.15683,116.054581,77.126801,186.474106c-0.061951,145.341797-118.304199,263.585876-263.585876,263.585876
        V580.939026z M465.918579,383.53186c-7.922668-3.968414-46.87973-23.129364-54.149567-25.774384
        c-7.268066-2.64679-12.543945-3.968414-17.821594,3.968414c-5.275909,7.938629-20.466675,25.790314-25.089691,31.066223
        c-4.623047,5.291809-9.246063,5.946411-17.168793,1.976257c-7.920868-3.968445-33.452881-12.331665-63.72821-39.323303
        c-23.553986-21.015076-39.461273-46.95578-44.082535-54.894379c-4.623062-7.936829-0.486557-12.225494,3.465942-16.163849
        c3.557968-3.557953,7.922684-9.260223,11.891098-13.88327c3.970184-4.623016,5.277679-7.936829,7.922668-13.214478
        c2.64682-5.291824,1.323395-9.913086-0.652832-13.883286c-1.978027-3.96843-17.821625-42.973221-24.436844-58.832748
        c-6.432968-15.449234-12.970322-13.350723-17.821609-13.609222c-4.623032-0.228226-9.898926-0.273697-15.190735-0.273697
        s-13.869125,1.976776-21.137192,9.914505c-7.268066,7.936844-27.736298,27.111923-27.736298,66.1008
        s28.39093,76.686218,32.359344,81.978027c3.96843,5.291809,55.881653,85.321899,135.365005,119.657654
        c18.902649,8.16507,33.666992,13.046448,45.177704,16.696381c18.978729,6.036652,36.251862,5.185638,49.906921,3.147461
        c15.222565-2.280548,46.881439-19.175079,53.480743-37.681366c6.599335-18.506348,6.599335-34.381775,4.623077-37.681427
        s-7.268066-5.291809-15.190765-9.260223L465.918579,383.53186z" />
</svg>
