<svg xmlns="http://www.w3.org/2000/svg" viewBox="0 0 100 100" width="100" height="100" fill="currentColor">
	<title>Logo von Disch Development</title>

	<clipPath id="dd-logo-shape-intro">
		<path d="M28.761736,21.242952l3.586439,3.586437l-18.875593-3.754475c-0.140031,0.700188-0.206366,1.397423-0.206366,2.084341
			c0,4.96323,3.497988,9.400204,8.551136,10.405529L34.0242,35.992596c-2.358526,2.685768-4.069941,6.002449-4.836452,9.75103
			c-2.352633,11.511089,5.144527,22.79958,16.667404,25.090305c11.50666,2.289238,22.69051-5.182869,24.979748-16.689529
			c0.75473-3.794277,0.44812-7.554657-0.7164-10.971569c-2.362953-6.944386-8.263687-12.47366-15.974594-14.008171
			l-15.249352-3.033657L50.003212,15.02087l6.222092,6.222082c2.074032,2.07403,4.792233,3.111788,7.510437,3.111788
			c2.718201,0,5.436401-1.037758,7.510429-3.111788L50.003212,0L28.761736,21.242952z M51.981422,39.565765
			c5.834408,1.108501,9.624271,6.779285,8.417,12.594532c-1.170422,5.645721-6.711487,9.350082-12.376373,8.275471
			c-5.837349-1.107025-9.63015-6.78223-8.421413-12.597473C40.774006,42.191097,46.315071,38.488213,51.981422,39.565765z
			 M50.003761,100L28.761101,78.757339l0.000008-0.000008c4.147923-4.147926,10.873035-4.147926,15.020958,0l6.221691,6.221695
			l13.73217-13.73217l7.510487,7.510483L50.003761,100z M72.184616,32.753075l5.996552,1.194
			c5.054626,1.005325,8.552612,5.442299,8.552612,10.405529c0,0.68692-0.06781,1.384155-0.206375,2.082874l-6.087936-1.21022
			c-5.731232-1.139462-9.441483-6.727699-8.259277-12.450077C72.183144,32.760445,72.184616,32.753075,72.184616,32.753075z" />
	</clipPath>

	<g style="
		clip-path: url(#dd-logo-shape-intro);
	">
		<image
		height="100"
		width="100"
		xlink:href="/theme/public/assets/frontend/new/images/background-logo.jpg"
		></image>
	</g>
</svg>
