<svg xmlns="http://www.w3.org/2000/svg" viewBox="0 0 800 450" width="800" height="450">
	<path fill="#a78bfa" d="M359.5,173.899994l41.299988-42L518.200012,250h-33.5l-83.799988-83.699997L359.600037,208.5v-34.600006H359.5z M275.899994,273.600006l0.399994,0.299988c1.399994,1.200012,3.200012,1.899994,5,2c0.799988,0,2.100006-0.299988,2.100006-1.299988s-1.100006-1.100006-1.799988-1.200012L280,273c-3.100006-0.600006-5.799988-2.399994-5.799988-5.899994c0-5.299988,4.799988-8.200012,9.600006-8.200012c2.5,0,4.899994,0.700012,7,2l-2.200012,5.700012c-1.399994-1-3-1.600006-4.700012-1.700012c-0.700012,0-1.700012,0.299988-1.700012,1.200012c0,0.899994,1,0.899994,1.600006,1.100006l1.799988,0.399994c3.399994,0.799988,5.899994,2.600006,5.899994,6.299988c0,5.299988-4.799988,7.799988-9.600006,7.799988c-2.899994,0-5.799988-0.700012-8.5-2L275.899994,273.600006z M292.799988,259.399994H303c5.200012,0,9,2.600006,9,8.100006c0.299988,3.700012-2.5,7-6.200012,7.299988c-0.399994,0-0.700012,0-1.100006,0h-4.100006v6.600006h-7.799988V259.399994z M300.600006,269.299988h0.799988c1.399994,0,2.899994-0.200012,2.899994-2S302.699982,265.5,301.399994,265.5h-0.799988V269.299988z M336.5,270.5c0,7.100006-5.5,11.299988-12.200012,11.299988S312.099976,277.599976,312.099976,270.5c0-7.100006,5.5-11.5,12.200012-11.5S336.5,263.5,336.5,270.5z M320.200012,270.600006C320,272.899994,321.800018,274.899994,324,275s4.299988-1.600006,4.399994-3.799988c0-0.200012,0-0.399994,0-0.600006c0.200012-2.299988-1.600006-4.299988-3.799988-4.399994C322.300018,266,320.300018,267.800018,320.200012,270C320.100006,270.200012,320.100006,270.399994,320.200012,270.600006z M338.100006,259.399994h9.799988c5,0,9.200012,2.100006,9.200012,7.700012c0.299988,2.700012-1.600006,5.299988-4.299988,5.700012v0.200012c0.5,0.399994,1,0.799988,1.299988,1.299988l4.799988,7.200012h-9.299988l-3.5-7.100006H346v7.100006h-7.799988L338.100006,259.399994z M345.899994,269.100006h0.700012c1.299988,0,2.600006-0.200012,2.600006-1.799988c0-1.600006-1.200012-2-2.600006-2H346L345.899994,269.100006z M357,259.399994h16.899994v7.200012L369.5,266.399994V281.5h-8v-15.100006l-4.399994,0.200012v-7.200012H357z M395.5,259.399994l-9.600006,15.299988v0.100006c0.600006,0,1.299988-0.100006,2-0.100006h6.700012v6.799988H373l8-12.899994c0.600006-0.899994,1.200012-1.799988,2-2.700012h-0.100006c-0.600006,0.200012-1.299988,0.200012-2,0.299988h-6v-6.700012L395.5,259.399994z M396,259.399994h14.899994v6h-6.799988V267.5h6.200012v5.700012h-6.200012v2.200012h7v6H396V259.399994z M413,259.399994h7.799988L428,271.600006h0.299988c-0.399994-1.899994-0.600006-3.700012-0.700012-5.600006v-6.600006h7.700012V281.5H427.5l-7.100006-11.600006h-0.200012c0.299988,1.5,0.399994,2.899994,0.5,4.399994V281.5H413V259.399994z M435.899994,259.399994h16.899994v7.200012l-4.399994-0.200012V281.5h-8v-15.100006L436,266.600006L435.899994,259.399994z M453.700012,259.399994H463.5c5,0,9.200012,2.100006,9.200012,7.700012c0.299988,2.700012-1.600006,5.299988-4.299988,5.700012v0.200012c0.5,0.399994,1,0.799988,1.299988,1.299988L474.5,281.500031h-9.299988l-3.5-7.100006h-0.100006v7.100006h-7.799988L453.700012,259.399994z M461.5,269.100006h0.600006c1.299988,0,2.600006-0.200012,2.600006-1.799988c0-1.600006-1.200012-2-2.600006-2H461.5V269.100006z M495.100006,259.399994V272.5c0,6.399994-4,9.399994-10.200012,9.399994S474.699982,279,474.699982,272.5v-13.100006h8v12.299988c0,1.700012,0,3.299988,2.200012,3.299988s2.200012-1.5,2.200012-3.299988v-12.299988H495.100006z M499.899994,259.399994h8.299988L511.299988,271H511.5c0.100006-1,0.299988-2,0.5-2.899994l2.5-8.700012h8.200012L526.400024,281.5h-7.799988l-1.099976-12.100006h-0.099976c-0.099976,0.700012-0.299988,1.5-0.5,2.200012L513.700073,281.5H509l-2.799988-9.299988c-0.299988-0.899994-0.399994-1.799988-0.5-2.799988h-0.299988c0,0.899994-0.100006,1.799988-0.200012,2.700012l-0.899994,9.399994h-7.799988L499.899994,259.399994z M466.899994,324.5L467,324.399994c-0.5-0.600006-1.299988-1-2.100006-1c-3,0.299988-6,1.399994-8.399994,3.200012c-2.100006,2.100006-4.899994,4-4.600006,7.799988c0.399994,3.299988,4.899994,3.799988,5.899994,6.899994c0.200012,0.700012,0.100006,1.399994-0.299988,2c-0.5,0.799988-1.299988,1.299988-2.299988,1.299988c-0.899994,0-1.600006-0.5-2-1.299988c-0.5-1.200012,0.5-2.200012,0.299988-3.399994c-1.5-0.600006-3.100006-2.799988-5-1.299988c-0.899994,1.299988-1.5,2.700012-1.700012,4.299988c-0.899994,1.200012-2.200012,2-3.700012,2.200012c-0.700012-0.100006-0.700012-0.799988-0.5-1.5c0.600006-2.399994,1.5-4.799988,2.600006-7c0.700012-1.5,1.100006-3.200012,1.200012-4.899994c0-0.799988-0.899994-1.399994-1.700012-1.700012c-2.899994-0.5-4,1.700012-5.600006,3.399994l-9.5,13L429,347l-0.200012-0.100006l2-4.5c1.100006-2,1.799988-4.200012,2-6.5c-0.200012-0.799988-0.799988-1.5-1.600006-1.799988c-1.100006-0.200012-2.299988,0-3.200012,0.700012c-5,5.200012-9.399994,11.600006-14,17.399994L413.299957,353l-0.200012-0.200012l3.5-7.299988c0.799988-1.799988,2-3.899994,1.399994-5.899994c-0.299988-0.799988-1.100006-1.399994-2-1.399994c-2.399994-0.200012-4.399994,1.899994-5.899994,3.700012c-4.600006,5.799988-8.5,12.100006-13.399994,17.799988c-0.600006,0.799988-1.399994,1.399994-2.299988,1.700012c-0.200012-0.100006-0.200012-0.399994-0.200012-0.700012c2.299988-5.5,4.600006-11.100006,7.100006-16.5l0.299988-1.5c-0.100006-0.200012-0.299988-0.299988-0.5-0.399994c-2.5,0.899994-5.600006,0.899994-7.5,2.899994l-3.399994,7.100006c-2.200012,4.700012-5.399994,8.899994-9.299988,12.399994c-0.799988,0.5-1.700012,1.700012-2.899994,1.700012c-0.700012,0.200012-1.399994-0.100006-1.799988-0.799988c-0.200012-1.799988-0.100006-3.600006,0.399994-5.399994c6.399994-7.299988,12.5-14.799988,15.899994-23.799988c0.700012-2.799988,2.399994-6.200012-0.200012-8.399994c-4-1.299988-6.700012,2.299988-9.299988,4.600006c-8.700012,9.600006-15.600006,20.899994-16.5,34.799988c-3.299988,3.200012-7.299988,6.299988-10.899994,9.100006c0.100006,0.5,0.700012,0.5,1.200012,0.5c3.5-2.200012,6.799988-4.600006,9.899994-7.200012l0.399994-0.100006c0.299988,0.600006,0.700012,1.200012,1.200012,1.600006c1.5,1.200012,3.600006,1.5,5.399994,0.799988c5.299988-2.200012,9.399994-7,12.899994-11.299988l0.399994-0.100006l-0.200012,2.600006c0,1.600006,0.899994,3,2.299988,3.600006c1.899994,0.399994,3.899994-0.200012,5.200012-1.600006c5-4.799988,8.399994-11.100006,12.799988-16.100006v0.200012c-0.600006,1.899994-1.700012,3.5-2.399994,5.299988c-0.399994,2.100006-2.5,4.799988-0.399994,6.700012c1.600006,0.799988,3.5,0.600006,4.799988-0.5c2.799988-2.799988,5.399994-5.799988,7.600006-9.100006c1.600006-2.299988,3.399994-4.5,5.299988-6.600006c-1.100006,2.700012-2.299988,5.100006-3.200012,7.799988c-0.299988,1-0.799988,2.299988-0.299988,3.200012c0.399994,0.799988,1.100006,1.200012,2,1.299988c2,0.100006,3.799988-0.799988,5-2.399994l10-13.700012c0.299988-0.100006,0.399994-0.399994,0.700012-0.200012c-0.600006,3.399994-2.600006,7.700012-0.200012,10.600006c0.700012,0.600006,1.600006,0.899994,2.5,0.600006c4.200012-1.299988,5.600006-4.700012,8.600006-7.200012c0.299988,0.899994,0.899994,1.700012,1.5,2.299988c1.200012,0.799988,2.700012,1.100006,4.200012,0.799988c4.799988-0.899994,8.899994-3.799988,11.5-7.899994c0.799988-1.700012,0.799988-3.600006,0-5.299988c-1.100006-2.399994-5.799988-2.799988-4.799988-6.299988c0.600006-0.799988,1.200012-1.899994,2.600006-1.700012c0.700012,0.200012,0.5,1,0.5,1.5C462.599976,329,463.499969,329,463.999969,329c1.5-0.399994,3.100006-1,3.5-2.5C467.600006,325.799988,467.399994,325,466.899994,324.5z M379.299988,350.299988c2-5.799988,4.899994-11.299988,8.399994-16.399994c0.5-0.5,2-2.700012,2.299988-0.799988c-1.200012,5.600006-3.5,10.899994-6.799988,15.600006c-1.799988,2.399994-3.5,5-5.399994,7.200012C378.100006,354,378.600006,352.100006,379.299988,350.299988z M400.700012,321.200012c0.200012,0.399994-0.299988,0.5-0.5,0.799988c-5,2.899994-10.399994,5.200012-16.100006,6.700012c-4.799988,1.5-9.799988,2.5-14.799988,3.600006c-2.700012,5-4.899994,10.200012-6.5,15.600006c2.399994-0.100006,4.700012-1.399994,7.100006-1.799988c0.399994,0,0.899994,0.299988,0.899994,0.700012c-2.700012,2.5-5.799988,4.5-9.200012,6.100006c-2.799988,8.799988-6.299988,17.299988-12.399994,24.200012c-2.5,2.600006-6.399994,4.700012-10.299988,3.299988c-2.100006-1.299988-3.200012-3.799988-2.799988-6.200012c0-1.299988,0.5-2.5,1.399994-3.299988c0.600006-0.299988,0.700012,0.5,0.799988,0.799988c0.100006,0.899994,0.600006,1.700012,1.399994,2.100006c2.899994,0.299988,3.899994-2.299988,4.899994-4.200012c1.899994-4,3.299988-8.100006,4.299988-12.399994C346,357.200043,342.5,358.300049,340,356.400055c-0.700012-0.799988-1.100006-1.799988-1.100006-2.899994c1.100006-2.899994,3.700012-5.100006,6.799988-5.600006c0.799988,0.200012,0.100006,1.299988,0.299988,1.799988c0.899994,1.799988,3.100006,1,4.399994,0.899994l0.899994-0.399994c2-5.399994,4.399994-10.700012,7.100006-15.799988l-0.200012-0.100006c-4.5,0.700012-8.899994,2.100006-13.100006,3.899994c-0.899994,0.399994-1.600006,1.299988-1.799988,2.200012c-0.600006,1.399994,2.799988,2.100006,0.299988,2.899994c-3.799988,0.299988-8-0.5-10.200012-3.299988c-1-1.299988-1.200012-3-0.600006-4.5c2.399994-4.100006,8.200012-5.899994,13.299988-7c14.799988-2.399994,29.899994-4,43.700012-9.799988C393.399994,320,397,320.700012,400.700012,321.200012L400.700012,321.200012z M406,330.600006c1.200012,2.700012-0.399994,5.600006-2.100006,7.5C402.5,339.5,400.399994,340,398.5,339.399994c-0.799988-0.299988-1.399994-0.899994-1.600006-1.700012c-0.5-2.899994,0.799988-5.700012,3.100006-7.399994C401.700012,328.899994,404.700012,328.5,406,330.600006L406,330.600006z M462.100006,350.600006l-4.5,1.299988c-1.600006,3.700012-3.5,7.600006-5.100006,11.5l4.700012-1.200012v0.100006C459.100006,358.5,462.100006,350.600006,462.100006,350.600006z M445.399994,359.299988l1.399994-5L442.599976,355.5l-2.299988,5.200012l-5.899994,1.700012l-2,4.600006L438,365.300018l-2.100006,5.200012l4.5-1.299988l2.5-5.100006l5.600006-2c0,0,1.200012-2.899994,1.799988-4.299988L445.399994,359.299988z M434.700012,355.5l-9.100006,20.799988c0,0,14.799988-4.299988,22.200012-6.700012c3-6.799988,9.200012-20.600006,8.899994-20.799988L434.700012,355.5z M442.799988,364.200012l-2.5,5.100006l-4.5,1.299988l2.100006-5.200012l-5.600006,1.700012l2-4.600006l5.899994-1.700012l2.299988-5.200012l4.200012-1.200012l-1.399994,5l4.899994-1.399994c-0.5,1.399994-1.799988,4.299988-1.799988,4.299988L442.799988,364.200012z M450.200012,357.899994c-0.5,1.399994-1.799988,4.299988-1.799988,4.299988l-5.600006,2l-2.5,5.100006l-4.5,1.299988l2.100006-5.200012l-5.600006,1.700012l2-4.600006l5.899994-1.700012L442.5,355.599945l4.200012-1.200012l-1.399994,5L450.200012,357.899994z M425.700012,371.799988L329,401l5-11.700012l96.5-29.100006C430.600006,360.100006,427.5,368.200012,425.700012,371.799988L425.700012,371.799988z" />
	<path fill="#ddd6fe" d="M274.5,89.400002L317.799988,49L359.5,88.800003L400.799988,49l40.899994,40.199997l43-40.200001L526,88.5V123l-41.299988-39.699997l-42.899994,40.099998L400.900024,82.5l-41.299988,40.900002L317.900024,82.5l-43.299988,40.099998V89.400002H274.5z M274.5,217.100006l43.299988-40.5L359.5,216.400009v34.5L317.799988,210L274.5,250.100006V217.100006z M274.5,174.300003L317.799988,134L359.5,173.800003v34.5l-41.700012-40.900009L274.5,207.5V174.300003z M446.899994,169.800003L484.299988,134L526,173.800003v34.5l-41.700012-40.900009l-21.899994,18.899994C462.399994,186.399994,446.899994,169.800003,446.899994,169.800003z M466.700012,191.5l17.600006-16.100006L526,215.199997v34.5L466.700012,191.5z M274.5,131.300003l43.299988-40.099998L359.5,131l41.299988-39.800003l40.899994,40.199997l42.899994-40.199997l41.299988,39.5V165l-41.299988-39.5l-42.899994,40.100006l-40.899994-40.900002L359.5,165.600006l-41.700012-40.900002L274.5,164.800003V131.300003z M274,289.200012h10.100006c5.200012,0,9,2.600006,9,8.100006c0.299988,3.700012-2.5,7-6.200012,7.299988c-0.399994,0-0.700012,0-1.100006,0h-4v6.700012H274V289.200012z M281.799988,299h0.799988c1.399994,0,2.899994-0.200012,2.899994-2c0-1.700012-1.600006-1.799988-2.899994-1.799988h-0.799988V299z M295.299988,289.200012h9.799988c5,0,9.200012,2.100006,9.200012,7.700012c0.299988,2.700012-1.600006,5.299988-4.299988,5.700012v0.200012c0.5,0.399994,1,0.799988,1.299988,1.299988L316,311.300049h-9.299988l-3.5-7.100006h-0.100006v7.100006h-7.799988L295.299988,289.200012z M303.100006,298.899994h0.5c1.299988,0,2.600006-0.200012,2.600006-1.799988c0-1.600006-1.200012-2-2.600006-2H303v3.799988H303.100006z M323.899994,311.299988h-8.5l7.799988-22.100006h8.799988l7.799988,22.100006h-8.399994L330.699951,308.5h-6.100006L323.899994,311.299988z M329.200012,303.299988l-0.899994-3.899994c-0.200012-0.899994-0.399994-2-0.5-2.799988h-0.299988l-1.5,6.700012L329.200012,303.299988L329.200012,303.299988z M361.799988,289.200012v13.100006c0,6.399994-4,9.399994-10.200012,9.399994s-10.200012-2.899994-10.200012-9.399994v-13.100006h8V301.5c0,1.700012,0,3.299988,2.200012,3.299988s2.200012-1.5,2.200012-3.299988v-12.299988H361.799988z M377.399994,289.200012h8v15h6.700012v7.100006h-14.799988L377.399994,289.200012L377.399994,289.200012z M400.799988,311.299988h-8.5L400,289.199982h8.899994l7.799988,22.100006h-8.399994L407.599976,308.5h-6.100006L400.799988,311.299988z M406.100006,303.299988l-0.899994-3.899994c-0.200012-0.899994-0.399994-2-0.5-2.799988h-0.299988l-1.5,6.700012L406.100006,303.299988L406.100006,303.299988z M431.799988,303.299988l0.399994,0.299988c1.399994,1.200012,3.200012,1.899994,5,2c0.799988,0,2-0.299988,2-1.299988s-1.100006-1.100006-1.799988-1.200012l-1.600006-0.299988c-3.100006-0.600006-5.899994-2.399994-5.899994-5.899994c0-5.299988,4.799988-8.200012,9.600006-8.200012c2.5,0,4.899994,0.700012,7,2l-2.200012,5.700012c-1.399994-1-3-1.600006-4.700012-1.700012c-0.700012,0-1.700012,0.299988-1.700012,1.200012c0,0.899994,1,0.899994,1.600006,1.100006l1.799988,0.399994c3.399994,0.799988,5.899994,2.600006,5.899994,6.299988c0,5.299988-4.799988,7.799988-9.600006,7.799988c-2.899994,0-5.799988-0.700012-8.5-2L431.799988,303.299988z M449.799988,289.200012h14.799988v6h-6.799988v2.100006H464v5.700012h-6.200012v2.200012h7v6.100006h-15.100006v-22.100006h0.100006V289.200012z M468.100006,289.200012h8v15h6.700012v7.100006H468L468.100006,289.200012L468.100006,289.200012z M505.899994,289.200012l-8.600006,22.100006H490.5l-8.600006-22.100006h8.399994l2.899994,10.100006c0.399994,1.100006,0.5,2.200012,0.600006,3.299988H494c0-1.100006,0.200012-2.200012,0.5-3.299988l2.899994-10.100006H505.899994z M510.700012,311.299988h-8.5l7.700012-22.100006h8.900024l7.799988,22.100006h-8.5L517.400024,308.5h-6.100006L510.700012,311.299988z M516,303.299988l-0.900024-3.899994c-0.200012-0.899994-0.400024-2-0.5-2.799988h-0.299988l-1.599976,6.700012L516,303.299988z" />
</svg>
