<svg xmlns="http://www.w3.org/2000/svg" viewBox="0 0 800 450" width="800" height="450">
	<path fill="#a78bfa" d="M372.330383,112.5c30.852203,0,56.008118,30.864365,56.008118,68.709091c0,1.311813-0.03302,2.612167-0.091675,3.90683l-3.938507-4.15892c-0.111725-30.177002-20.211945-54.751289-44.83432-54.751289c-24.696747,0-44.837128,24.710381-44.837128,55.00338c0,12.527069,3.448669,24.09166,9.235291,33.356293l-12.587921,13.294647c-9.274017-12.267792-14.958862-28.671768-14.958862-46.65094C316.325378,143.364365,341.48407,112.5,372.330383,112.5L372.330383,112.5z" />
	<path fill="#ddd6fe" d="M124.450378,295.343109c0.236252-0.580017,0.534103-1.962067,0.892815-4.136047h0.533524c1.525925,3.251007,3.914162,4.875031,7.180107,4.875031c1.906937,0,3.455734-0.624298,4.654465-1.876129c1.190231-1.267365,1.78447-2.822784,1.78447-4.670166c0-1.121429-0.312225-2.158264-0.937988-3.113586c-0.610077-0.968048-1.998581-1.930511-4.15834-2.897247l-4.042908-1.748566c-3.456459-1.533813-5.189453-4.088806-5.189453-7.667847c0-2.639465,0.908661-4.716064,2.723923-6.232758c1.823181-1.51947,4.212006-2.281311,7.178787-2.281311c2.755463,0,4.937363,0.733246,6.547012,2.188324c-0.503311,0.717438-0.923019,2.015015-1.250946,3.891144h-0.533524c-0.968781-2.9216-2.754715-4.379486-5.341965-4.379486c-1.608185,0-2.974548,0.512695-4.088089,1.543823c-1.12204,1.013947-1.679169,2.340118-1.679169,3.981323c0,2.708221,1.694275,4.76767,5.073441,6.186981l3.707825,1.475037c3.70137,1.561096,5.547424,4.032928,5.547424,7.398621c0,2.967377-1.03038,5.393433-3.081894,7.286713c-2.060913,1.893311-4.716064,2.839935-7.966476,2.839935C129.143402,298.006897,126.624352,297.120544,124.450378,295.343109L124.450378,295.343109z M134.735275,264.15802L134.735275,264.15802L134.735275,264.15802L134.735275,264.15802z M132.590622,297.356781L132.590622,297.356781L132.590622,297.356781L132.590622,297.356781z M146.180328,268.745148c0.144012-0.481171,0.219833-0.983887,0.219833-1.51947c0-0.509888-0.075821-0.959534-0.219833-1.364868c3.36348,0.25354,6.912323,0.380981,10.635986,0.380981h1.12204h0.762604c3.242493,0,6.904404-0.127441,10.971802-0.380981c-0.144745,0.564301-0.221298,1.076996-0.221298,1.518127c0,0.435425,0.076553,0.88504,0.221298,1.366211c-2.700317-0.252075-5.951309-0.380859-9.766617-0.380859c-0.076553,2.547821-0.113815,5.515167-0.113815,8.895081v4.853607c0,6.194031,0.128922,11.351227,0.380859,15.464386c-1.014679-0.14328-1.778015-0.220581-2.304932-0.220581c-0.754089,0-1.48735,0.077301-2.189087,0.220581c0.25209-4.081635,0.380997-9.184418,0.380997-15.312592v-5.117157c0-3.38269-0.037247-6.311493-0.113937-8.783325C152.833527,268.364288,149.575348,268.493073,146.180328,268.745148L146.180328,268.745148z M157.938354,264.15802L157.938354,264.15802L157.938354,264.15802L157.938354,264.15802z M157.938354,297.356781L157.938354,297.356781L157.938354,297.356781L157.938354,297.356781z M145.195709,265.594482L145.195709,265.594482L145.195709,265.594482L145.195709,265.594482z M171.442139,297.577362c4.249985-9.07135,9.018982-19.737976,14.307266-31.98288h0.892242c1.044754,2.424591,3.012527,7.056183,5.920502,13.877594c2.905777,6.829895,5.584686,12.863617,8.026443,18.105286c-0.892227-0.14328-1.678421-0.220581-2.349365-0.220581c-0.58075,0-1.420044,0.077301-2.526382,0.220581c-0.502579-1.714386-2.113861-5.798798-4.820618-12.244904l0,0c-0.527069-0.090363-1.442917-0.139038-2.75473-0.139038c-1.297577,0-2.175446,0-2.632996,0c-0.526337,0-1.488083,0-2.883636,0c-1.388504,0-2.487671,0.048676-3.312592,0.139038l0,0c-0.343018,0.671661-1.067627,2.509064-2.188339,5.515167c-1.268112,3.344116-2.030853,5.586853-2.305099,6.729736c-0.609329-0.14328-1.174973-0.220581-1.694122-0.220581C172.510483,297.356781,171.94632,297.434082,171.442139,297.577362L171.442139,297.577362z M180.201981,283.188538v-0.007202c0.212646,0.06012,0.945908,0.09021,2.212708,0.09021c1.281738,0,2.326477,0,3.135559,0c0.381012,0,1.167953,0,2.342346,0c1.190811,0,1.975693-0.051636,2.350098-0.158966v0.007172c-1.182892-2.50351-2.884354-6.318665-5.119934-11.445801l0,0C183.664886,275.071014,182.025024,278.90921,180.201981,283.188538L180.201981,283.188538z M186.351562,264.15802L186.351562,264.15802L186.351562,264.15802L186.351562,264.15802z M197.505966,297.356781L197.505966,297.356781L197.505966,297.356781L197.505966,297.356781z M170.656647,265.594482L170.656647,265.594482L170.656647,265.594482L170.656647,265.594482z M205.32695,266.02124c1.114258,0.144592,3.364792,0.220551,6.753342,0.220551c0.358719,0,1.618332-0.037231,3.776596-0.11322c2.158875-0.070099,3.334015-0.10733,3.531693-0.10733c9.820297,0,14.726852,4.966675,14.726852,14.910156c0,4.989563-1.510956,9.008301-4.540649,12.068787c-3.006088,3.050507-6.97319,4.577179-11.886932,4.577179c-0.28215,0-1.34407-0.035797-3.173706-0.114685c-1.831696-0.068634-2.869995-0.105896-3.105515-0.105896c-2.403931,0-4.424652,0.077301-6.08168,0.220581c0.252823-4.562958,0.382324-8.21637,0.382324-10.971832v-8.758972C205.709274,272.909943,205.579773,268.974365,205.32695,266.02124L205.32695,266.02124z M209.661407,268.173798c-0.14621,2.828491-0.222031,6.017883-0.222031,9.55954v8.537109c0,3.198059,0.075821,6.248566,0.222031,9.157288c1.717163,0.297852,3.654144,0.449615,5.836639,0.449615c9.399246,0,14.100342-4.943787,14.100342-14.838593c0-4.435364-0.993271-7.769379-2.976746-9.987793c-1.960602-2.222656-5.279648-3.326935-9.941299-3.326935C214.520599,267.72403,212.179138,267.875793,209.661407,268.173798L209.661407,268.173798z M217.237488,264.15802L217.237488,264.15802L217.237488,264.15802L217.237488,264.15802z M201.192368,265.594482L201.192368,265.594482L201.192368,265.594482L201.192368,265.594482z M240.934631,297.73764c0.253418-5.546692,0.383072-9.240143,0.383072-11.086212v-9.658539c0-2.487518-0.129654-6.195465-0.383072-11.13208c2.72467,0.25354,5.54744,0.380981,8.44603,0.380981c2.313004,0,4.914474-0.127441,7.805283-0.380981c-0.14386,0.564301-0.219818,1.015411-0.219818,1.343323c0,0.388184,0.075958,0.83783,0.219818,1.343475c-3.668518-0.252075-7.6362-0.380981-11.91626-0.380981c-0.145325,2.500549-0.222031,6.453278-0.222031,11.863892c3.113586,0,6.814957-0.130219,11.087082-0.382324c-0.144592,0.504059-0.221298,0.953827-0.221298,1.341858c0,0.329407,0.076706,0.779175,0.221298,1.343353c-3.47229-0.251953-7.164993-0.380859-11.087082-0.380859c0,1.731384,0.076706,6.225555,0.222031,13.482208l0,0c6.035202,0,10.086624-0.131683,12.161896-0.380859c-0.144592,0.578552-0.221283,1.045502-0.221283,1.387787c0,0.266327,0.076691,0.703186,0.221283,1.295959c-2.816299-0.250488-5.547424-0.380859-8.179825-0.380859C246.925247,297.356781,244.155563,297.487152,240.934631,297.73764L240.934631,297.73764z M249.450897,264.15802L249.450897,264.15802L249.450897,264.15802L249.450897,264.15802z M254.417587,297.356781L254.417587,297.356781L254.417587,297.356781L254.417587,297.356781z M236.800644,265.594482L236.800644,265.594482L236.800644,265.594482L236.800644,265.594482z M263.825348,297.73764c0.252106-3.379761,0.381744-7.056183,0.381744-11.017426v-8.223541c0-5.890442-0.129639-10.049377-0.381744-12.475433c1.105774,0.144592,1.86908,0.220551,2.303619,0.220551c0.655975,0,1.388519-0.075958,2.190552-0.220551c-0.252106,5.271729-0.381744,9.33194-0.381744,12.176117v7.563324c0,3.538727,0.075989,6.76535,0.221313,9.674072h2.235565c4.013763,0,7.437927-0.131683,10.284302-0.380859c-0.144592,0.564178-0.220551,1.013977-0.220551,1.341888c0,0.34375,0.075958,0.793396,0.220551,1.341858c-3.661896-0.250488-6.453857-0.380859-8.362274-0.380859C269.395081,297.356781,266.564392,297.487152,263.825348,297.73764L263.825348,297.73764z M266.800049,264.15802L266.800049,264.15802L266.800049,264.15802L266.800049,264.15802z M272.721313,297.356781L272.721313,297.356781L272.721313,297.356781L272.721313,297.356781z M259.690033,265.594482L259.690033,265.594482L259.690033,265.594482L259.690033,265.594482z M284.769989,297.577362c2.151093-13.450836,3.576843-23.895569,4.294281-31.335571h0.786926c0.784882,1.800171,2.807831,5.708618,6.050171,11.712128c3.250275,6.003662,5.630585,10.285767,7.149292,12.833557h0.007202c3.021179-5.424957,7.59967-13.604065,13.726532-24.545685h0.602905c0.922272,8.728912,2.112396,19.176605,3.578918,31.335571c-1.06192-0.14328-1.748718-0.220581-2.075897-0.220581c-0.374542,0-1.107086,0.077301-2.197571,0.220581c-0.23642-3.500153-0.617279-7.972778-1.137146-13.412109c-0.510651-5.432159-0.832123-8.699005-0.961029-9.790253l0,0c-5.203094,8.751953-9.278259,16.412476-12.23053,22.981781h-0.42749c-2.609406-5.316162-6.561523-12.976685-11.864044-22.981781l0,0c-1.404205,11.971405-2.105927,19.702209-2.105927,23.202362c-0.793396-0.14328-1.258881-0.220581-1.411407-0.220581C286.096893,297.356781,285.50177,297.434082,284.769989,297.577362L284.769989,297.577362z M324.069672,297.577362c4.249969-9.07135,9.018402-19.737976,14.307281-31.98288h0.892212c1.044769,2.424591,3.013275,7.056183,5.920532,13.877594c2.906494,6.829895,5.584656,12.863617,8.026581,18.105286c-0.892242-0.14328-1.678589-0.220581-2.35025-0.220581c-0.579285,0-1.418579,0.077301-2.524933,0.220581c-0.503296-1.714386-2.113831-5.798798-4.822083-12.244904l0,0c-0.526184-0.090363-1.442169-0.139038-2.753967-0.139038c-1.296875,0-2.175446,0-2.633026,0c-0.526337,0-1.487915,0-2.883606,0c-1.388519,0-2.488403,0.048676-3.311859,0.139038l0,0c-0.343018,0.671661-1.067627,2.509064-2.189819,5.515167c-1.266632,3.344116-2.029968,5.586853-2.304352,6.729736c-0.609344-0.14328-1.174988-0.220581-1.69342-0.220581C325.138153,297.356781,324.573853,297.434082,324.069672,297.577362L324.069672,297.577362z M332.830231,283.188538v-0.007202c0.211914,0.06012,0.944458,0.09021,2.211975,0.09021c1.281738,0,2.32724,0,3.135712,0c0.380859,0,1.167816,0,2.342194,0c1.191589,0,1.97644-0.051636,2.350983-0.158966v0.007172c-1.183044-2.50351-2.885071-6.318665-5.120667-11.445801l0,0C336.293884,275.071014,334.65329,278.90921,332.830231,283.188538L332.830231,283.188538z M338.979095,264.15802L338.979095,264.15802L338.979095,264.15802L338.979095,264.15802z M350.133484,297.356781L350.133484,297.356781L350.133484,297.356781L350.133484,297.356781z M323.28418,265.594482L323.28418,265.594482L323.28418,265.594482L323.28418,265.594482z M358.535217,297.577362c0.252106-6.599365,0.381012-13.46521,0.381012-20.605865c0-5.944855-0.037994-9.797424-0.113953-11.553162h0.71756c9.01828,9.980591,16.663116,18.214111,22.935303,24.698944l0,0v-7.240967c0-5.960693-0.107483-11.583344-0.31369-16.855072c0.504059,0.144592,0.976715,0.220551,1.411377,0.220551c0.404633,0,0.817017-0.075958,1.252411-0.220551c-0.252808,7.255341-0.382446,12.590118-0.382446,16.000061c0,6.29422,0.038696,11.620483,0.113953,15.985596h-0.716858c-5.927704-7.021729-13.604065-15.419922-23.003204-25.210175l0,0c0,13.244659,0.128937,21.500885,0.381592,24.78064c-0.450348-0.114685-0.862885-0.190521-1.252411-0.220581C359.54126,297.356781,359.069489,297.434082,358.535217,297.577362L358.535217,297.577362z M372.062592,264.15802L372.062592,264.15802L372.062592,264.15802L372.062592,264.15802z M371.567078,297.356781L371.567078,297.356781L371.567078,297.356781L371.567078,297.356781z M353.819153,265.594482L353.819153,265.594482L353.819153,265.594482L353.819153,265.594482z M394.142944,297.577362c0.252655-6.599365,0.381561-13.46521,0.381561-20.605865c0-5.944855-0.037842-9.797424-0.1138-11.553162h0.716827c9.018982,9.980591,16.663849,18.214111,22.93515,24.698944l0,0v-7.240967c0-5.960693-0.105865-11.583344-0.312225-16.855072c0.504211,0.144592,0.975403,0.220551,1.410645,0.220551c0.405365,0,0.817902-0.075958,1.251831-0.220551c-0.252075,7.255341-0.382446,12.590118-0.382446,16.000061c0,6.29422,0.040161,11.620483,0.114532,15.985596h-0.715973c-5.927704-7.021729-13.604065-15.419922-23.004059-25.210175l0,0c0,13.244659,0.128906,21.500885,0.381714,24.78064c-0.450348-0.114685-0.862885-0.190521-1.251678-0.220581C395.150421,297.356781,394.677032,297.434082,394.142944,297.577362L394.142944,297.577362z M407.671021,264.15802L407.671021,264.15802L407.671021,264.15802L407.671021,264.15802z M407.174011,297.356781L407.174011,297.356781L407.174011,297.356781L407.174011,297.356781z M389.42746,265.594482L389.42746,265.594482L389.42746,265.594482L389.42746,265.594482z M449.382568,280.640594L449.382568,280.640594c-1.997864-2.998901-2.999054-5.417786-2.999054-7.263855c0-1.900482,0.671814-3.503082,2.015137-4.829132c1.334686-1.329102,3.043335-1.993591,5.111298-1.993591l0,0c1.838867,0,3.304077,0.459747,4.409698,1.367676c1.121307,0.892242,1.679901,2.113861,1.679901,3.662079c0,1.593964-0.648804,3.120605-1.946381,4.584198c-1.281738,1.458038-2.753998,2.626709-4.425354,3.510284l0,0c1.724304,2.320038,4.395294,5.684265,7.995758,10.078125l0,0c1.596893-1.768799,3.405731-4.79776,5.410614-9.091431l0,0c0.274963,0.54715,0.847931,1.165863,1.724335,1.837555c-1.755737,2.915894-3.800934,5.737183-6.126709,8.461121l0,0c1.502319,1.745728,3.425659,3.951263,5.768738,6.613739c-1.519623-0.14328-2.510559-0.220581-2.976013-0.220581l0,0c-0.817749,0-1.664215,0.077301-2.549286,0.220581c-0.488342-0.74765-1.449371-2.022186-2.882874-3.845398l0.007172,0.008667c-3.030426,2.845642-6.242859,4.266266-9.636993,4.266266c-2.716888,0-4.883667-0.685883-6.50769-2.06076c-1.626984-1.380585-2.433258-3.205231-2.433258-5.472351c0-2.043579,0.777679-3.934113,2.325745-5.675598C444.895569,283.036591,446.903381,281.647522,449.382568,280.640594L449.382568,280.640594z M450.205994,281.707642L450.205994,281.707642c-1.858948,1.092712-3.24234,2.26709-4.13324,3.534454c-0.879333,1.266052-1.321777,2.692566-1.321777,4.272156c0,1.78299,0.66449,3.295441,1.992126,4.517029c1.327484,1.220154,2.875702,1.831696,4.647278,1.831696c2.533417,0,4.966675-1.107056,7.286865-3.312592l0,0C456.593475,290.140167,453.769226,286.522522,450.205994,281.707642L450.205994,281.707642z M452.465912,278.718689L452.465912,278.718689c1.357727-0.823425,2.486206-1.879028,3.394318-3.175018c0.906433-1.297577,1.36618-2.609375,1.36618-3.938507c0-1.142853-0.342285-2.059418-1.031097-2.745483c-0.686066-0.685883-1.578278-1.031097-2.676727-1.031097c-1.237457,0-2.204041,0.428223-2.907227,1.276031c-0.6875,0.830627-1.029785,1.821716-1.029785,2.974701C449.581573,274.115723,450.542603,276.32843,452.465912,278.718689L452.465912,278.718689z M487.669739,266.02124c1.114258,0.144592,2.593536,0.220551,4.42395,0.220551c0.519867,0,1.581024-0.037231,3.175018-0.11322c1.609802-0.070099,2.457581-0.10733,2.55072-0.10733c6.703918,0,10.053772,2.579315,10.053772,7.736511c0,3.067657-1.112793,5.439331-3.349854,7.126434c-2.234253,1.685608-5.317627,2.526245-9.231628,2.526245c-1.830383,0-3.006104-0.045776-3.510284-0.138885v3.358337c0,2.348785,0.131683,6.003662,0.381012,10.947479c-0.982574-0.14328-1.737244-0.220581-2.257141-0.220581c-0.830627,0-1.578278,0.077301-2.235565,0.220581c0.252106-5.079895,0.382324-8.734772,0.382324-10.971832v-9.565247C488.052063,273.34668,487.921844,269.668915,487.669739,266.02124L487.669739,266.02124z M491.781433,281.32663c1.059875,0.252106,2.122498,0.381012,3.196594,0.381012c5.777222,0,8.668793-2.547791,8.668793-7.637665c0-2.3573-0.594391-4.005829-1.78595-4.943817c-1.198578-0.938141-3.113434-1.40213-5.768585-1.40213h-4.088806C491.858734,273.262207,491.781433,277.794952,491.781433,281.32663L491.781433,281.32663z M509.780701,297.577362c4.250732-9.07135,9.019714-19.737976,14.307251-31.98288h0.892273c1.045471,2.424591,3.013245,7.056183,5.919006,13.877594c2.908752,6.829895,5.585449,12.863617,8.028687,18.105286c-0.893555-0.14328-1.678406-0.220581-2.350098-0.220581c-0.578552,0-1.419312,0.077301-2.52771,0.220581c-0.501282-1.714386-2.112549-5.798798-4.820618-12.244904l0,0c-0.525635-0.090363-1.4422-0.139038-2.75415-0.139038c-1.297424,0-2.174011,0-2.632263,0c-0.527039,0-1.487915,0-2.882935,0c-1.390686,0-2.489075,0.048676-3.312561,0.139038l0,0c-0.34375,0.671661-1.066895,2.509064-2.189819,5.515167c-1.267395,3.344116-2.030701,5.586853-2.304321,6.729736c-0.610107-0.14328-1.175751-0.220581-1.694153-0.220581C510.850555,297.356781,510.284882,297.434082,509.780701,297.577362L509.780701,297.577362z M518.539795,283.188538v-0.007202c0.213379,0.06012,0.94519,0.09021,2.212708,0.09021c1.281799,0,2.327271,0,3.136475,0c0.380859,0,1.167175,0,2.341431,0c1.191589,0,1.976501-0.051636,2.351746-0.158966v0.007172c-1.184509-2.50351-2.885803-6.318665-5.120056-11.445801l0,0C522.004211,275.071014,520.364319,278.90921,518.539795,283.188538L518.539795,283.188538z M524.689575,264.15802L524.689575,264.15802L524.689575,264.15802L524.689575,264.15802z M535.844543,297.356781L535.844543,297.356781L535.844543,297.356781L535.844543,297.356781z M508.995972,265.594482L508.995972,265.594482L508.995972,265.594482L508.995972,265.594482z M543.664062,297.577362c0.25354-3.202301,0.383911-6.865845,0.383911-10.993225v-9.591248v-1.787231c0-2.918701-0.130371-5.97934-0.383911-9.184418c1.122925,0.144592,2.596497,0.220551,4.426819,0.220551c0.236267,0,1.237305-0.037231,2.998901-0.11322c1.754456-0.070099,2.745483-0.10733,2.976074-0.10733c6.301514,0,9.453613,2.418884,9.453613,7.26239c0,4.601501-3.106384,7.530304-9.324707,8.783447c3.937012,5.14151,8.110291,10.30719,12.521301,15.510284c-0.832092-0.14328-1.725769-0.220581-2.663757-0.220581c-1.006775,0-1.930542,0.077301-2.745483,0.220581c-1.771606-2.426086-3.73938-5.102783-5.906128-8.025879c-2.15979-2.914398-4.150452-5.286072-5.966431-7.103394h-1.657043v4.15744c0,4.242096,0.131836,7.904144,0.382446,10.971832c-1.09137-0.14328-1.838867-0.220581-2.258606-0.220581C545.069031,297.356781,544.321472,297.434082,543.664062,297.577362L543.664062,297.577362z M547.777222,280.432922c0.535706,0.207672,1.480896,0.315155,2.838623,0.315155c2.731079,0,4.853455-0.633087,6.370178-1.900452c1.535278-1.267517,2.305786-3.007568,2.305786-5.224518c0-1.910431-0.633118-3.368439-1.900513-4.379486c-1.250305-1.016876-2.914429-1.519592-4.989685-1.519592c-1.204285,0-2.669495,0.08313-4.400879,0.249298c-0.131836,5.815948-0.20636,9.485046-0.223511,11.003204V280.432922L547.777222,280.432922z M552.722473,264.15802L552.722473,264.15802L552.722473,264.15802L552.722473,264.15802z M554.309265,297.356781L554.309265,297.356781L554.309265,297.356781L554.309265,297.356781z M539.530945,265.594482L539.530945,265.594482L539.530945,265.594482L539.530945,265.594482z M568.479004,268.745148c0.14325-0.481171,0.219116-0.983887,0.219116-1.51947c0-0.509888-0.075867-0.959534-0.219116-1.364868c3.364197,0.25354,6.913025,0.380981,10.636719,0.380981H580.237h0.761902c3.243958,0,6.904419-0.127441,10.971802-0.380981c-0.144592,0.564301-0.219116,1.076996-0.219116,1.518127c0,0.435425,0.074524,0.88504,0.219116,1.366211c-2.70105-0.252075-5.950562-0.380859-9.767395-0.380859c-0.075806,2.547821-0.113037,5.515167-0.113037,8.895081v4.853607c0,6.194031,0.130249,11.351227,0.380859,15.464386c-1.015259-0.14328-1.777283-0.220581-2.302917-0.220581c-0.756104,0-1.48938,0.077301-2.189636,0.220581c0.25061-4.081635,0.380859-9.184418,0.380859-15.312592v-5.117157c0-3.38269-0.037292-6.311493-0.114563-8.783325C575.13147,268.364288,571.874756,268.493073,568.479004,268.745148L568.479004,268.745148z M580.237,264.15802L580.237,264.15802L580.237,264.15802L580.237,264.15802z M580.237,297.356781L580.237,297.356781L580.237,297.356781L580.237,297.356781z M567.493774,265.594482L567.493774,265.594482L567.493774,265.594482L567.493774,265.594482z M597.670654,297.577362c0.25061-6.599365,0.380981-13.46521,0.380981-20.605865c0-5.944855-0.037231-9.797424-0.11322-11.553162h0.716125c9.019714,9.980591,16.663086,18.214111,22.936035,24.698944l0,0v-7.240967c0-5.960693-0.107544-11.583344-0.312256-16.855072c0.502563,0.144592,0.975281,0.220551,1.410645,0.220551c0.405212,0,0.816284-0.075958,1.253174-0.220551c-0.255066,7.255341-0.383972,12.590118-0.383972,16.000061c0,6.29422,0.038757,11.620483,0.114685,15.985596h-0.717529c-5.927734-7.021729-13.604065-15.419922-23.003235-25.210175l0,0c0,13.244659,0.128906,21.500885,0.382324,24.78064c-0.45105-0.114685-0.863586-0.190521-1.253113-0.220581C598.677429,297.356781,598.204895,297.434082,597.670654,297.577362L597.670654,297.577362z M611.19873,264.15802L611.19873,264.15802L611.19873,264.15802L611.19873,264.15802z M610.703186,297.356781L610.703186,297.356781L610.703186,297.356781L610.703186,297.356781z M592.95459,265.594482L592.95459,265.594482L592.95459,265.594482L592.95459,265.594482z M632.698364,297.73764c0.251892-5.546692,0.382263-9.240143,0.382263-11.086212v-9.658539c0-2.487518-0.130371-6.195465-0.382263-11.13208c2.723877,0.25354,5.546631,0.380981,8.446716,0.380981c2.312988,0,4.913757-0.127441,7.805298-0.380981c-0.144592,0.564301-0.220581,1.015411-0.220581,1.343323c0,0.388184,0.075989,0.83783,0.220581,1.343475c-3.66925-0.252075-7.63916-0.380981-11.916992-0.380981c-0.146057,2.500549-0.221924,6.453278-0.221924,11.863892c3.112,0,6.812744-0.130219,11.086243-0.382324c-0.144592,0.504059-0.220581,0.953827-0.220581,1.341858c0,0.329407,0.075989,0.779175,0.220581,1.343353c-3.471558-0.251953-7.165039-0.380859-11.086243-0.380859c0,1.731384,0.075867,6.225555,0.221924,13.482208l0,0c6.033691,0,10.086792-0.131683,12.160461-0.380859c-0.144653,0.578552-0.220581,1.045502-0.220581,1.387787c0,0.266327,0.075928,0.703186,0.220581,1.295959c-2.814148-0.250488-5.545288-0.380859-8.179016-0.380859C638.688904,297.356781,635.91925,297.487152,632.698364,297.73764L632.698364,297.73764z M641.213867,264.15802L641.213867,264.15802L641.213867,264.15802L641.213867,264.15802z M646.180542,297.356781L646.180542,297.356781L646.180542,297.356781L646.180542,297.356781z M628.563599,265.594482L628.563599,265.594482L628.563599,265.594482L628.563599,265.594482z M655.58844,297.577362c0.251953-3.202301,0.380859-6.865845,0.380859-10.993225v-9.591248v-1.787231c0-2.918701-0.128906-5.97934-0.380859-9.184418c1.121338,0.144592,2.593567,0.220551,4.425232,0.220551c0.237915,0,1.236023-0.037231,2.99762-0.11322c1.755859-0.070099,2.746765-0.10733,2.977478-0.10733c6.301392,0,9.453674,2.418884,9.453674,7.26239c0,4.601501-3.10791,7.530304-9.324768,8.783447c3.93689,5.14151,8.110168,10.30719,12.521179,15.510284c-0.833435-0.14328-1.725647-0.220581-2.663818-0.220581c-1.006714,0-1.930481,0.077301-2.7453,0.220581c-1.770264-2.426086-3.73938-5.102783-5.906311-8.025879c-2.158264-2.914398-4.150391-5.286072-5.966248-7.103394h-1.657043v4.15744c0,4.242096,0.131714,7.904144,0.382324,10.971832c-1.091248-0.14328-1.838867-0.220581-2.256958-0.220581C656.991882,297.356781,656.245728,297.434082,655.58844,297.577362L655.58844,297.577362z M659.700134,280.432922c0.534119,0.207672,1.480774,0.315155,2.839966,0.315155c2.731079,0,4.850647-0.633087,6.368774-1.900452c1.535339-1.267517,2.305725-3.007568,2.305725-5.224518c0-1.910431-0.632935-3.368439-1.900513-4.379486c-1.251648-1.016876-2.914429-1.519592-4.989563-1.519592c-1.205933,0-2.669495,0.08313-4.401001,0.249298c-0.131714,5.815948-0.207703,9.485046-0.223389,11.003204V280.432922L659.700134,280.432922z M664.645264,264.15802L664.645264,264.15802L664.645264,264.15802L664.645264,264.15802z M666.232178,297.356781L666.232178,297.356781L666.232178,297.356781L666.232178,297.356781z M651.452393,265.594482L651.452393,265.594482L651.452393,265.594482L651.452393,265.594482z M124.614334,337.164917c0.198273-3.50882,0.300636-6.383087,0.300636-8.632996v-6.122467c0-2.786987-0.102364-6.14679-0.300636-10.0737c0.738251,0.114502,1.344803,0.173187,1.813065,0.173187c0.68956,0,1.267517-0.058685,1.723602-0.173187c-0.19915,4.269196-0.300781,7.563141-0.300781,9.880402v6.315765c0,2.202576,0.101631,5.076965,0.300781,8.632996c-0.751884-0.114532-1.34552-0.174683-1.778008-0.174683C125.761452,336.990234,125.178505,337.050385,124.614334,337.164917L124.614334,337.164917z M126.511139,310.870544L126.511139,310.870544L126.511139,310.870544L126.511139,310.870544z M125.563026,336.990234L125.563026,336.990234L125.563026,336.990234L125.563026,336.990234z M121.361137,311.999176L121.361137,311.999176L121.361137,311.999176L121.361137,311.999176z M171.939133,337.164917c1.693542-10.586426,2.816315-18.8013,3.38063-24.655975h0.617844c0.618729,1.417847,2.209915,4.491241,4.760498,9.217407c2.557175,4.721771,4.430374,8.091553,5.624863,10.093781h0.005722c2.377396-4.266388,5.978577-10.70108,10.798462-19.311188h0.475449c0.726074,6.868622,1.66275,15.087769,2.814117,24.655975c-0.834152-0.114532-1.37413-0.174683-1.631805-0.174683c-0.294327,0-0.870819,0.06015-1.729324,0.174683c-0.186249-2.75824-0.486298-6.275726-0.895157-10.555023c-0.401688-4.272003-0.653046-6.84137-0.755417-7.702057l0,0c-4.094543,6.887238-7.299774,12.912292-9.623337,18.082397h-0.335983c-2.052994-4.183411-5.16217-10.211273-9.334-18.082397l0,0c-1.104889,9.419189-1.656296,15.49884-1.656296,18.25708c-0.623718-0.114532-0.991074-0.174683-1.111328-0.174683C172.984619,336.990234,172.516937,337.050385,171.939133,337.164917L171.939133,337.164917z M242.815033,337.164917c1.692795-10.586426,2.815567-18.8013,3.379883-24.655975h0.617996c0.619324,1.417847,2.209763,4.491241,4.760498,9.217407c2.55777,4.721771,4.430374,8.091553,5.625443,10.093781h0.005737c2.376648-4.266388,5.977844-10.70108,10.798462-19.311188h0.474731c0.726776,6.868622,1.66272,15.087769,2.814819,24.655975c-0.833435-0.114532-1.374847-0.174683-1.631805-0.174683c-0.294312,0-0.870819,0.06015-1.729309,0.174683c-0.185516-2.75824-0.485565-6.275726-0.89444-10.555023c-0.402405-4.272003-0.65451-6.84137-0.756134-7.702057l0,0c-4.093811,6.887238-7.299805,12.912292-9.623352,18.082397h-0.335999c-2.052963-4.183411-5.162155-10.211273-9.333984-18.082397l0,0c-1.104889,9.419189-1.656296,15.49884-1.656296,18.25708c-0.624435-0.114532-0.991074-0.174683-1.110596-0.174683C243.860504,336.990234,243.39209,337.050385,242.815033,337.164917L242.815033,337.164917z M313.462433,324.749603c0-3.948486,1.225281-7.06485,3.674225-9.339142c2.455414-2.277069,5.71579-3.411285,9.78598-3.411285c4.021362,0,7.268829,1.129944,9.740662,3.391327c2.474762,2.262726,3.710754,5.384796,3.710754,9.3591c0,3.825287-1.182892,6.904388-3.553833,9.250244c-2.365204,2.335876-5.667084,3.500153-9.897583,3.500153c-4.214935,0-7.510956-1.182892-9.887604-3.554565C314.651184,331.582428,313.462433,328.51474,313.462433,324.749603L313.462433,324.749603z M317.01712,324.749603c0,3.631989,0.882874,6.447571,2.653687,8.441162c1.781677,1.98056,4.201324,2.971619,7.251831,2.971619c3.030457,0,5.444336-0.979492,7.225861-2.937317c1.78302-1.956329,2.671722-4.783356,2.671722-8.475464c0-3.67923-0.881531-6.500549-2.653107-8.458344c-1.770813-1.969269-4.189117-2.953156-7.244476-2.953156c-3.158752,0-5.59552,1.026855-7.31842,3.079285C317.879883,318.46524,317.01712,321.245026,317.01712,324.749603L317.01712,324.749603z M327.023529,310.870544L327.023529,310.870544L327.023529,310.870544L327.023529,310.870544z M384.073456,337.164917c0.199005-1.820251,0.301361-4.695984,0.301361-8.632996v-7.073364c0-3.793915-0.102356-6.83429-0.301361-9.122803c1.339661,0.114502,2.619354,0.173187,3.835999,0.173187c0.282898,0,0.960999-0.028595,2.041534-0.087402c1.074829-0.054413,1.668488-0.085785,1.776581-0.085785c5.121368,0,7.684265,1.728577,7.684265,5.187225c0,3.306732-2.071594,5.426453-6.207794,6.362976c4.724701,0.280701,7.083466,2.321503,7.083466,6.122437c0,2.040833-0.804077,3.746552-2.405975,5.115692c-1.609802,1.361969-3.866058,2.040833-6.771973,2.040833c-0.269989,0-0.900146-0.031555-1.885345-0.09021c-0.971741-0.055878-1.530334-0.084473-1.668488-0.084473C386.127777,336.990234,384.963501,337.050385,384.073456,337.164917L384.073456,337.164917z M387.308624,324.749603c0,4.231934,0.06012,7.85968,0.174805,10.878693c0.036499,0.081512,0.577057,0.135925,1.621094,0.161743c1.037567,0.021545,1.687073,0.034454,1.933472,0.034454c1.837402,0,3.288971-0.581482,4.340912-1.738708c1.05545-1.171448,1.584564-2.593536,1.584564-4.274933c0-1.814514-0.618713-3.110626-1.849579-3.884094c-1.23172-0.786194-3.367706-1.177155-6.417511-1.177155H387.308624L387.308624,324.749603z M387.308624,323.411987h1.915588c4.6716,0,7.006012-1.735809,7.006012-5.205902c0-3.017517-2.005768-4.532745-6.020813-4.532745c-0.102356,0-0.534851,0.024353-1.284546,0.071594c-0.750427,0.038696-1.230988,0.078735-1.441437,0.125977C387.368744,317.210754,387.308624,320.39151,387.308624,323.411987L387.308624,323.411987z M444.924164,337.164917c0.197693-3.50882,0.300812-6.383087,0.300812-8.632996v-6.122467c0-2.786987-0.103119-6.14679-0.300812-10.0737c0.738983,0.114502,1.346283,0.173187,1.813202,0.173187c0.690338,0,1.267395-0.058685,1.7229-0.173187c-0.197693,4.269196-0.299316,7.563141-0.299316,9.880402v6.315765c0,2.202576,0.101624,5.076965,0.299316,8.632996c-0.75058-0.114532-1.344818-0.174683-1.777435-0.174683C446.072754,336.990234,445.488495,337.050385,444.924164,337.164917L444.924164,337.164917z M446.821838,310.870544L446.821838,310.870544L446.821838,310.870544L446.821838,310.870544z M445.873749,336.990234L445.873749,336.990234L445.873749,336.990234L445.873749,336.990234z M441.671844,311.999176L441.671844,311.999176L441.671844,311.999176L441.671844,311.999176z M493.780762,337.288086c0.19754-2.656616,0.300781-5.551086,0.300781-8.66745v-6.470459c0-4.632904-0.103241-7.903992-0.300781-9.814423c0.870667,0.114502,1.469299,0.173187,1.813049,0.173187c0.515625,0,1.092712-0.058685,1.72287-0.173187c-0.19754,4.148926-0.300781,7.34259-0.300781,9.581085v5.947662c0,2.786987,0.060272,5.326263,0.174805,7.611847h1.757202c3.159332,0,5.854675-0.100159,8.091705-0.300629c-0.113068,0.445374-0.17334,0.797638-0.17334,1.058228c0,0.269257,0.060272,0.623138,0.17334,1.054138c-2.880096-0.194733-5.076965-0.297852-6.576477-0.297852C498.163177,336.990234,495.934631,337.093353,493.780762,337.288086L493.780762,337.288086z M496.122345,310.870544L496.122345,310.870544L496.122345,310.870544L496.122345,310.870544z M500.781067,336.990234L500.781067,336.990234L500.781067,336.990234L500.781067,336.990234z M490.526825,311.999176L490.526825,311.999176L490.526825,311.999176L490.526825,311.999176z M550.640198,337.164917c0.19751-3.50882,0.299316-6.383087,0.299316-8.632996v-6.122467c0-2.786987-0.101807-6.14679-0.299316-10.0737c0.737488,0.114502,1.344788,0.173187,1.811584,0.173187c0.691772,0,1.267517-0.058685,1.7229-0.173187c-0.197571,4.269196-0.300842,7.563141-0.300842,9.880402v6.315765c0,2.202576,0.103271,5.076965,0.300842,8.632996c-0.750488-0.114532-1.343384-0.174683-1.777344-0.174683C551.787292,336.990234,551.203003,337.050385,550.640198,337.164917L550.640198,337.164917z M552.53772,310.870544L552.53772,310.870544L552.53772,310.870544L552.53772,310.870544z M551.588257,336.990234L551.588257,336.990234L551.588257,336.990234L551.588257,336.990234z M547.38623,311.999176L547.38623,311.999176L547.38623,311.999176L547.38623,311.999176z M599.495117,337.288086c0.197693-4.362305,0.300781-7.26825,0.300781-8.720398v-7.598938c0-1.957825-0.103088-4.875031-0.300781-8.759125c2.144104,0.199158,4.363831,0.299316,6.64679,0.299316c1.818726,0,3.865295-0.100159,6.139587-0.299316c-0.11322,0.445374-0.17334,0.797791-0.17334,1.056915c0,0.305054,0.06012,0.660248,0.17334,1.05545c-2.885864-0.19754-6.007935-0.300629-9.376404-0.300629c-0.113037,1.969086-0.174622,5.079742-0.174622,9.336212c2.450378,0,5.361877-0.103119,8.721863-0.300781c-0.111755,0.395203-0.17334,0.750397-0.17334,1.056915c0,0.257812,0.061584,0.613007,0.17334,1.05838c-2.73114-0.20047-5.635559-0.302246-8.721863-0.302246c0,1.361969,0.061584,4.898041,0.174622,10.606506l0,0c4.74762,0,7.935669-0.100159,9.568359-0.300629c-0.11322,0.458282-0.17334,0.824921-0.17334,1.094177c0,0.208984,0.06012,0.55127,0.17334,1.018188c-2.214172-0.194733-4.36377-0.297852-6.43335-0.297852C604.208435,336.990234,602.030151,337.093353,599.495117,337.288086L599.495117,337.288086z M606.194824,310.870544L606.194824,310.870544L606.194824,310.870544L606.194824,310.870544z M610.103088,336.990234L610.103088,336.990234L610.103088,336.990234L610.103088,336.990234z M596.242798,311.999176L596.242798,311.999176L596.242798,311.999176L596.242798,311.999176z M656.810059,337.164917c0.2005-5.191498,0.302124-10.595062,0.302124-16.216278c0-4.67453-0.03009-7.706451-0.091675-9.087036h0.564331c7.096375,7.851044,13.111328,14.328705,18.045166,19.432953l0,0v-5.698639c0-4.687317-0.083191-9.111237-0.244934-13.260162c0.396729,0.114502,0.767578,0.173187,1.109863,0.173187c0.317993,0,0.643066-0.058685,0.983887-0.173187c-0.19751,5.708435-0.299255,9.904755-0.299255,12.588501c0,4.953918,0.028687,9.141449,0.088806,12.575745h-0.562805c-4.666077-5.522339-10.705322-12.130371-18.099548-19.835358l0,0c0,10.421875,0.103027,16.918152,0.30072,19.500275c-0.353699-0.09021-0.678833-0.15033-0.983887-0.174683C657.603455,336.990234,657.232544,337.050385,656.810059,337.164917L656.810059,337.164917z M667.453796,310.870544L667.453796,310.870544L667.453796,310.870544L667.453796,310.870544z M667.064331,336.990234L667.064331,336.990234L667.064331,336.990234L667.064331,336.990234z M653.100769,311.999176L653.100769,311.999176L653.100769,311.999176L653.100769,311.999176z M400.000366,161.973846l-37.674164,39.792282l-37.362854,39.461578l29.162323-22.831329l45.874695-35.918457l45.874847,35.918457l29.162903,22.831329l-37.363434-39.461578L400.000366,161.973846L400.000366,161.973846z M375.696075,180.954071c0.070831-18.981689,8.044342-35.736465,20.081573-45.568192l-0.466797-0.259293l-1.850464-0.897949l-1.891815-0.787674l-1.929077-0.673126l-1.313995-0.37236c-10.274323,12.465469-16.661652,29.754501-16.661652,48.813614c0,1.310349,0.034332,2.60939,0.094452,3.904037L375.696075,180.954071L375.696075,180.954071z M427.668152,112.5c-8.33075,0-16.246338,2.257133-23.367065,6.284355l1.624207,1.277496l2.350098,2.057976l2.274292,2.192604l2.183929,2.320038l0.29361,0.346542c2.441925-0.509766,4.946747-0.7733,7.501709-0.7733c24.696045,0,44.840668,24.710381,44.840668,55.00338c0,12.528397-3.451477,24.093124-9.238831,33.35907l12.584412,13.29187c9.274597-12.270721,14.958862-28.671768,14.958862-46.65094C483.674042,143.364365,458.519592,112.5,427.668152,112.5L427.668152,112.5z" />
</svg>
