<svg xmlns="http://www.w3.org/2000/svg" viewBox="0 0 800 450" width="800" height="450">
	<path fill="#a78bfa" d="M289.600006,253.800003c7.299988-0.399994,13.5,5.099991,13.899994,12.400009c0,0.5,0,0.899994,0,1.399994V272c0.399994,7.200012-5.100006,13.399994-12.299988,13.799988c-0.5,0-1,0-1.5,0h-13.399994V283l3.600006-0.600006v-25.200012l-3.600006-0.600006v-2.800003h13.299988V253.800003z M284.100006,257.200012v25.200012h5.5c2.600006,0.100006,5.200012-0.899994,7-2.899994c1.700012-2.100006,2.600006-4.799988,2.5-7.5v-4.399994c0.100006-2.700012-0.799988-5.399994-2.5-7.5c-1.799988-2-4.299988-3-7-2.899994L284.100006,257.200012z M307.799988,283l3.600006-0.600006v-17l-3.600006-0.600006V262h7.899994v20.399994L319.299988,283v2.799988h-11.5V283z M315.700012,256h-4.299988v-4.5h4.299988V256z M322.600006,274.299988c-0.200012-3.299988,0.700012-6.5,2.5-9.200012c1.5-2.299988,4.200012-3.600006,6.899994-3.5c1.399994,0,2.700012,0.299988,3.899994,0.899994c1.100006,0.600006,2.100006,1.399994,2.799988,2.5l0.399994-3h3.600006v23.5c0.200012,2.700012-0.700012,5.299988-2.5,7.200012c-2,1.899994-4.600006,2.799988-7.299988,2.600006c-1.299988,0-2.5-0.200012-3.700012-0.5s-2.399994-0.700012-3.5-1.299988l1.100006-3.399994c0.899994,0.5,1.899994,0.799988,2.899994,1c1,0.299988,2.100006,0.399994,3.200012,0.399994c1.600006,0.100006,3.200012-0.5,4.200012-1.600006c1-1.299988,1.5-3,1.299988-4.600006V283c-0.700012,1-1.700012,1.700012-2.799988,2.299988c-1.200012,0.5-2.399994,0.799988-3.700012,0.700012c-2.700012,0.100006-5.200012-1.100006-6.899994-3.100006c-1.799988-2.399994-2.600006-5.299988-2.5-8.299988L322.600006,274.299988L322.600006,274.299988z M326.899994,274.799988c-0.100006,2,0.399994,4,1.5,5.700012C329.5,282,331.199982,282.799988,333,282.700012c1.200012,0,2.299988-0.299988,3.299988-0.899994c0.899994-0.600006,1.700012-1.5,2.200012-2.5v-10.799988c-0.5-1-1.200012-1.899994-2.200012-2.5s-2.100006-0.899994-3.200012-0.899994c-1.899994-0.100006-3.700012,0.799988-4.600006,2.5c-1.100006,2-1.600006,4.299988-1.5,6.600006v0.599945H326.899994z M348,283l3.600006-0.600006v-17L348,264.799988V262h8v20.399994L359.600006,283v2.799988h-11.5L348,283L348,283z M356,256h-4.299988v-4.5H356V256z M370.299988,256.299988V262h4.5v3.200012h-4.5v14.399994C370.199982,280.399994,370.5,281.300018,371,281.899994c0.5,0.5,1.100006,0.700012,1.799988,0.700012c0.399994,0,0.899994,0,1.299988,0l1.200012-0.200012l0.600006,2.899994c-0.600006,0.299988-1.200012,0.600006-1.799988,0.600006c-0.799988,0.200012-1.600006,0.299988-2.299988,0.200012c-1.600006,0.100006-3.100006-0.5-4.200012-1.600006c-1.200012-1.399994-1.700012-3.200012-1.600006-5V265h-3.700012v-3H366v-5.700012H370.299988z M394.799988,285.700012C394.699982,285.100006,394.599976,284.5,394.5,284s0-1-0.100006-1.5c-0.899994,1.100006-1.899994,2-3.100006,2.700012s-2.600006,1.100006-4,1c-2,0.100006-4.100006-0.5-5.600006-1.799988c-1.299988-1.299988-2-3.100006-1.899994-5c-0.100006-2.100006,1-4.100006,2.700012-5.200012c2.299988-1.299988,4.899994-2,7.5-1.799988h4.399994v-2.799988c0.100006-1.200012-0.399994-2.5-1.299988-3.299988c-1-0.899994-2.299988-1.299988-3.700012-1.200012c-1,0-1.899994,0.100006-2.899994,0.399994c-0.700012,0.200012-1.399994,0.600006-2,1.100006L384,269h-3.299988v-4.600006c1.200012-0.899994,2.5-1.600006,3.899994-2.100006c1.600006-0.5,3.299988-0.799988,5-0.799988c2.399994-0.100006,4.700012,0.600006,6.5,2.100006c1.700012,1.5,2.600006,3.600006,2.5,5.899994v12.299988c0,0.299988,0,0.600006,0,0.899994l1.700012,0.200012v2.799988h-5.500031V285.700012z M387.799988,282.600006c1.399994,0,2.700012-0.299988,3.899994-1c1.100006-0.600006,1.899994-1.399994,2.5-2.5v-3.899994h-4.600006c-1.5-0.100006-3,0.399994-4.200012,1.200012c-1,0.700012-1.600006,1.799988-1.5,3c-0.100006,0.899994,0.200012,1.899994,0.899994,2.5c0.799988,0.600006,1.899994,0.899994,2.899994,0.799988L387.799988,282.600006z M403.399994,254.300003V251.5h7.899994v30.899994L414.899994,283v2.799988h-11.5V283L407,282.399994v-27.5L403.399994,254.300003L403.399994,254.300003z M429,286.200012c-3,0.100006-5.899994-1.100006-7.899994-3.299988c-2-2.399994-3.100006-5.399994-2.899994-8.600006v-0.799988c-0.100006-3.100006,1-6.100006,3-8.399994c1.799988-2.200012,4.399994-3.5,7.200012-3.5c2.700012-0.200012,5.399994,0.899994,7.299988,2.899994c1.700012,2.200012,2.600006,4.899994,2.5,7.700012v2.700012h-15.5l0,0c0,2,0.600006,4,1.700012,5.600006c1.100006,1.5,2.899994,2.299988,4.700012,2.200012c1.299988,0,2.600006-0.200012,3.799988-0.600006c1.100006-0.399994,2-1,2.899994-1.700012l1.700012,2.799988c-1,0.899994-2.100006,1.600006-3.399994,2.100006C432.5,285.899994,430.899994,286.100006,429,286.200012L429,286.200012z M428.399994,265c-1.399994,0-2.799988,0.700012-3.700012,1.799988c-1.100006,1.299988-1.700012,2.899994-1.899994,4.600006V271.5h11V271c0-1.5-0.399994-3-1.399994-4.299988C431.399994,265.5,429.899994,264.899994,428.399994,265L428.399994,265z M453.200012,285.700012V283l3.600006-0.600006v-25.200012l-3.600006-0.600006v-2.800003h11.5v2.800003l-3.600006,0.600006v25.200012h11.100006L472.5,278.799988h3.700012v7h-23V285.700012z M479.899994,273.700012C479.799988,270.5,480.799988,267.5,482.799988,265c3.899994-4.299988,10.5-4.600006,14.799988-0.700012c0.200012,0.200012,0.5,0.5,0.700012,0.700012c2,2.399994,3,5.5,2.899994,8.700012v0.5c0.200012,3.100006-0.799988,6.200012-2.700012,8.700012c-4,4.299988-10.799988,4.5-15,0.5c-0.200012-0.200012-0.299988-0.299988-0.5-0.5c-2-2.5-3-5.5-2.899994-8.700012L479.899994,273.700012L479.899994,273.700012z M484.200012,274.100006c-0.100006,2.200012,0.5,4.399994,1.600006,6.200012c1,1.600006,2.799988,2.600006,4.700012,2.5c1.899994,0.100006,3.700012-0.899994,4.700012-2.5c1.100006-1.899994,1.700012-4.100006,1.600006-6.200012v-0.5c0.100006-2.200012-0.5-4.299988-1.600006-6.200012c-1-1.600006-2.799988-2.600006-4.700012-2.5c-1.899994-0.100006-3.700012,0.899994-4.700012,2.5c-1.100006,1.899994-1.700012,4-1.600006,6.200012V274.100006L484.200012,274.100006z M497.700012,257.600006h-4.799988v-4.399994h4.799988V257.600006z M487.299988,257.600006H482.5v-4.399994h4.799988V257.600006z M523.400024,269.5h-3.200012L519.5,266.700012c-0.599976-0.5-1.299988-0.899994-2-1.200012c-0.900024-0.299988-1.799988-0.5-2.700012-0.399994c-1.200012-0.100006-2.400024,0.299988-3.399994,1c-0.700012,0.600006-1.100006,1.5-1.100006,2.5c0,0.799988,0.299988,1.700012,1,2.200012c1.200012,0.799988,2.599976,1.299988,4,1.399994c2.400024,0.399994,4.700012,1.200012,6.700012,2.5c1.400024,1,2.200012,2.700012,2.200012,4.399994c0.099976,2-0.900024,3.899994-2.5,5.100006c-2,1.399994-4.299988,2.100006-6.700012,1.899994c-1.599976,0-3.299988-0.200012-4.799988-0.600006c-1.399994-0.399994-2.700012-1-3.799988-1.799988V278.5h3.200012l0.799988,3.200012c0.600006,0.5,1.299988,0.799988,2,1c0.799988,0.200012,1.700012,0.299988,2.5,0.299988c1.299988,0.100006,2.5-0.200012,3.599976-0.899994c0.799988-0.5,1.299988-1.5,1.299988-2.5c0-0.899994-0.400024-1.799988-1.099976-2.299988c-1.200012-0.799988-2.599976-1.399994-4.099976-1.600006c-2.299988-0.399994-4.5-1.200012-6.5-2.5c-1.399994-1-2.299988-2.700012-2.200012-4.399994c0-2,0.899994-3.799988,2.5-5c1.799988-1.399994,4.099976-2.100006,6.400024-2c1.599976,0,3.299988,0.200012,4.799988,0.700012c1.299988,0.399994,2.5,1.100006,3.599976,1.899994L523.400024,269.5L523.400024,269.5z M545,282.200012c-1.400024,2.5-4.099976,4.100006-7,4c-2.299988,0.100006-4.5-0.799988-6-2.5c-1.599976-2.200012-2.400024-5-2.200012-7.700012v-10.600006l-2.700012-0.600006V262h7v14c-0.200012,1.799988,0.200012,3.700012,1.099976,5.200012c0.900024,1,2.200012,1.5,3.5,1.399994c1.299988,0.100006,2.700012-0.299988,3.799988-0.899994c1-0.600006,1.799988-1.5,2.299988-2.600006v-13.700012l-3.200012-0.600006V262h7.5v20.399994L551.799927,283v2.799988h-6.599976L545,282.200012L545,282.200012z M554.700012,283l3.599976-0.600006v-17l-3.599976-0.600006V262h7.5L562.5,265.5c0.700012-1.200012,1.799988-2.200012,3-2.899994c1.200012-0.700012,2.599976-1.100006,4.099976-1C571.799988,261.5,574,262.300018,575.5,263.800018c1.599976,2,2.299988,4.5,2.099976,7v11.600006l3.599976,0.600006v2.799988h-11.5V283l3.599976-0.600006v-11.5c0.200012-1.600006-0.299988-3.200012-1.200012-4.399994c-1-1-2.400024-1.399994-3.799988-1.299988c-1.200012,0-2.299988,0.299988-3.299988,0.899994s-1.799988,1.5-2.299988,2.5V282.5l3.599976,0.600006v2.799988h-11.5L554.700012,283L554.700012,283z M584.099976,274.299988c-0.200012-3.299988,0.700012-6.5,2.5-9.200012c1.5-2.299988,4.200012-3.600006,6.900024-3.5c1.400024,0,2.700012,0.299988,3.900024,0.899994c1.099976,0.600006,2.099976,1.399994,2.799988,2.5l0.400024-3h3.599976v23.5c0.200012,2.700012-0.700012,5.299988-2.5,7.200012c-2,1.899994-4.599976,2.799988-7.299988,2.600006c-1.299988,0-2.5-0.200012-3.700012-0.5s-2.400024-0.700012-3.5-1.299988l1.099976-3.299988c0.900024,0.5,1.900024,0.799988,2.900024,1c1,0.299988,2.099976,0.399994,3.200012,0.399994c1.599976,0.100006,3.200012-0.5,4.200012-1.600006c1-1.299988,1.5-3,1.299988-4.600006v-2.299988c-0.700012,1-1.700012,1.700012-2.799988,2.299988c-1.200012,0.5-2.400024,0.799988-3.700012,0.700012C590.700012,286.200012,588.200012,285,586.5,283c-1.799988-2.399994-2.599976-5.299988-2.5-8.299988L584.099976,274.299988L584.099976,274.299988z M588.400024,274.799988c-0.099976,2,0.400024,4,1.5,5.700012C591,282,592.700012,282.799988,594.5,282.700012c1.200012,0,2.299988-0.299988,3.299988-0.899994c0.900024-0.600006,1.700012-1.5,2.200012-2.5v-10.799988c-0.5-1-1.200012-1.899994-2.200012-2.5s-2.099976-0.899994-3.200012-0.899994c-1.900024-0.100006-3.700012,0.799988-4.599976,2.5c-1.099976,2-1.599976,4.299988-1.5,6.600006v0.599945H588.400024z M620.400024,286.200012c-3,0.100006-5.900024-1.100006-7.900024-3.299988c-2-2.399994-3.099976-5.399994-2.900024-8.600006v-0.799988c-0.099976-3.100006,1-6.100006,3-8.399994c1.799988-2.100006,4.400024-3.399994,7.099976-3.399994c2.700012-0.200012,5.400024,0.899994,7.299988,2.899994c1.700012,2.200012,2.599976,4.899994,2.5,7.700012v2.700012H614l0,0c0,2,0.599976,4,1.700012,5.600006c1.099976,1.5,2.900024,2.299988,4.700012,2.200012c1.299988,0,2.599976-0.200012,3.799988-0.600006c1.099976-0.399994,2-1,2.900024-1.700012l1.700012,2.799988c-1,0.899994-2.099976,1.600006-3.400024,2.100006c-1.599976,0.600006-3.299988,0.899994-5,0.799988V286.200012z M619.700012,265c-1.400024,0-2.799988,0.700012-3.700012,1.799988c-1.099976,1.299988-1.700012,2.899994-1.900024,4.600006V271.5H625V271c0.099976-1.5-0.400024-3-1.299988-4.299988C622.700012,265.5,621.200012,264.899994,619.700012,265L619.700012,265z M633.099976,283l3.599976-0.600006v-17l-3.599976-0.600006V262h7.5l0.299988,3.5c0.700012-1.200012,1.799988-2.200012,3-2.899994c1.200012-0.700012,2.599976-1.100006,4.099976-1c2.200012-0.100006,4.400024,0.700012,5.900024,2.200012c1.599976,2,2.299988,4.5,2.099976,7v11.600006l3.599976,0.600006v2.799988H648V283l3.599976-0.600006v-11.5c0.200012-1.600006-0.299988-3.200012-1.200012-4.399994c-1-1-2.400024-1.399994-3.799988-1.299988c-1.200012,0-2.299988,0.299988-3.299988,0.899994s-1.799988,1.5-2.299988,2.5V282.5l3.599976,0.600006v2.799988h-11.5V283z" />
	<path fill="#ddd6fe" d="M407.5,182c-7.5-0.300003-14.5,3.699997-18.200012,10.199997c-3.200012-6.600006-10.100006-10.699997-17.5-10.199997c-7.700012-0.300003-14.799988,3.899994-18.399994,10.699997h-0.200012v-8.300003h-22.5v57.300003h23.399994v-35c0-6.100006,3.799988-7.800003,7.5-7.800003s7.5,1.699997,7.5,7.800003v35h23.399994v-35c0-6.100006,3.799988-7.800003,7.5-7.800003s7.5,1.699997,7.5,7.800003v35H431v-35c0-19.800003-11.100006-24.600006-23.5-24.600006V182z M470.299988,230.800003c-7.5,0-11.600006-5.800003-11.600006-17.699997c0-11.800003,4.100006-17.699997,11.600006-17.699997c7.399994,0,11.600006,5.899994,11.600006,17.699997S477.700012,230.800003,470.299988,230.800003z M470.299988,182C446,182,434.099976,195.600006,434.099976,213.100006s12,31.100006,36.200012,31.100006S506.5,230.500015,506.5,213.100006S494.5,182,470.299988,182z M551.299988,217.100006c0.200012,5.399994-4,10-9.400024,10.199997l0,0c-5.200012,0-7.799988-2.699997-7.799988-8.600006v-34.300003h-23.399994v39.300003c-0.100006,11.199997,8.999969,20.399994,20.199982,20.5c0.200012,0,0.400024,0,0.599976,0c8.400024,0,16.599976-2.699997,20-12.199997h0.200012v9.699997h23v-57.300003h-23.400024L551.299988,217.100006L551.299988,217.100006z M600.299988,198.100006c0-4.399994,4.799988-5.600006,7.900024-5.600006c2.200012-0.100006,4.400024,0.800003,6,2.300003c1.400024,1.600006,2,3.800003,1.599976,6H637.5C636.799988,185.900009,623.099976,182,610.400024,182c-18.5,0-32,6.100006-32,21.5c0,23.399994,38.299988,12.100006,38.299988,23.399994c0,4.600006-3.5,6.800003-8.799988,6.800003c-2.200012,0.100006-4.400024-0.600006-6.200012-1.899994c-1.400024-1.600006-2.299988-3.600006-2.5-5.699997H577.5c0,14.600006,17.900024,18.199997,29.5,18.199997c13.900024,0,31.799988-4.100006,31.799988-20.5C639,199,600.299988,210.399994,600.299988,198.100006z M663.900024,205.600006c0.299988-6.600006,5.900024-11.800003,12.599976-11.5c6.200012,0.300003,11.200012,5.300003,11.5,11.5H663.900024z M676.400024,182C656.400024,182,642,193,642,214.100006c0,20,16.099976,30.100006,34.200012,30.100006c13.700012,0,27.700012-6.100006,32.5-19.800003H687c-1.700012,4.300003-5.900024,7.199997-10.5,7.100006c-7.799988,0-11.700012-5.100006-12.5-13.800003h45.799988C711.099976,201,702.299988,182,676.400024,182L676.400024,182z M132.600006,182c-7.099998,0-14,1.399994-19.099998,6.699997v-34H90.099998v87.099991h10.599998c1.099998-2.699997,2.599998-5.199997,4.300003-7.5c2.800003-3.600006,6.300003-6.600006,10.300003-8.800003l0.599998-0.300003c-4.199997-6.699997-2.099998-15.600006,4.599998-19.699997c6.699997-4.199997,15.600006-2.100006,19.699997,4.600006c1.399994,2.300003,2.199997,4.899994,2.100006,7.600006c0,0.5,0,1,0,1.600006C148,219.900009,153.5,221.699997,158.5,224.600006c1.199997-3.399994,1.800003-7,1.699997-10.600006c0-13.5-6.199997-31.5-27.5-31.800003L132.600006,182z M116.5,233.199997c-1.5,0-2.800003,1.199997-2.800003,2.699997s1.199997,2.800003,2.699997,2.800003S119.099991,237.5,119.199997,236S118,233.300003,116.5,233.199997L116.5,233.199997L116.5,233.199997z M164.100006,228.699997C164.600006,229.099991,165,229.599991,165.5,230c1.100006,1.199997,2,2.5,2.800003,3.800003c5.699997-6.699997,12.100006-12.699997,19.300003-17.899994v-61.300003h-23.399994v74.099991H164.100006z M170.899994,240.100006c0.199997,0.5,0.300003,1.100006,0.399994,1.600006h16.199997v-19.5C181.300003,227.600006,175.699997,233.600006,170.899994,240.100006z M216.399994,184.399994H193v27.899994c7.199997-4.5,15.100006-7.399994,23.399994-8.800003V184.399994L216.399994,184.399994z M233.600006,203.899994c4.5,0.899994,8.899994,2.300003,13,4.300003c3.600006,1.699997,7.100006,3.699997,10.399994,5.899994v-29.699997h-23.399994V203.899994z M233.600006,206.800003v10.399994c0.199997,5.399994-4,10-9.399994,10.199997l0,0c-5.199997,0-7.800003-2.699997-7.800003-8.600006v-11.600006c-8.5,1.899994-16.5,5.600006-23.399994,10.899994v5.800003c-0.100006,11.199997,9,20.399994,20.199997,20.5c0.199997,0,0.300003,0,0.5,0c8.399994,0,16.600006-2.699997,20-12.199997h0.199997v9.699997H257V216c-3.600006-2.199997-7.300003-4.100006-11.199997-5.800003C241.899994,208.600006,237.800003,207.399994,233.600006,206.800003z M282,205.600006c0.399994-6.600006,6.200012-11.699997,12.799988-11.199997c6,0.399994,10.899994,5.199997,11.200012,11.199997H282z M294.5,182c-20,0-34.399994,11-34.399994,32.100006c0,0.699997,0,1.399994,0,2.100006L260.5,216.500015c1.799988,1.199997,3.700012,2.300003,5.700012,3.199997c0.700012,0.300003,1.5,0.399994,2.200012,0.399994c0.399994,0,0.799988-0.100006,1.100006-0.199997c1.100006-0.300003,2.100006-1.100006,2.799988-2.100006l0.299988-0.199997h0.200012l0.100006,0.5c-0.700012,1.199997-1.799988,2.100006-3.100006,2.5c-0.5,0.199997-1.100006,0.300003-1.600006,0.300003c-0.799988,0-1.600006-0.199997-2.299988-0.399994c-2-0.699997-3.899994-1.699997-5.700012-2.800003c1.899994,17.5,17,26.399994,33.899994,26.399994c13.700012,0,27.700012-6.100006,32.5-19.800003h-21.700012c-1.700012,4.300003-5.799988,7.199997-10.5,7.100006c-7.799988,0-11.700012-5.100006-12.5-13.800003h45.899994c1.200012-16.699997-7.5-35.699997-33.399994-35.699997L294.5,182z" />
</svg>
