<?xml version="1.0" standalone="no"?>
<!DOCTYPE svg PUBLIC "-//W3C//DTD SVG 20010904//EN"
 "http://www.w3.org/TR/2001/REC-SVG-20010904/DTD/svg10.dtd">
<svg version="1.0" xmlns="http://www.w3.org/2000/svg"
 width="640.000000pt" height="640.000000pt" viewBox="0 0 640.000000 640.000000"
 preserveAspectRatio="xMidYMid meet">
<metadata>
Created by potrace 1.14, written by Peter Selinger 2001-2017
</metadata>
<g transform="translate(0.000000,640.000000) scale(0.100000,-0.100000)"
fill="#000000" stroke="none">
<path d="M2518 5720 l-677 -679 110 -110 c61 -61 107 -112 102 -112 -13 -2
-13 -2 -118 20 -55 11 -116 23 -135 26 -19 3 -42 8 -50 10 -8 2 -26 6 -40 9
-26 4 -166 32 -210 41 -91 18 -127 26 -145 29 -11 2 -114 23 -230 46 -283 56
-262 54 -267 33 -3 -10 -5 -58 -5 -108 -2 -245 123 -469 327 -588 111 -65 134
-71 805 -203 11 -2 56 -11 99 -19 44 -8 81 -17 84 -19 2 -3 -15 -28 -38 -58
-127 -159 -211 -343 -260 -564 -25 -111 -34 -336 -19 -439 5 -33 11 -73 14
-90 7 -48 53 -201 79 -263 135 -318 375 -570 677 -711 190 -89 355 -125 569
-125 215 -1 337 21 515 93 453 182 764 579 840 1071 13 80 13 335 2 386 -3 12
-8 38 -11 59 -8 50 -49 187 -75 252 -135 340 -441 641 -774 762 -64 24 -182
58 -222 65 -16 3 -55 10 -85 16 -30 6 -66 13 -80 16 -14 3 -158 32 -320 64
-162 33 -306 61 -320 64 -78 15 -137 27 -151 31 -10 4 92 113 335 355 192 193
353 350 356 350 4 0 110 -102 237 -227 238 -237 287 -275 409 -319 87 -32 122
-38 224 -38 138 -1 193 11 304 64 71 34 163 101 172 125 4 8 -254 273 -669
689 -372 372 -677 676 -679 675 -2 0 -308 -306 -680 -679z m856 -1864 c309
-85 513 -360 501 -674 -4 -110 -7 -125 -35 -207 -96 -279 -369 -463 -670 -450
-300 12 -536 202 -626 500 -29 95 -24 277 9 380 15 44 40 102 57 128 16 26 30
51 30 55 0 4 8 14 18 23 9 8 31 31 47 50 89 103 252 191 380 206 22 3 42 7 44
9 10 9 193 -6 245 -20z"/>
<path d="M4611 4251 c-1 -28 -3 -58 -5 -68 -7 -40 15 -175 40 -244 63 -176
207 -327 378 -396 33 -14 138 -40 231 -59 94 -18 194 -39 223 -45 28 -7 55 -9
60 -5 9 10 9 207 0 261 -19 109 -120 292 -200 360 -143 122 -223 155 -512 209
-11 2 -59 11 -105 20 -46 9 -89 16 -95 16 -8 0 -13 -19 -15 -49z"/>
<path d="M3638 1401 l-436 -438 -224 222 c-229 227 -302 286 -407 326 -94 35
-136 43 -241 43 -88 1 -153 -6 -207 -23 -67 -20 -184 -86 -232 -130 l-49 -46
679 -678 680 -678 679 681 680 680 -240 240 c-132 132 -241 240 -243 240 -1 0
-199 -198 -439 -439z"/>
</g>
</svg>
