<?xml version="1.0" standalone="no"?>
<!DOCTYPE svg PUBLIC "-//W3C//DTD SVG 20010904//EN"
 "http://www.w3.org/TR/2001/REC-SVG-20010904/DTD/svg10.dtd">
<svg version="1.0" xmlns="http://www.w3.org/2000/svg"
 width="1000.000000pt" height="1000.000000pt" viewBox="0 0 1000.000000 1000.000000"
 preserveAspectRatio="xMidYMid meet">
<metadata>
Created by potrace 1.14, written by Peter Selinger 2001-2017
</metadata>
<g transform="translate(0.000000,1000.000000) scale(0.100000,-0.100000)"
fill="#000000" stroke="none">
<path d="M3089 8846 c-2 -2 -31 -7 -64 -10 -488 -54 -975 -254 -1408 -577
-164 -123 -207 -160 -372 -324 -183 -182 -285 -302 -432 -510 -379 -535 -645
-1209 -753 -1905 -18 -118 -19 -122 -25 -185 -3 -33 -8 -71 -10 -85 -27 -144
-26 -808 0 -1015 2 -16 9 -73 15 -125 13 -105 31 -216 54 -330 8 -41 18 -88
21 -105 4 -24 31 -131 80 -315 31 -121 158 -459 230 -615 95 -206 288 -553
340 -611 6 -6 37 -50 70 -98 47 -68 62 -83 70 -72 6 8 74 80 150 161 148 155
152 160 366 386 202 214 219 232 219 242 0 5 -22 46 -48 91 -205 343 -369 800
-441 1231 -6 33 -12 72 -15 86 -2 14 -7 57 -11 95 -4 38 -9 77 -11 88 -23 125
-22 623 2 818 61 511 183 924 393 1332 89 173 93 180 103 184 4 2 8 8 8 13 0
6 26 49 57 97 430 656 1028 1083 1688 1208 50 9 104 18 120 20 275 31 539 20
760 -33 35 -8 30 -7 75 -17 109 -24 383 -129 485 -186 17 -9 57 -32 90 -50
232 -127 534 -378 706 -585 19 -23 40 -47 47 -55 226 -262 458 -677 587 -1051
32 -93 92 -290 100 -329 2 -8 13 -58 24 -110 11 -52 23 -111 26 -130 3 -19 8
-42 10 -50 2 -8 6 -31 9 -50 31 -224 44 -368 45 -526 l1 -80 46 -50 c131 -140
186 -195 191 -190 13 13 4 498 -12 666 -9 86 -26 232 -30 260 -20 127 -49 285
-70 380 -27 118 -100 389 -115 425 -5 11 -20 56 -35 100 -112 330 -310 728
-512 1024 -190 279 -449 568 -677 756 -27 22 -54 45 -60 50 -25 23 -166 126
-238 173 -367 246 -795 414 -1188 467 -30 5 -66 10 -80 13 -30 6 -575 13 -581
8z"/>
<path d="M6380 8843 c-36 -4 -189 -27 -250 -38 -209 -37 -502 -137 -725 -248
-160 -80 -156 -74 -93 -123 101 -79 250 -216 357 -328 31 -33 68 -72 83 -88
l27 -28 93 14 c51 9 120 18 153 22 74 9 343 9 408 0 26 -3 68 -9 95 -12 26 -3
79 -13 117 -20 39 -8 83 -17 99 -20 15 -3 83 -23 150 -44 1016 -325 1775
-1331 1971 -2610 2 -14 7 -52 11 -85 3 -33 8 -67 9 -75 17 -90 24 -482 12
-670 -12 -190 -37 -381 -73 -545 -8 -38 -16 -79 -19 -90 -57 -290 -220 -707
-394 -1009 -28 -49 -51 -92 -51 -95 0 -7 48 -61 158 -176 83 -87 377 -398 427
-450 176 -186 160 -173 177 -151 323 429 586 991 727 1554 30 116 73 321 86
407 3 22 10 67 15 100 5 33 12 89 15 125 4 36 8 76 11 90 20 125 26 698 10
880 -5 52 -10 109 -11 125 -1 17 -5 51 -9 78 -3 26 -9 68 -12 95 -3 26 -7 58
-10 72 -2 14 -7 41 -10 60 -9 62 -55 283 -71 345 -8 33 -17 68 -19 78 -2 10
-6 27 -9 37 -3 10 -8 27 -10 37 -14 72 -117 377 -150 450 -8 17 -15 34 -15 38
0 32 -179 403 -275 570 -60 105 -231 366 -262 400 -10 11 -37 46 -61 78 -94
126 -346 394 -472 502 -138 119 -286 228 -420 311 -53 33 -104 65 -115 71 -48
30 -289 145 -380 181 -177 71 -408 135 -580 161 -38 6 -86 13 -105 17 -40 7
-557 13 -610 7z"/>
<path d="M4278 7636 c-130 -165 -276 -378 -363 -531 -42 -74 -166 -320 -202
-400 -137 -303 -270 -737 -328 -1070 -18 -107 -31 -193 -40 -275 -3 -25 -7
-58 -10 -75 -2 -16 -7 -66 -10 -110 -3 -44 -8 -100 -11 -125 -6 -62 -7 -521 0
-527 4 -4 77 69 200 201 36 39 36 39 37 130 2 209 29 443 83 721 13 69 71 281
107 389 136 421 362 833 628 1146 78 92 252 268 316 321 30 24 54 47 55 51 1
19 -246 127 -396 173 -40 12 -42 12 -66 -19z"/>
<path d="M4873 5763 c-67 -71 -140 -148 -163 -173 -23 -25 -74 -79 -114 -120
-39 -42 -138 -147 -221 -234 -82 -88 -170 -180 -195 -206 -25 -26 -100 -105
-166 -176 -67 -71 -143 -152 -170 -180 -67 -70 -301 -318 -355 -375 -61 -65
-178 -189 -340 -359 -75 -80 -156 -165 -179 -190 -23 -25 -104 -110 -179 -189
-75 -79 -154 -163 -176 -186 -22 -24 -101 -107 -175 -185 -74 -79 -152 -161
-173 -184 -39 -41 -248 -262 -342 -361 -71 -74 -306 -322 -351 -371 -22 -23
-100 -105 -174 -184 -155 -164 -168 -178 -350 -370 -74 -79 -153 -162 -175
-185 -324 -339 -380 -403 -289 -327 21 18 44 36 49 40 6 4 84 66 175 136 91
71 183 143 205 160 22 17 42 33 45 37 3 3 23 18 45 34 22 17 42 32 45 35 7 8
138 111 171 135 15 11 110 85 211 164 100 80 244 192 318 250 74 58 142 111
150 118 8 7 83 65 165 129 83 65 193 152 246 193 53 42 112 88 130 102 19 15
93 73 164 129 72 55 144 112 160 125 49 39 289 228 325 255 18 14 70 54 115
90 46 36 138 108 205 160 67 52 127 100 133 105 7 6 147 116 312 245 165 129
305 238 310 242 27 21 185 146 216 170 19 14 141 110 271 212 130 102 242 186
248 186 7 0 58 -36 113 -80 56 -44 206 -161 332 -260 127 -99 241 -189 255
-200 14 -11 75 -58 135 -106 61 -47 119 -93 130 -102 11 -10 133 -105 270
-212 138 -107 295 -230 350 -273 55 -44 115 -91 134 -106 18 -14 77 -60 130
-102 92 -72 449 -352 520 -407 32 -25 165 -130 291 -229 30 -23 105 -82 165
-129 61 -47 126 -98 145 -114 19 -15 163 -128 320 -251 157 -122 311 -243 343
-268 32 -25 73 -57 90 -71 18 -14 188 -146 377 -294 190 -148 352 -274 360
-279 8 -6 -19 25 -60 68 -41 43 -84 88 -95 100 -11 12 -88 94 -171 181 -83 87
-166 175 -184 194 -18 19 -94 100 -170 180 -76 80 -155 163 -175 185 -55 58
-301 319 -365 386 -30 31 -109 115 -175 185 -66 70 -138 146 -160 169 -22 24
-105 112 -185 196 -80 84 -156 165 -170 180 -14 15 -89 94 -166 175 -78 82
-156 165 -174 184 -18 19 -94 100 -170 180 -76 80 -157 165 -180 190 -55 59
-303 320 -405 428 -99 104 -118 124 -282 298 -72 76 -148 157 -170 180 -21 22
-103 109 -183 194 -80 84 -156 165 -170 180 -14 14 -90 95 -170 179 -80 84
-165 174 -189 200 -199 211 -286 301 -291 301 -3 0 -61 -57 -127 -127z"/>
</g>
</svg>
