<svg xmlns="http://www.w3.org/2000/svg" viewBox="0 0 800 450" width="800" height="450">
	<path fill="#a78bfa" d="M406.399994,197.399994c-11.299988,0.199997-14.799988,3.300003-14.799988,15.800003v30.699997h16.100006c0.600006,0,0.799988,0.199997,0.799988,0.699997v1.100006c0,0.5-0.200012,0.699997-0.799988,0.699997h-16.100006v10.799988c0,0.5-0.200012,0.700012-0.799988,0.700012h-1.100006c-0.600006,0-0.799988-0.200012-0.799988-0.700012v-10.800003h-11.100006c-0.5,0-0.700012-0.199997-0.700012-0.699997v-1.100006c0-0.5,0.200012-0.699997,0.700012-0.699997h11.100006v-30.699997c0-13.899994,4.299988-18,16.799988-18.300003v0.699997v0.5v0.699997C405.700012,197.100006,406.100006,197.300003,406.399994,197.399994z M368.799988,245.199997h-3c-6.899994,0-12.200012-1.399994-15.5-2.800003c-2.100006-1-2.299988-2-2.299988-3.600006l0.100006-41.399994h-0.700012l0,0h-1.200012c0,0,0,0-0.100006,0l0,0c-0.399994,0-0.700012,0-0.700012,0v42c0,2.899994,0.799988,3.899994,3.5,5.199997c3.5,1.399994,8.700012,3.100006,16.799988,3.100006h3c0.5,0,0.700012-0.199997,0.700012-0.699997v-1C369.5,245.399994,369.299988,245.199997,368.799988,245.199997z M284,197.399994h-0.700012V230c0,10.399994-4.299988,15.199997-14.100006,15.199997c-8.5,0-14.399994-3.399994-16-4.5c1.699997-2.699997,2.5-6.100006,2.5-10.5v-32.800003h-0.699997h-1.199997h-0.699997V230c0,10.399994-4.800003,15.199997-14.399994,15.199997c-5.300003,0-8.800003-1-12-2.600006c-2.100006-1-2.300003-2.199997-2.300003-3.800003v-41.399994h-0.699997H222.5h-0.699997v42c0,2.899994,0.899994,4.100006,3.5,5.5c3.100006,1.399994,7.5,2.800003,13.5,2.800003c5.899994,0,10.100006-1.600006,12.899994-4.800003c1,0.600006,7.500015,4.800003,17.599991,4.800003c11.399994,0,16.5-5.899994,16.5-17.399994V197.5h-0.700012H284V197.399994z M333.5,212.199997v19.199997c0,8.399994-7.100006,13.800003-17.600006,13.800003c-10.399994,0-17.600006-5.399994-17.600006-13.800003v-19.199997c0-7.5,5.700012-12.600006,14.299988-13.600006c-2.200012-0.199997-4.200012-0.600006-5.899994-1.100006c-6.799988,2.399994-11,7.600006-11,14.800003v19c0,10,8,16.300003,20.200012,16.300003s20.200012-6.199997,20.200012-16.300003v-19c0-7.399994-4.399994-12.800003-11.600006-15c-1.799988,0.600006-3.799988,1.100006-6,1.300003C327.600006,199.300003,333.5,204.5,333.5,212.199997z M325.200012,257.600006h-0.600006c-1.299988,0-1.600006,0.299988-1.600006,1.5v0.700012c0,1.100006,0.299988,1.5,1.600006,1.5h0.600006c1.100006,0,1.600006-0.399994,1.600006-1.5v-0.700012C326.799988,257.899994,326.299988,257.600006,325.200012,257.600006z M307.100006,257.600006H306.5c-1.100006,0-1.600006,0.299988-1.600006,1.5v0.700012c0,1.100006,0.5,1.5,1.600006,1.5h0.600006c1.299988,0,1.5-0.399994,1.5-1.5v-0.700012C308.600006,257.899994,308.399994,257.600006,307.100006,257.600006z M455.799988,197.399994h-0.700012v31.800003c0,10.399994-4.799988,16.100006-15.799988,16.100006c-7,0-12.899994-1.5-17.799988-3.899994V198c0-0.5-0.200012-0.699997-0.700012-0.699997h-1.200012c-0.5,0-0.700012,0.199997-0.700012,0.699997v69.5c0,0.5,0.200012,0.700012,0.700012,0.700012h1.200012c0.5,0,0.700012-0.200012,0.700012-0.700012v-23.600006c4.600006,2.100006,10.5,3.699997,18,3.699997c12.600006,0,18.200012-6.699997,18.200012-18.300003v-32H457l0,0c0,0,0,0-0.100006,0h-1.100006V197.399994z" />
	<path fill="#ddd6fe" d="M269.5,271.899994c11.399994,0,16.5,5.899994,16.5,17.399994V321.5c0,0.5-0.200012,0.700012-0.700012,0.700012H284c-0.5,0-0.700012-0.200012-0.700012-0.700012v-32c0-10.399994-4.299988-15.200012-14.100006-15.200012c-8.5,0-14.399994,3.399994-16,4.5c1.699997,2.700012,2.5,6.100006,2.5,10.5V321.5c0,0.5-0.199997,0.700012-0.699997,0.700012h-1.199997c-0.5,0-0.699997-0.200012-0.699997-0.700012v-32c0-10.399994-4.800003-15.200012-14.399994-15.200012c-5.300003,0-8.800003,1-12,2.600006c-2.100006,1.100006-2.300003,2.200012-2.300003,3.799988v40.799988c0,0.5-0.199997,0.700012-0.699997,0.700012H222.5c-0.399994,0-0.699997-0.200012-0.699997-0.700012v-41.299988c0-2.899994,0.899994-4.100006,3.5-5.5c3.100006-1.399994,7.5-2.799988,13.5-2.799988c5.899994,0,10.100006,1.600006,12.899994,4.799988C252.899994,276.100006,259.399994,271.899994,269.5,271.899994z M315.799988,271.899994c13.5,0,20.399994,7.799988,20.399994,19.700012v4.799988c0,1-0.600006,1.600006-1.700012,1.600006H298v7.100006c0,9.700012,5.600006,16.100006,17.100006,16.100006C324.800018,321.200012,330,317,333.200012,311c0.399994-0.600006,0.700012-0.600006,1.100006-0.299988l0.899994,0.5c0.399994,0.200012,0.5,0.600006,0.200012,1c-3.200012,6.399994-9.100006,11.399994-20.299988,11.399994c-13.299988,0-19.700012-7.200012-19.700012-18.600006v-13.200012C295.399994,279.5,302.299988,271.899994,315.799988,271.899994z M315.799988,274.200012c-12,0-17.799988,6.899994-17.799988,17.299988v4.299988h35.5V291.5C333.5,281.100006,327.799988,274.200012,315.799988,274.200012z M365.799988,271.899994c12.600006,0,18.200012,6.799988,18.200012,18.299988v31.299988c0,0.5-0.100006,0.700012-0.700012,0.700012h-1.100006c-0.600006,0-0.799988-0.200012-0.799988-0.700012v-31.100006c0-10.399994-4.799988-16.100006-15.799988-16.100006c-6.899994,0-12.299988,1.399994-15.5,2.899994c-2.100006,0.899994-2.299988,1.899994-2.299988,3.399994v40.899994c0,0.5-0.200012,0.700012-0.700012,0.700012h-1.200012c-0.399994,0-0.700012-0.200012-0.700012-0.700012v-41.299988c0-2.899994,0.799988-3.899994,3.5-5.200012C352.299988,273.5,357.5,271.899994,365.799988,271.899994z M403.299988,262.399994v10.799988h16.100006c0.600006,0,0.799988,0.200012,0.799988,0.700012V275c0,0.5-0.200012,0.700012-0.799988,0.700012h-16.100006v29.5c0,13,3.600006,15.899994,16,15.899994c0.5,0,0.700012,0.100006,0.700012,0.700012v1.100006c0,0.600006-0.200012,0.799988-0.700012,0.799988c-14,0.100006-18.700012-3.700012-18.700012-18.299988v-29.600006h-11.100006c-0.5,0-0.700012-0.200012-0.700012-0.700012V274c0-0.5,0.200012-0.700012,0.700012-0.700012h11.100006V262.5c0-0.5,0.200012-0.700012,0.799988-0.700012h1.200012C403.100006,261.700012,403.299988,261.899994,403.299988,262.399994z M444.200012,271.899994c14.899994,0,18.200012,8.600006,18.200012,18.399994v25.299988c0,3.399994-0.799988,4.299988-3.399994,5.5c-3.5,1.5-8,2.5-14.700012,2.5c-16.5,0-20.200012-5.200012-20.200012-14.399994c0-10.399994,5.700012-14.200012,20.600006-14.200012c7.200012,0,13.399994,1,15.200012,1.100006v-5.799988c0-8.600006-2.600006-15.899994-15.700012-15.899994c-8.100006,0-13.200012,3.399994-16.200012,8.799988c-0.299988,0.399994-0.399994,0.600006-1,0.399994l-1-0.399994c-0.600006-0.200012-0.799988-0.5-0.399994-1C428.899994,275.600006,434.799988,271.899994,444.200012,271.899994z M444.399994,297c-13,0-17.700012,3.299988-17.700012,12c0,7.799988,3.100006,12.100006,17.399994,12.100006c5.700012,0,9.799988-0.700012,13.200012-2.200012c2.100006-0.899994,2.5-1.299988,2.5-3.799988v-16.799988C458,298,451.399994,297,444.399994,297z M474.899994,322.100006h-1.100006c-0.600006,0-0.799988-0.200012-0.799988-0.700012V252c0-0.5,0.200012-0.699997,0.799988-0.699997h1.100006c0.600006,0,0.799988,0.199997,0.799988,0.699997v69.5C475.600006,321.899994,475.399994,322.100006,474.899994,322.100006z M505.5,271.899994c11.900024,0,17.099976,4.899994,19.5,13.200012c0.200012,0.700012,0.099976,0.899994-0.400024,1.100006L523.5,286.5c-0.599976,0.299988-0.799988,0.100006-1-0.399994c-2.400024-8.100006-7-11.799988-17.299988-11.799988c-11.5,0-17.299988,6.100006-17.299988,15.799988v15.100006c0,9.700012,6,15.899994,17.299988,15.899994c9.900024,0,15.200012-4,17.5-12.399994c0.200012-0.600006,0.5-0.700012,1-0.5L524.799988,308.5c0.5,0.200012,0.700012,0.399994,0.5,1c-2.700012,9.299988-8.799988,14.100006-20,14.100006c-13.100006,0-20-7-20-18.399994v-14.899994C485.399994,278.799988,492.100006,271.899994,505.5,271.899994z M553.799988,271.899994C566,271.899994,574,278.100006,574,288.199982v19c0,10-7.900024,16.299988-20.200012,16.299988c-12.200012,0-20.200012-6.200012-20.200012-16.299988v-19C533.599976,278.100006,541.700012,271.899994,553.799988,271.899994z M553.799988,274.299988c-10.400024,0-17.599976,5.399994-17.599976,13.799988v19.200012c0,8.399994,7.200012,13.799988,17.599976,13.799988c10.5,0,17.599976-5.399994,17.599976-13.799988V288C571.400024,279.600006,564.299988,274.299988,553.799988,274.299988z M602.400024,271.899994c14.900024,0,18.200012,8.600006,18.200012,18.399994v25.299988c0,3.399994-0.799988,4.299988-3.400024,5.5c-3.5,1.5-8,2.5-14.700012,2.5c-16.5,0-20.200012-5.200012-20.200012-14.399994c0-10.399994,5.700012-14.200012,20.599976-14.200012c7.200012,0,13.400024,1,15.200012,1.100006v-5.799988c0-8.600006-2.599976-15.899994-15.700012-15.899994c-8.099976,0-13.200012,3.399994-16.200012,8.799988c-0.299988,0.399994-0.400024,0.600006-1,0.399994l-1-0.399994c-0.599976-0.200012-0.799988-0.5-0.400024-1C587.099976,275.600006,593.099976,271.899994,602.400024,271.899994z M602.599976,297c-13,0-17.700012,3.299988-17.700012,12c0,7.799988,3.099976,12.100006,17.400024,12.100006c5.700012,0,9.799988-0.700012,13.200012-2.200012c2.099976-0.899994,2.5-1.299988,2.5-3.799988v-16.799988C616.200012,298,609.599976,297,602.599976,297z M649.900024,271.899994c11.900024,0,17.099976,4.899994,19.5,13.200012C669.600037,285.800018,669.5,286,669,286.200012L668,286.5c-0.599976,0.299988-0.799988,0.100006-1-0.399994c-2.400024-8.100006-7-11.799988-17.299988-11.799988c-11.5,0-17.299988,6.100006-17.299988,15.799988v15.100006c0,9.700012,6,15.899994,17.299988,15.899994c9.900024,0,15.200012-4,17.5-12.399994c0.200012-0.600006,0.5-0.700012,1-0.5L669.299988,308.5c0.5,0.200012,0.700012,0.399994,0.5,1c-2.700012,9.299988-8.799988,14.100006-20,14.100006c-13.099976,0-20-7-20-18.399994v-14.899994C629.799988,278.799988,636.5,271.899994,649.900024,271.899994z M681.299988,252v23.600006c4.599976-2.100006,10.5-3.700012,18-3.700012c12.599976,0,18.200012,6.700012,18.200012,18.299988v31.299988c0,0.5-0.099976,0.700012-0.700012,0.700012h-1.099976c-0.599976,0-0.799988-0.200012-0.799988-0.700012v-31.100006c0-10.399994-4.799988-16.100006-15.799988-16.100006c-7,0-12.900024,1.5-17.799988,3.899994v43.299988c0,0.5-0.200012,0.700012-0.700012,0.700012h-1.200012c-0.5,0-0.700012-0.200012-0.700012-0.700012V252c0-0.5,0.200012-0.699997,0.700012-0.699997h1.200012C681.099976,251.300003,681.299988,251.5,681.299988,252z M285.299988,197.399994H286l0,0H285.299988h-1.200012h-0.700012l0,0h0.700012H285.299988z M223.899994,197.399994h0.699997C224.5,197.399994,224.300003,197.399994,223.899994,197.399994h-1.199997c-0.399994,0-0.699997,0-0.699997,0h0.699997H223.899994z M255.100006,197.399994h0.699997H255.100006h-1.199997h-0.699997h0.699997H255.100006z M347.399994,197.399994L347.399994,197.399994L347.399994,197.399994h-1.200012h0.100006H347.399994z M455.799988,197.399994h1.100006H457H455.799988L455.799988,197.399994z M269.5,147.100006c-10.100006,0-16.699997,4.199997-17.600006,4.800003c-2.800003-3.199997-7-4.800003-12.899994-4.800003c-6,0-10.399994,1.300003-13.5,2.800003c-2.699997,1.300003-3.5,2.600006-3.5,5.399994v42c0,0,0.300003,0,0.699997,0h1.199997c0.5,0,0.699997,0,0.699997,0v-41.400009c0-1.600006,0.199997-2.800003,2.300003-3.800003c3.199997-1.600006,6.699997-2.600006,12-2.600006c9.699997,0,14.399994,4.800003,14.399994,15.199997v32.600006h0.699997h1.199997h0.699997v-32.800003c0-4.399994-0.800003-7.800003-2.5-10.5c1.600006-1,7.499985-4.5,15.999985-4.5c9.799988,0,14.100006,4.800003,14.100006,15.199997v32.600006h0.700012h1.200012h0.700012v-32.800003C286,153.100006,280.899994,147.100006,269.5,147.100006z M336.200012,166.800003v4.800003c0,1-0.600006,1.600006-1.700012,1.600006H298v7.100006c0,8.800003,4.700012,14.899994,14.200012,15.899994c0.899994,0.100006,1.899994,0.199997,2.899994,0.199997c1.299988,0,2.600006-0.100006,3.700012-0.199997c7.299988-1,11.600006-4.800003,14.299988-10c0.399994-0.600006,0.700012-0.600006,1.100006-0.300003l0.899994,0.5c0.399994,0.199997,0.5,0.600006,0.200012,1c-2.200012,4.300003-5.600006,8-11,9.899994c-1.799988,0.600006-3.799988,1.100006-6,1.300003c-0.799988-0.100006-1.700012-0.100006-2.5-0.100006c-1.100006,0-2.200012,0.100006-3.299988,0.199997c-2.200012-0.199997-4.200012-0.600006-5.899994-1.100006c-7.600006-2.5-11.200012-8.699997-11.200012-17.300003v-13.199997c0-12.199997,6.899994-19.800003,20.399994-19.800003C329.299988,147.100006,336.200012,155,336.200012,166.800003z M333.5,166.699997c0-10.399994-5.700012-17.300003-17.700012-17.300003S298,156.299988,298,166.699997V171h35.5V166.699997z M347.399994,126.599998h-1.200012c-0.600006,0-0.799988,0.199997-0.799988,0.699997v70.099998c0,0,0.200012,0,0.700012,0h1.200012l0,0c0.600006,0,0.700012,0,0.700012,0v-70.099998C348.100006,126.800003,347.899994,126.599998,347.399994,126.599998z M395.399994,165.5v25.300003c0,3.300003-0.799988,4.300003-3.399994,5.399994c-3.5,1.5-8,2.5-14.700012,2.5c-16.5,0-20.200012-5.199997-20.200012-14.5c0-10.399994,5.700012-14.199997,20.600006-14.199997c7.200012,0,13.399994,1,15.200012,1.100006v-5.800003c0-8.600006-2.600006-15.899994-15.700012-15.899994c-8.100006,0-13.200012,3.399994-16.200012,8.800003c-0.299988,0.399994-0.399994,0.600006-1,0.399994l-1-0.399994c-0.600006-0.199997-0.799988-0.5-0.399994-1.100006C361.899963,150.700012,367.799988,147,377.199982,147C392.200012,147.100006,395.399994,155.699997,395.399994,165.5z M392.899994,173.5c-1.799988-0.300003-8.399994-1.199997-15.399994-1.199997c-13,0-17.700012,3.300003-17.700012,12c0,7.800003,3.100006,12.199997,17.399994,12.199997c5.700012,0,9.799988-0.699997,13.200012-2.199997c2.100006-0.899994,2.5-1.300003,2.5-3.800003V173.5z M456.899994,148.5h-1.100006c-0.600006,0-0.700012,0.199997-0.700012,0.699997v48.199997c0,0,0.100006,0,0.700012,0l0,0c0,0,0,0,0.100006,0H457c0.5,0,0.700012,0,0.700012,0v-48.199997C457.700012,148.699997,457.5,148.5,456.899994,148.5z M456.5,131.600006h-0.399994c-1.299988,0-1.700012,0.5-1.700012,1.800003v0.399994c0,1.399994,0.399994,1.699997,1.700012,1.699997H456.5c1.299988,0,1.799988-0.399994,1.799988-1.699997v-0.399994C458.299988,132.100006,457.799988,131.600006,456.5,131.600006z M507.700012,166.800003v4.800003c0,1-0.600006,1.600006-1.700012,1.600006h-36.5v7.100006c0,9.699997,5.600006,16.100006,17.100006,16.100006c9.700012,0,14.899994-4.199997,18.100006-10.199997c0.399994-0.600006,0.700012-0.600006,1.100006-0.300003l0.899994,0.5c0.399994,0.199997,0.5,0.600006,0.200012,1c-3.299988,6.399994-9.100006,11.399994-20.299988,11.399994c-13.299988,0-19.700012-7.199997-19.700012-18.600006v-13.199997c0-12.199997,6.899994-19.800003,20.399994-19.800003C500.799988,147.100006,507.700012,155,507.700012,166.800003z M505,166.800003C505,156.400009,499.299988,149.5,487.299988,149.5S469.5,156.399994,469.5,166.800003v4.300003H505V166.800003z M426.299988,147.100006c-8.299988,0-13.5,1.600006-17,3.100006c-2.799988,1.199997-3.5,2.300003-3.5,5.199997v39.5v0.699997v0.5v0.699997c0,0.399994,0.200012,0.600006,0.5,0.600006c0.100006,0,0.100006,0,0.200012,0h0.600006h0.600006c0.200012,0,0.399994-0.100006,0.5-0.199997c0,0,0.100006,0,0.100006-0.100006l0,0l0,0c0.100006-0.100006,0.100006-0.199997,0.100006-0.399994l0,0v-1.100006v-39.699997c0-1.5,0.200012-2.600006,2.299988-3.399994c3.200012-1.399994,8.600006-2.899994,15.5-2.899994c11,0,15.799988,5.600006,15.799988,16.100006v31.100006c0,0.5,0.200012,0.699997,0.799988,0.699997h1.100006c0.600006,0,0.700012-0.199997,0.700012-0.699997v-31.300003C444.5,153.899994,438.899994,147.100006,426.299988,147.100006z M206.300003,222.5c-0.199997,0.100006-0.399994,0.199997-0.600006,0.199997c-0.399994,0-0.800003-0.199997-1.100006-0.600006c-5.600006-9.399994-17.399994-12.800003-27.100006-8.300003c9.800003,7,12.899994,20.399994,6.800003,31c-0.199997,0.399994-0.600006,0.600006-1.100006,0.600006c-0.199997,0-0.399994-0.100006-0.600006-0.199997c-0.600006-0.300003-0.800003-1.100006-0.5-1.699997c5.399994-9.399994,2.699997-21.399994-5.899994-27.600006c-1,11.899994-10.899994,21.399994-23.199997,21.600006l0,0l0,0c-0.100006,0-0.300003,0-0.399994-0.100006h-0.100006c-0.100006-0.100006-0.199997-0.100006-0.300003-0.199997l0,0c-0.100006-0.100006-0.100006-0.100006-0.199997-0.199997c-5.800003-9.800003-18.399994-13.100006-28.300003-7.699997c-0.199997,12.600006-10.5,22.899994-23.199997,23.100006l0,0c-0.699997,0-1.199997-0.5-1.199997-1.199997s0.5-1.199997,1.199997-1.300003c10.900002-0.100006,19.800003-8.600006,20.699997-19.300003c-3.199997,1.5-6.5,2.199997-9.800003,2.199997c-8.199997,0-16.099998-4.199997-20.400002-11.800003c-0.300003-0.600006-0.099998-1.399994,0.5-1.699997s1.400002-0.100006,1.699997,0.5C98.799973,229.5,110.899979,233,120.799973,228.100006c-9.800003-6.600006-13.199997-19.699997-7.699997-30.300003c-6.099998-9.5-18.699997-12.600006-28.5-6.800003c-0.599998,0.300003-1.400002,0.199997-1.699997-0.399994c-0.400002-0.600006-0.199997-1.300003,0.400002-1.699997c10.900002-6.5,25.099998-3.100006,31.900002,7.600006c10.599998-0.5,19.199997-8.800003,20.100006-19.300003c-3.199997,1.5-6.5,2.199997-9.800003,2.199997c-8.099998,0-16.099998-4.199997-20.5-11.800003c-0.300003-0.600006-0.099998-1.399994,0.5-1.699997s1.400002-0.100006,1.699997,0.5c5.5,9.399994,17.199997,13.100006,26.899994,8.699997c-9.900002-6.800003-13.099998-20.199997-7.099998-30.899994c0.300003-0.600006,1.099998-0.800003,1.700005-0.5s0.800003,1.100006,0.5,1.699997c-5.300003,9.5-2.5,21.300003,6.100006,27.399994c0.899994-12.199997,11.100006-21.899994,23.5-21.899994c0.699997,0,1.199997,0.600006,1.199997,1.199997c0,0.699997-0.600006,1.199997-1.199997,1.199997c-11.199997,0-20.300003,8.800003-21,19.800003c10.699997-5.199997,23.699997-1.600006,30.100006,8.5c11.300003-0.5,20.300003-9.899994,20.100006-21.300003c0-0.699997,0.5-1.199997,1.199997-1.300003c0.699997,0,1.199997,0.5,1.300003,1.199997C190.699997,172.899994,180.600006,183.5,168,184c-4.800003,9.199997-2.100006,20.399994,6,26.5c1.300003-11.800003,11.300003-21.100006,23.399994-21.100006c0.699997,0,1.199997,0.600006,1.199997,1.199997c0,0.699997-0.600006,1.199997-1.199997,1.199997c-11.199997,0-20.300003,8.800003-21,19.800003c10.899994-5.300003,24.199997-1.399994,30.5,9.100006C207.100006,221.399994,206.899994,222.100006,206.300003,222.5z M138.800003,175.100006c9.600006,6.800003,12.800003,19.800003,7.199997,30.300003c5.699997,9.199997,17.600006,12.600006,27.300003,7.800003c-9.800003-6.600006-13.199997-19.699997-7.699997-30.300003C159.800003,173.899994,148.300003,170.600006,138.800003,175.100006z M121.099998,225.300003c1.199997-11.600006,10.900002-20.699997,22.700005-21c5-9.300003,2.300003-20.899994-6.199997-27c-1,11.699997-10.5,21.100006-22.400002,21.600006C110.400002,208,113,219.199997,121.099998,225.300003z M173.699997,215.699997c-3.100006,1.5-6.5,2.199997-9.800003,2.199997c-7.899994,0-15.600006-4-20-11.100006c-10.899994,0.300003-19.699997,8.899994-20.300003,19.699997c10.699997-5.199997,23.699997-1.600006,30.100006,8.5C164.300003,234.5,172.800003,226.199997,173.699997,215.699997z" />
</svg>
