<svg xmlns="http://www.w3.org/2000/svg" viewBox="0 0 800 450" width="800" height="450">
	<path fill="#a78bfa" style="opacity: .375;" d="M606.599976,138v76.600006L556.5,244.900009v-32.199997L495.299988,201l-76.599976,27L373,220.5v-68.699997l14.200012-6.899994l31.5,22.100006l76.600006-20.699997L556.5,154.000015L606.599976,138z M387.200012,123l31.5,22.100006l76.600006-20.699997L556.5,132.100006l71-22.800003L550,88.599998l-54.299988-4.199997l-15.399994,15L387.200012,123z" />
	<path fill="#ddd6fe" d="M639.700012,120.099998c-7.200012-2-42.299988-11.300003-50-13.400002l-38.799988-10.300003l-0.299988-0.099998c-0.200012-0.099998-54.299988-3.699997-54.600006-3.800003l-1.299988-0.099998l-0.899994,0.900002L479,108c-30.799988,8.099998-61.399994,16.599998-92.100006,25.100006c-6.799988,3.5-20.299988,10.5-27,14.100006c3.299988-1.5,8.200012-3.699997,13.100006-5.899994c-0.799988,22.699997-1.600006,47.300003-2,69.899994c16,3,32,5.899994,48,8.800003c19.299988-6.5,56.899994-19.399994,76.700012-26.300003c19.200012,3.800003,38.400024,7.300003,57.599976,10.899994c0.099976,8.600006,0.099976,32.600006,0.299988,34.800003l4.599976-2.800003c15.099976-9.100006,35.5-22.300003,50.799988-31.699997c-0.5-24.399994-1.200012-49.800003-2.099976-74.300003c8.299988-2.600006,16-5.099998,21.799988-6.900002C628.5,123.599998,639.700012,120.099998,639.700012,120.099998z M481.600006,112.699997l0.5-0.5l14.700012-13.900002c8,0.699997,51.000031,4.400002,52.399994,4.400002c16.099976,4.400002,45.599976,12.400002,66.200012,18L591,128.599991l-34.799988,11.399994c-15.5-1.899994-45.5-5.300003-60.5-7c-0.399994-0.100006-0.5-0.100006-1,0.100006l-38.100006,10.899994C444,147.599991,431.5,151.399979,419,154.999985c-0.799988-0.5-15.600006-10.399994-15.600006-10.399994s-13.5-8.899994-15.100006-10c30.200012-6.800003,62.100006-14.300003,92.799988-21.699997L481.600006,112.699997z M604.400024,202.399994L580.100037,216.5c-6.900024,4-13.700012,8-20.599976,12.100006c0.099976-7.399994,0.200012-26.800003,0.200012-26.800003v-2.699997l-2.700012-0.5c-20.400024-3.899994-40.700012-8-61.200012-11.800003l-0.899994-0.199997l-0.899994,0.300003c-18.899994,6.699997-56.600006,20.199997-75.799988,27.300003c-14.5-2.199997-28.899994-4.300003-43.399994-6.399994c-0.5-21.600006-1.100006-44.899994-2-66.399994c5.399994-2.5,11-5,14.5-6.600006c0.200012,0,0.299988-0.100006,0.5-0.100006c7.899994,6,22.600006,16.800003,30.100006,22.300003l0.399994,0.300003l0.5-0.100006c12.799988-3.199997,25.700012-6.199997,38.5-9.5l38-9.600006c15.399994,2.199997,45.499969,6.300003,60.600006,8.300003l0.700012,0.100006l0.700012-0.199997c11.900024-3.699997,31.799988-10,49-15.5C605.599976,154.300003,604.900024,178.800003,604.400024,202.399994z M160.300003,273.899994c0-13.200012,10.199997-24,24.100006-24c9.699997,0,14.399994,3.800003,17.699997,6.700012l-2.699997,3.799988c-3.699997-3.299988-8.300003-6-15.300003-6c-11.300003,0-18.899994,8.700012-18.899994,19.5s7.300003,18.899994,19.300003,18.899994c8.399994,0,13.5-4.600006,16.5-7.600006l2.699997,3.399994c-2.600006,3-8.800003,8.600006-19.199997,8.600006C168.800003,297.200012,160.300003,287,160.300003,273.899994z M242.899994,250.800003l20.700012,45.599991h-5.200012l-6-13.200012h-22.699997l-6,13.200012H218.5l20.699997-45.600006h3.699997V250.800003z M231.399994,279.5h19.300003L245,267c-1.199997-2.600006-3.600006-9.600006-3.800003-10.100006h-0.300003c-0.199997,0.5-2.600006,7.5-3.800003,10.100006L231.399994,279.5z M278.799988,292.899994L280.5,288.699982c3.799988,1.899994,9.200012,3.799988,15.200012,3.799988c8.799988,0,12.899994-4.399994,12.899994-9.399994c0-2.600006-1.200012-4.700012-3.5-6c-1.899994-1.100006-5.5-1.700012-9.799988-2.200012c-4.700012-0.600006-8.399994-1.200012-11.200012-2.700012c-4.200012-2.100006-5.799988-5.5-5.799988-9.600006c0-7.100006,6.899994-12.699997,17.100006-12.699997c6.200012,0,11.200012,1.300003,15.299988,3.300003l-1.600006,4.200012c-3.399994-1.600006-8.600006-3-13.700012-3c-8.399994,0-12.100006,4-12.100006,8.200012c0,2.399994,0.899994,4.299988,3.600006,5.799988c2,1,5.200012,1.5,9.399994,2c4.5,0.600006,8.700012,1.399994,11.100006,2.600006c4,2.200012,6.100006,5.5,6.100006,10c0,7.5-6.399994,13.899994-17.799988,13.899994C288.600006,296.899994,283.399994,295.399994,278.799988,292.899994z M328.299988,273.899994c0-13.200012,10.200012-24,24.100006-24c9.700012,0,14.399994,3.800003,17.700012,6.700012l-2.700012,3.799988c-3.700012-3.299988-8.299988-6-15.299988-6c-11.299988,0-18.899994,8.700012-18.899994,19.5S340.5,292.799988,352.5,292.799988c8.399994,0,13.5-4.600006,16.5-7.600006l2.700012,3.399994c-2.600006,3-8.799988,8.600006-19.200012,8.600006C336.700012,297.200012,328.299988,287,328.299988,273.899994z M396.299988,250.800003v45.599991h-4.899994v-45.600006h4.899994V250.800003z M453.200012,250.800003h4.899994v45.599991h-4.399994l-30.600006-37.799988H423c0,0,0.5,7.299988,0.5,11.200012v26.700012h-4.899994v-45.600006h4.5l30.5,37.799988h0.100006c0,0-0.5-8.399994-0.5-11V250.800003z M497.200012,250.800003l20.700012,45.599991h-5.200012l-6-13.200012H484l-6,13.200012h-5.200012L493.5,250.799988h3.700012V250.800003z M485.700012,279.5H505l-5.700012-12.5c-1.200012-2.600006-3.600006-9.600006-3.799988-10.100006h-0.299988c-0.200012,0.5-2.600006,7.5-3.799988,10.100006L485.700012,279.5z M248,342.299988c0-13.200012,10.200012-24,24.100006-24c9.700012,0,14.399994,3.799988,17.700012,6.700012l-2.700012,3.799988c-3.700012-3.299988-8.299988-6-15.200012-6c-11.299988,0-18.899994,8.700012-18.899994,19.5s7.299988,18.899994,19.299988,18.899994c8.399994,0,13.5-4.600006,16.5-7.600006L291.5,356.999969c-2.600006,3-8.799988,8.600006-19.200012,8.600006C256.5,365.600006,248,355.399994,248,342.299988z M330.600006,319.200012l20.700012,45.600006h-5.200012l-6-13.200012h-22.700012l-6,13.200012h-5.200012l20.700012-45.600006H330.600006z M319.100006,347.899994h19.299988l-5.700012-12.5c-1.200012-2.600006-3.600006-9.600006-3.799988-10.100006h-0.299988c-0.200012,0.5-2.600006,7.5-3.799988,10.100006L319.100006,347.899994z M383.100006,319.200012c12.799988,0,18.600006,6.299988,18.600006,14.799988c0,9.399994-5.899994,14.799988-17.700012,14.799988h-10.5v16h-4.899994v-45.600006h14.5V319.200012z M383.799988,344.600006c8.899994,0,12.799988-3.700012,12.799988-10.600006c0-5.299988-2.700012-10.299988-13.5-10.299988h-9.600006v20.899994H383.799988z M421.299988,319.200012H436.5c11.700012,0,16.799988,5.899994,16.799988,13.600006c0,5-2.5,10.299988-9,12.299988v0.200012l13.700012,19.5h-5.700012l-13.200012-18.700012h-12.899994v18.700012h-4.899994V319.200012z M436.700012,341.899994c8.200012,0,11.600006-3.700012,11.600006-9.200012c0-5.299988-3-9.100006-11.700012-9.100006h-10.299988v18.299988h10.399994V341.899994z M497.200012,319.200012l20.700012,45.600006h-5.200012l-6-13.200012H484l-6,13.200012h-5.200012L493.5,319.200012H497.200012z M485.700012,347.899994H505l-5.700012-12.5c-1.200012-2.600006-3.600006-9.600006-3.799988-10.100006h-0.299988c-0.200012,0.5-2.600006,7.5-3.799988,10.100006L485.700012,347.899994z" />
</svg>
