<svg xmlns="http://www.w3.org/2000/svg" viewBox="0 0 800 450" width="800" height="450">
	<path fill="#ddd6fe" d="M312.899994,294.899994c0-1.100006,1.799988-5.5,2.399994-8.600006c0.100006-0.899994,1.100006-1.100006,1.399994-1.100006c2.299988,0,6.200012,4.5,6.200012,6.5c0,2.100006-4.899994,4.700012-7.899994,4.700012C313.600006,296.5,312.899994,295.899994,312.899994,294.899994z M325.899994,296.399994c2.399994,0,9.100006-3,9.100006-5.5c0-2.899994-3.700012-6.200012-5.5-6.200012c-1.299988,0-1.799988,1.100006-2.299988,2.5c-1.100006,3-2.799988,6.5-2.799988,7.899994C324.399994,295.799988,324.700012,296.399994,325.899994,296.399994z M411.5,279.100006c-3.5,0-5.700012,3.600006-5.700012,6.700012s2.100006,4.799988,4.299988,4.799988c2.899994,0,5.600006-2.899994,5.600006-6.799988C415.700012,281.299988,414.200012,279.100006,411.5,279.100006z M588.400024,339.299988c0,0.700012-1.099976,1.100006-2.400024,1.100006c-6.900024,0-9.200012-7.100006-9.400024-7.799988C576.399963,333,573.299988,341.5,567.199951,341.5c-4.900024,0-9.700012-3.799988-11.099976-11c-4.900024,7.299988-12.599976,9-22.099976,9c-2.700012,0-7.400024-1.399994-7.400024-3.899994c0-2,1.599976-3.600006,3.900024-3.600006c3.5,0,6,1.5,6,1.5s2.799988-2.100006,2.799988-14.799988c0-8.5-0.700012-10.899994-3-10.899994c-5.599976,0-10.900024,24.399994-11.099976,28.899994c-0.099976,3.100006-2.799988,4.100006-4.400024,4.100006c-0.099976,0-0.200012,0-0.299988-0.100006c-35.100006,16.200012-76.799988,24.899994-120.399994,24.899994c-51.799988,0-100.800018-12.299988-139.399994-34.700012C257.5,346.5,251.100006,348.699982,249.000015,348.699982c-6.600006,0-13.399994-7-13.399994-15.799988c0-6.700012,7.800003-10,17.5-12.200012c0-2.799988,0.100006-5.899994,0.100006-9.299988c0-24.700012-4.600006-40.600006-15.600006-40.600006c-7.100006,0-17.300003,8.799988-17.300003,28.700012c0,12,4.899994,19.899994,9.899994,19.899994c4.899994,0,6-7.100006,6-12.200012c0-8.399994-1.800003-12.100006-2.899994-14c-0.300003-0.5-0.5-0.899994-0.5-1.299988c0-0.600006,0.5-1.299988,1.199997-1.299988c0.399994,0,0.899994,0.200012,1.5,0.600006c2.699997,1.700012,8.300003,7.200012,8.300003,15c0,7.700012-5.100006,16.5-14.199997,16.5c-9.300003,0-18-8.299988-18-22.700012c0-3.399994,0.399994-6.5,1-9.299988c-15.899994-20-24.300003-42.399994-24.300003-65.600006c0-37.899994,22.199997-73.300003,62.600006-99.900002C290.800018,98.900009,343.800018,84.5,400.000031,84.5c56.299988,0,109.300018,14.5,149.100006,40.699997c40.400024,26.600006,62.599976,62,62.599976,99.900009c0,27.199997-11.5,53.200012-32.900024,75.5c2.900024,1.200012,4.900024,3.799988,4.900024,7.100006c0,2.200012-3.299988,3.399994-4.400024,3.399994c-0.900024,0-1.099976-0.700012-1.099976-1.100006c0-0.700012,0.200012-1.299988,0.200012-2.600006c0-2-1.200012-3.600006-3.799988-3.600006c-4.200012,0-10.200012,7.200012-10.200012,22.100006c0,7.200012,2.200012,10.600006,4.099976,10.600006c2.599976,0,5.599976-7.600006,6.799988-13.5c1-4.600006,1.200012-11.399994,9-11.399994c0.799988,0,1.299988,0.600006,1.299988,1.299988c0,1.100006-2.400024,3.700012-2.400024,13.200012c0,5.100006,1.299988,9.5,4,11.799988C587.900024,338.5,588.400024,338.700012,588.400024,339.299988z M252.899994,326c-5.699997,2.100006-9.5,4.799988-9.5,9.100006c0,4.799988,2.100006,9.299988,4.699997,9.299988C250.100006,344.399994,252.199997,342.700012,252.899994,326z M281.299988,333.399994c-1.299988-3.600006-2.399994-8.100006-3-13.700012c-5.100006,1.299988-10.799988,2.399994-16.100006,3.600006C268.200012,327,274.600006,330.299988,281.299988,333.399994z M520.400024,314.399994c3.700012-7.799988,10.400024-22.600006,10.400024-33.700012c0-3.5-1.299988-4.700012-2.799988-4.700012c-2.5,0-7.799988,7.299988-7.799988,30.5C520.200012,310.799988,520.200012,313.100006,520.400024,314.399994z M516.299988,334.600006c-0.599976-1.5-1.200012-3.200012-1.799988-5.200012c-1.299988,2.700012-3.200012,6-5.799988,8.5C511.299988,336.799988,513.799988,335.700012,516.299988,334.600006z M566.700012,302.100006C590.5,280.300018,604.5,253.700012,604.5,225c0-73.5-91.700012-133.300003-204.399994-133.300003S195.700012,151.5,195.700012,225c0,20.5,7.199997,40,19.899994,57.399994c5.300003-10.399994,15-15.5,23-15.5C256,266.899994,262.5,284.799988,262.5,309.5c0,3.5-0.100006,6.600006-0.299988,9.5c5.600006-1,11.200012-1.899994,15.899994-3.100006c-0.100006-2.399994-0.200012-5-0.200012-7.799988c0-28.299988,8.600006-36.399994,13.899994-36.399994c1.600006,0,2.5,0.899994,2.5,1.399994C294.299988,274,287,280.5,287,308.200012c0,1.5-0.100006,2.899994,0,4.200012c2.399994-1.399994,3.899994-3.299988,3.899994-5.700012c0-0.700012,0.200012-1.200012,0.899994-1.200012c1.100006,0,3.299988,1.399994,3.299988,2.799988c0,3.899994-3.200012,6.5-7.899994,8.5c0.5,11.5,2.100006,18.600006,4.700012,21.100006c0.899994,0.399994,1.799988,0.700012,2.600006,1.100006c3.799988-0.200012,7.700012-6.600006,9.899994-11.100006c-0.100006-0.700012-0.100006-1.299988-0.100006-2c0-17.399994,10.299988-26.200012,19.200012-26.200012c5,0,9,3.299988,9,7.899994c0,2.200012-3.299988,3.399994-4.399994,3.399994c-0.899994,0-1.100006-0.700012-1.100006-1.100006c0-0.700012,0.200012-1.299988,0.200012-2.600006c0-2-1.200012-3.600006-3.799988-3.600006c-4.200012,0-10.200012,7.200012-10.200012,22.100006c0,7.200012,2.200012,10.600006,4.100006,10.600006c2.600006,0,4.600006-7.600006,5.899994-13.5c1-4.600006,1.200012-11.399994,9-11.399994c0.799988,0,1.299988,0.600006,1.299988,1.299988c0,1.100006-2.399994,3.700012-2.399994,13.200012c0,4.600006,1.299988,7.799988,3.100006,7.799988c4.799988,0,8.299988-9.399994,8.600006-10.200012v-0.100006c0,0,3.299988-9.100006,4.299988-19.899994c0.100006-1.299988,1.299988-1.5,2-1.5c3.299988,0,5.600006,2.399994,7.100006,6.399994l3.5,8.899994c4.700012-10.399994,8.399994-18.600006,12.5-18.600006c2,0,5.399994,2.299988,5.399994,3.700012c0,0.799988-0.5,1.299988-1.299988,1.299988c-5.100006,0-9.100006,6.700012-14.600006,18.299988c3.5,7.600006,6.399994,11.600006,10.600006,11.600006c5,0,8.200012-5.600006,9.399994-8.399994c-0.799988-5.5-1-11.700012-1-18.600006c0-18.700012,3.299988-28.399994,7.100006-32.600006l-2.700012-5.299988c-0.200012,5,1.299988,9.799988-4.799988,12.899994c-1.799988,0.799988-6.899994,2.899994-8.600006,2.899994c-2.399994,0-2.200012-0.299988-1-1.100006c6.5-4.399994,8-8,6.100006-14.200012c-0.5,0.200012-1,0.5-1.600006,0.600006c-0.100006,0-0.100006,0.100006-0.200012,0.100006c-1.700012,1-6.399994,3.799988-8.100006,4.100006c-2.299988,0.399994-2.299988,0-1.100006-1c1.600006-1.399994,2.799988-2.799988,3.700012-4l-0.100006-0.100006c-5.399994-8.299988-11.700012-15.800003-18.100006-22.899994c-7.700012-8.300003-15.5-16.899994-21.899994-26.100006c-0.799988-1.100006-1.399994-2.199997-2-3.199997l-14.5-1.899994c-0.700012,1.199997-2.100006,1.600006-4.600006,1c-0.899994,0.600006-3.899994,1.5-3.899994,0c-1.600006,1-2.700012,0.600006-3.200012-0.300003c-1.799988,0.699997-1.899994-0.100006-1.899994-1.100006c0-0.399994,0-0.800003,0.200012-1.300003l-36.399994-4.800003c-2.5-0.300003-2.100006-6,0.899994-5.600006c13,1.699997,26,3.399994,39,5.100006c0.299988-0.100006,0.600006-0.199997,0.899994-0.300003C306,206.999893,307,206.499893,308,205.799896c-0.700012-0.800003-1.299988-1.699997-1.5-2.600006c10-5.600006,18.899994-10.5,29.299988-16.5c1.399994-0.800003,1.399994-3.199997,3.299988-3.199997c1.399994,0.100006,0.700012-1.600006,1.600006-2.100006c1.200012-0.600006,1.200012-0.600006,2.100006-1.600006c2.100006-2.300003,16-20.300003,18.100006-24c0.600006-1.100006,0.5-3.399994,0-4.399994c-1.399994-3-5.399994-1.5-7.799988-1.399994c-1.200012,0-2.200012-0.600006-1.899994-2.399994c0.100006-0.699997,0-0.800003-0.299988-1.5c-0.200012-0.5-0.399994-1,0.100006-1.199997c-0.200012-0.100006-0.700012-0.100006-0.5-1.100006c0.100006-0.699997,1-1.600006-0.600006-2c-1-0.199997-2.600006-0.600006-1.5-1.699997c0.799988-0.699997,2.600006-3.399994,2.700012-3.800003c0.299988-0.899994-0.200012-1.300003-0.399994-2.199997c-0.100006-0.399994,0.799988-2.600006,1.5-4c-8.799988-3.5-15.899994-7.199997-17.899994-9.599998c-1.5-1.800003-2.899994-4.400002,1.299988-2.099998c7,3.900002,14.299988,4.699997,18.799988,3.699997c4-4.699997,9.399994-7,13.799988-11.400002c1.799988-1.800003,3.5-3.199997,5-5.400002c1.299988-1.800003,2.200012-1.900002,4-1.800003c4.600006,0.300003,7.899994,1,11.600006,2.699997s3.399994,4.099998,4.799988,8c0.700012,2.800003,2.5,7.099998-0.299988,4.400002c-1-0.900002-1.899994-2.800003-2.600006-4c-0.5-0.800003-1-1.5-1.399994-2.300003c-0.200012-0.5-0.299988-0.599998-0.899994-0.400002c-1.899994,0.400002-3.799988,0.699997-5.700012,1.099998c-2,0.400002-2.600006,1.699997-3.399994,3.400002c-1.299988,2.5-1.700012,7.099998-2,10.599998c-0.100006,0.800003-0.100006,1.499992-0.200012,2.099998c5.200012,3.699997,10.700012,8.899994,17.299988,9.100006c1.600006,0.100006,2.799988-0.100006,2.799988,0.300003c-0.299988,1.100006-1.5,1.699997-3.299988,1.899994c2.5,1.899994,12.399994,4.600006,14.600006,1c0.799988-1.300003-0.200012-3-1.100006-2.699997c-0.600006,0.199997-0.5,1,0.200012,1.100006c0.299988,0,0.5-0.199997,0.5-0.5c0.299988,0.399994,0.100006,0.800003-0.100006,1c-0.600006,0.800003-2.700012-0.199997-1.700012-1.5c1.600006-2.199997,5.799988,1.199997,2.700012,5.800003c-2.399994,3.600006-7.799988,3.600006-12.899994,2.199997c5.5,2,12.5,1.5,16-1.600006c-1.200012,2.399994-6.200012,5.199997-9,5.5c4.299988,0.300003,9.600006,0.199997,13.899994-2.600006c-0.600006,1.399994-1.799988,2.800003-3.5,3.5c1.600006-0.199997,7.899994-1.699997,10.899994-3.899994c3.600006-2.600006,0.399994-5.199997-1.200012-3.899994c-1.100006,0.800003-0.399994,2.5,1,2c-0.799988,1.199997-2.600006,0.699997-2.899994-0.899994c-0.200012-0.899994,0.399994-1.600006,1-2.100006c2.200012-1.800003,6.200012,0.600006,5.5,3.899994c-0.299988,1.300003-1.200012,2.699997-2.200012,3.600006c-2.200012,2.100006-5,2.800003-6.200012,3.399994c7.100006-1,12.200012-3.100006,13.899994-6c-0.700012,2.899994-2.899994,4.899994-5.100006,6c1.100006,0.199997,2.5,0,3.600006-0.600006c-1.700012,4.100006-9.5,6.600006-16.799988,5.899994c6.5,1.5,14.100006,1.600006,18.399994-0.199997c-3.600006,3.800003-16.600006,4.600006-22.5,2.5c7.399994,2.699997,19,2.600006,27.100006-2c-8.200012,8.5-26.600006,8-34.399994,3.399994c11.700012,8.300003,26.299988,0.199997,32.799988,4.300003c1.700012,1,2.299988,2.800003,1.100006,4.600006c-1.399994,2-5.100006,1.300003-3.799988-1.300003c-0.100006,1.600006,1.5,1.300003,1.899994,0.300003c0.299988-0.800003,0-1.5-0.600006-1.899994c-2.200012-1.699997-6.799988-0.100006-9.100006,0.600006c-4.200012,1.199997-9.799988,3-15.299988,1.199997c1.799988,0.800003,10.700012,4.300003,14.100006,3.600006c1.200012-0.300003,2.399994-1.5,1-2.800003c3.100006,0.600006,2.5,3.399994,1.399994,4.699997c-3.899994,4.399994-13.799988,3.199997-18.399994,0c2.5,2.5,5.700012,4.800003,9.299988,6.300003c-9-0.199997-23.600006-14.399994-35.899994-24.300003c17.600006,22.800003,38.200012,33.099991,55.399994,36.400009c20.600006,3.899994,30.899994-0.199997,49.299988-8.5c-7,5.399994-7.299988,9.800003-5,15.300003c5.200012,12.899994-3.700012,13.899994-13,13.800003c-6.600006-0.100006-9.799988-3.800003-12.899994-3.199997c-2.399994,0.5-2.399994,5.800003-3.100006,9.899994c-0.299988,1.699997-0.799988,3.300003-1.399994,4.899994c6.700012,0.899994,13.399994,1.800003,20.100006,2.699997c0.600006-0.800003,1.5-1.399994,2.5-1.899994c1.700012-0.800003,4.5-1.199997,6.700012-0.199997c4,1.800003,2.799988,4.399994,7.700012,1.300003c3.700012-2.399994,6.299988-2.5,11-3.300003c11.5-1.899994,17.899994-0.600006,33.500031-0.899994c0.799988,0.699997,1.599976,1.5,2.5,2.300003L524.5,227.399918l12.299988,0.600006l1.5,2.5L518.5,230.899918l20.599976,1.699997l0.099976,1.600006l-14.099976,1.100006l14.099976,1.199997c0,2-0.099976,3.899994-0.400024,6c-2.5-0.100006-5.700012-0.199997-8.200012-0.300003c2.400024,0.600006,5.5,1.300003,7.799988,1.800003c-0.099976,0.399994-0.200012,1-0.400024,1.300003c-7.099976-0.899994-14.799988-2.199997-21.900024-3.100006c6.900024,1.399994,14.299988,3.300003,21.200012,4.699997c-0.200012,0.699997-0.400024,1.300003-0.700012,2c-2.799988-0.300003-6.200012-0.899994-9.099976-1.199997c2.599976,1,6,2.199997,8.5,3.100006c-0.700012,1.199997-1.5,2.800003-2.200012,3.800003c-7.599976-2.300003-15.200012-4.600006-22.700012-6.899994c7.299988,3,14.700012,5.899994,22,8.900009c-2.099976,1-4.200012,2.100006-6.400024,3.100006c-9.5-3.5-37.5-12.600006-41.100006-18.899994c-1.899994-3.399994-2.399994-3.399994-5.100006-2.800003c-4.700012,1-6.5,0.699997-8.600006-2l-24.5-3.199997c-1.899994,2.100006-4.100006,4-6.600006,5.600006c15.899994,6.100006,34.299988,8.399994,51,9.100006c-13.399994,11.200012-21.399994,13.700012-28.700012,10.200012c-8.600006-4.100006-15.299988,1.100006-22,5.5c-5.799988,3.799988-10.5,4-18.200012-0.100006c-5.700012-3-5.5,2.799988-10.299988,3.899994c-5.799988,1.299988-6.100006-6.200012-13.299988,2.299988c-3.299988,3.899994-7.100006-0.799988-11.399994-2.899994l1.700012,6.200012c1.200012-0.799988,2.399994-1.200012,3.600006-1.200012c4.299988,0,6.399994,4.100006,6.399994,9.899994c0,15.799988-7.299988,32.399994-10.399994,38.600006c0.799988,10.700012,3.100006,22,10.100006,25.899994c0.600006,0.299988,1.100006,0.700012,1.100006,1.299988c0,0.5-0.5,1.200012-1.399994,1.200012c-4.399994-0.100006-8.799988-2.899994-11.799988-7.5c-2.100006-3.200012-3.600006-6.799988-4.5-10.899994c-2.399994,4.899994-7,12.100006-13.299988,12.100006c-5.700012,0-9.5-3.899994-12.600006-9.100006c-5.100006,9.5-9,13.799988-13.899994,13.799988c-2.5,0-4.100006-2.299988-4.100006-3.600006c0-0.600006,0.299988-1.100006,1-1.100006c4.899994,0,9.899994-4.399994,14.799988-13.299988c-2.200012-4.799988-4.100006-10.200012-6.200012-14.899994c-1.399994,7.100006-3.100006,11-3.399994,11.600006l0,0c0,0-5.100006,14.799988-11.700012,14.799988c-6.399994,0-8.200012-7.399994-8.399994-8.100006c-0.100006,0.5-2.299988,9.600006-8.799988,9.600006c-4.399994,0-8.799988-3.100006-10.600006-9c-1.5,3-3.600006,6.299988-5.899994,8.600006c29.799988,11,64.100006,17.399994,100.799988,17.399994c36.399994,0,70.600006-6.200012,100.200012-17.200012c-4-0.799988-7.299988-5.799988-7.600006-11c-2.200012,4.799988-5.200012,10-11,10c-3.399994,0-8.299988-1.600006-10.299988-9.5c-2.399994,4.899994-6.5,11.100006-11.299988,11.100006c-4.899994,0-9.399994-3.700012-11.100006-12.399994c-1.399994,1.899994-3.600006,3.899994-6.700012,4.700012c-2.600006,4.200012-8,6.899994-13.299988,6.899994c-4.600006,0-9.399994-2-10.5-5.5c-2.299988,3.5-5.200012,6.5-8.299988,6.5c-4.700012,0-11.100006-3.600006-11.100006-19.200012c0-16.700012,3.899994-22.899994,9.799988-22.899994c1.299988,0,1.799988,0.700012,1.799988,1.5c0,1.299988-3.200012,7.600006-3.200012,23.299988c0,9.899994,2.399994,11.700012,3.899994,11.700012c5.299988,0,9.799988-12,10.100006-12.799988l0,0c0,0,2-5.600006,3.399994-14.100006c0,0-1.200012-4.600006-1.200012-7.100006c0-4.399994,2.200012-6.799988,5.100006-6.799988c2.799988,0,4.200012,1.600006,4.200012,3.899994s-2,6.600006-2,6.600006c0,5.799988,12.700012,13.100006,12.700012,22.399994c0,0.700012-0.100006,1.299988-0.200012,1.799988c2.399994-1.200012,3.899994-3.399994,4.799988-5c-0.100006-1.5-0.200012-3.200012-0.200012-4.899994c0-7.100006,0.700012-14.600006,1.700012-21c-1.5-0.100006-3-0.299988-4-0.399994c-1.5-0.200012-2.299988-2.5-2.299988-3.799988c0-0.299988,0.299988-0.600006,0.600006-0.600006c0.399994,0,2,0.399994,6.600006,0.5c1.100006-4.399994,2.299988-8.100006,3.899994-10.399994c1-1.5,3.5-3,4.5-3c0.700012,0,1.600006,0.100006,1.600006,1.299988c0,0.700012-1.200012,4.600006-2.200012,11.799988c6.600006-0.700012,8.799988-2.200012,9.399994-2.200012c0.5,0,0.899994,0.5,0.899994,1c0,2.299988-2.5,4.700012-4.899994,5.200012c-1.5,0.399994-3.700012,0.5-6,0.600006c-0.700012,5.600006-1.200012,12.5-1.200012,20.899994c0,11.700012,3.100006,15,5.399994,15c3.700012,0,6.899994-5.899994,8.5-9.399994c-0.100006-1.299988-0.200012-2.700012-0.200012-4.200012c0-15.600006,5.600006-20.200012,9.299988-20.200012c0.799988,0,1.799988,0.700012,1.799988,1.399994c0,1.299988-2.899994,5.200012-2.899994,20.899994c0,10.299988,3.899994,11.299988,5.200012,11.299988c3.5,0,8.100006-9.5,8.100006-14.5c0-16.899994,3.899994-22.700012,9.299988-22.700012c0.799988,0,2.100006,0.399994,2.100006,1.299988c0,1.299988-2.899994,9.5-2.899994,21.600006c0,12.799988,2,14.5,3.799988,14.5c4.299988,0,7.899994-7.100006,9.300018-10.399994c-0.700012-3.799988-1.200012-8.299988-1.200012-13.5c0-30.200012,8-39.600006,15.200012-39.600006c4.400024,0,7.299988,3.200012,7.299988,9.100006c0,13.200012-11.5,34.399994-14.400024,39.899994c0.700012,9.200012,1.299988,9.299988,1.299988,9.299988s4.900024-29.399994,16.599976-29.399994c5.400024,0,10.400024,4.200012,10.400024,17c0,7.799988-3.299988,14.600006-6.900024,18.100006c5.700012-1.299988,10.299988-3.399994,13.900024-10.299988c0,0,0,0,0-0.100006C555.599976,313.700012,560.599976,305.799988,566.700012,302.100006z M434.200012,330.899994c0.100006-0.700012,0.100006-1.299988,0.100006-2c0-8.700012-5.200012-14.100006-6.799988-17.600006c-1.700012,8.200012-3.5,13-3.799988,13.799988l0,0c0,0-0.700012,2-1.899994,4.600006c0.5-0.200012,1.100006-0.200012,1.600006-0.200012C426.399994,329.399994,430,330.299988,434.200012,330.899994z M425.600006,333.100006c-1,0-1.799988,0.5-1.799988,1.600006c0,1.799988,2.600006,2.899994,4.399994,2.899994c2.5,0,4.100006-1.5,5.100006-3.700012C430.299988,333.600006,427.700012,333.100006,425.600006,333.100006z M388.5,313.100006c3.100006-7.799988,7.399994-20.799988,7.399994-32.399994c0-1.600006,0-4.899994-2.200012-4.899994c-1.700012,0-5.200012,8.200012-5.200012,30.899994v6.399994H388.5z M405.600006,212.100006c-3.5-13.300003-9.200012-17.699997-21.399994-26.399994C389.600006,195.699997,397.600006,203.899994,405.600006,212.100006z M369.100006,192.800003c-2.5-4.399994-3.200012-5.5-6.799988-6.100006c-3.700012-0.600006-5.299988-2.600006-5.899994-5c-2.100006,2.300003-4.100006,4.5-5.700012,6.300003C344.5,195.100006,347,192.699997,340.400024,197.100006c-3.200012,2.199997-5.899994,4-8.700012,6.699997c0.700012-0.100006,1.399994-0.199997,2.200012-0.199997c5.100006-0.300003,11.200012,1,16.700012,2.399994c4.5,1.199997,14.899994,5.5,18.399994,1.300003C372.399994,203.100006,371.799988,197.5,369.100006,192.800003z" />
</svg>
