<svg xmlns="http://www.w3.org/2000/svg" viewBox="0 0 800 450" width="800" height="450">
	<path fill="#ddd6fe" d="M523.900024,178.399994c8.799988,0,15.599976-1.5,20.299988-4.399994c4.799988-2.899994,7.200012-7.100006,7.200012-12.399994c0-3-0.599976-5.5-1.900024-7.399994c-1.299988-1.899994-3.299988-3.399994-6.099976-4.5S537,147.800018,532.5,147.400009l-13.299988-1.399994c-3.099976-0.300003-5.200012-0.800003-6.400024-1.5S511,142.700012,511,141.300018c0-1.699997,1-3,2.900024-3.800003c2-0.899994,4.799988-1.300003,8.599976-1.300003c4.599976,0,8.599976,0.699997,12,2s6,3.199997,7.799988,5.699997L551,136.600006c-6-6.699997-15.200012-10-27.799988-10C515,126.600006,508.600006,128,504,130.700012c-4.600006,2.699997-6.799988,6.5-6.799988,11.300003c0,4.399994,1.399994,7.800003,4.299988,10.100006s7.299988,3.800003,13.299988,4.5l14.900024,1.600006c2.900024,0.300003,4.900024,0.800003,6,1.5c1.200012,0.699997,1.700012,1.800003,1.700012,3.300003c0,1.899994-1.099976,3.300003-3.200012,4.300003c-2.099976,0.899994-5.400024,1.399994-9.700012,1.399994c-4.799988,0-9-0.899994-12.700012-2.600006c-3.700012-1.699997-6.600006-4-8.700012-7l-9.799988,6.899994c2.5,3.899994,6.399994,6.899994,11.799988,9.100006C510.600006,177.300003,516.799988,178.399994,523.900024,178.399994 M450.700012,158.100006L455.5,147.700012c1.299988-2.699997,2.299988-4.899994,2.899994-6.399994s1.200012-3.100006,1.600006-4.800003h0.200012c0.399994,1.600006,0.899994,3.199997,1.600006,4.800003c0.600006,1.5,1.600006,3.699997,2.899994,6.399994L469.5,158.100006H450.700012z M492.899994,176.699997l-24.200012-48.5h-17.299988l-24.200012,48.5h14.899994l4.399994-9.800003h27l4.399994,9.800003H492.899994z M381.899994,167.399994v-29.800003h14.899994c5.100006,0,9.200012,1.199997,12.200012,3.699997s4.5,6,4.5,10.600006c0,4.800003-1.5,8.600006-4.399994,11.300003c-3,2.699997-7,4.100006-12.200012,4.100006h-15V167.399994z M368.100006,176.699997h30.5c5.799988,0,10.899994-1,15.399994-3.100006s7.899994-5,10.399994-8.800003s3.700012-8.199997,3.700012-13.100006c0-5-1.200012-9.199997-3.5-12.699997c-2.399994-3.5-5.700012-6.199997-10.100006-8s-9.600006-2.699997-15.5-2.699997h-30.799988v48.400009H368.100006z M510.299988,282.5h16.099976c3,0,5.200012,0.600006,6.599976,1.799988c1.299988,1.200012,2,2.799988,2,4.700012c0,2-0.700012,3.600006-2,4.799988c-1.299988,1.299988-3.5,1.899994-6.599976,1.899994h-16.100006V282.5H510.299988z M535.900024,321.700012H551.5L538.799988,303c3.799988-1.200012,6.5-3.200012,8.299988-5.799988c1.700012-2.700012,2.599976-5.5,2.599976-8.600006c0-4.299988-1.599976-8-4.700012-10.899994c-3.099976-3-8.200012-4.399994-15.400024-4.399994h-33v48.5h13.799988v-17.100006h14L535.900024,321.700012z M393,323.399994c5.700012,0,10.399994-1,14-2.899994c3.700012-1.899994,6.399994-4.299988,8.100006-7.200012l0.600006,8.299988h10.600006v-27h-31.100006v8.5H413.5v0.200012c-0.100006,1.799988-0.899994,3.5-2.299988,5.100006s-3.299988,2.799988-5.899994,3.799988c-2.5,1-5.5,1.399994-8.799988,1.399994c-3.600006,0-6.799988-0.700012-9.399994-2s-4.600006-3.200012-6-5.5c-1.399994-2.399994-2.100006-5.100006-2.100006-8.299988c0-5.100006,1.5-9,4.600006-11.899994c3-2.899994,7.299988-4.399994,12.799988-4.399994c4,0,7.200012,0.799988,9.799988,2.299988c2.600006,1.5,4.299988,3.5,5.299988,6l14.899994-2.5c-1-3.200012-2.799988-6-5.5-8.5c-2.700012-2.399994-6.200012-4.299988-10.299988-5.5C406.5,272,401.899994,271.399994,396.800018,271.399994c-6.5,0-12.200012,1.100006-17.100006,3.399994s-8.600006,5.399994-11.200012,9.5c-2.600006,4-3.899994,8.600006-3.899994,13.600006c0,4.899994,1.100006,9.299988,3.399994,13.100006c2.299988,3.799988,5.600006,6.799988,9.899994,9C382.100006,322.399994,387.200012,323.399994,393,323.399994 M323.100006,303.100006l4.799988-10.399994c1.299988-2.700012,2.299988-4.899994,2.899994-6.399994s1.200012-3.100006,1.600006-4.799988h0.200012c0.399994,1.600006,0.899994,3.200012,1.600006,4.799988c0.600006,1.5,1.600006,3.700012,2.899994,6.399994l4.799988,10.399994H323.100006z M365.299988,321.700012l-24.200012-48.5h-17.299988l-24.200012,48.5h14.899994l4.399994-9.799988h27l4.399994,9.799988H365.299988z M295.200012,321.700012v-10.799988h-32.799988v-37.700012h-13.800003v48.5H295.200012z M515.799988,229.199997h34v-9h-34V210.5H551v-9.699997h-49v48.5h49.400024v-9.699997h-35.599976v-10.400009H515.799988z M441,200.800003V211.5h20.100006v37.699997h13.799988V211.5H495v-10.699997H441z M449,249.199997v-10.800003h-32.799988v-37.699997h-13.799988v48.5H449z M353.200012,230.600006L358,220.200012c1.299988-2.699997,2.299988-4.899994,2.899994-6.399994s1.200012-3.100006,1.600006-4.800003h0.200012c0.399994,1.600006,0.899994,3.199997,1.600006,4.800003c0.600006,1.5,1.600006,3.699997,2.899994,6.399994L372,230.600006H353.200012z M395.399994,249.199997l-24.200012-48.5H354l-24.200012,48.5h14.899994l4.399994-9.800003h27l4.399994,9.800003H395.399994z M295.200012,128.5v10.800003h-32.799988V177h-13.800003v-48.5H295.200012z M451.200012,312h35.600006v9.700012h-49.399994v-48.5h48.899994v9.700012h-35.200012v9.700012h34v9h-34V312H451.200012z" />
</svg>
