<svg xmlns="http://www.w3.org/2000/svg" viewBox="0 0 800 450" width="800" height="450">
	<path fill="#a78bfa" d="M414.5,200.199997h4.899994v22h25v-22h4.899994v52.400009h-4.899994v-25.300003h-25v25.300003H414.5V200.199997z M481.299988,200.199997l22.899994,52.400009h-5.299988l-7.700012-17.199997H470l-7.600006,17.199997h-5.5l23.200012-52.399994h1.199982V200.199997z M480.700012,211.399994l-8.399994,19h16.799988L480.700012,211.399994z M511.799988,200.199997h9.799988C527.199951,200.199997,531,200.5,532.899963,201c2.799988,0.699997,5.099976,2.300003,6.900024,4.5c1.799988,2.300003,2.700012,5.199997,2.700012,8.600006c0,3.5-0.900024,6.399994-2.599976,8.600006c-1.700012,2.300003-4.099976,3.800003-7.200012,4.600006c-2.200012,0.600006-6.400024,0.899994-12.5,0.899994h-3.5v24.399994h-4.899994v-52.400009H511.799988z M516.700012,205.399994v17.800003L525,223.300003c3.400024,0,5.799988-0.300003,7.400024-1c1.599976-0.699997,2.799988-1.699997,3.700012-3.199997s1.299988-3.100006,1.299988-4.899994c0-1.800003-0.400024-3.399994-1.299988-4.800003c-0.900024-1.5-2.099976-2.5-3.5-3.100006c-1.5-0.600006-3.799988-0.899994-7.200012-0.899994h-8.700012V205.399994z M552.200012,200.199997H562c5.599976,0,9.400024,0.300003,11.299988,0.800003c2.799988,0.699997,5.099976,2.300003,6.900024,4.5c1.799988,2.300003,2.700012,5.199997,2.700012,8.600006c0,3.5-0.900024,6.399994-2.599976,8.600006c-1.700012,2.300003-4.099976,3.800003-7.200012,4.600006c-2.200012,0.600006-6.400024,0.899994-12.5,0.899994h-3.5v24.399994h-4.900024V200.199997z M557.099976,205.399994v17.800003l8.299988,0.100006c3.400024,0,5.799988-0.300003,7.400024-1c1.599976-0.699997,2.799988-1.699997,3.700012-3.199997s1.299988-3.100006,1.299988-4.899994c0-1.800003-0.400024-3.399994-1.299988-4.800003c-0.900024-1.5-2.099976-2.5-3.5-3.100006c-1.5-0.600006-3.799988-0.899994-7.200012-0.899994h-8.700012V205.399994z M588.799988,200.199997h5.599976l12.599976,21.600006l12.400024-21.600006h5.700012l-15.5,27.399994v25.100006h-4.799988v-25.100006L588.799988,200.199997z M678.799988,210l-3.900024,3.199997c-2.099976-3-4.700012-5.199997-7.700012-6.800003c-3-1.5-6.299988-2.300003-9.900024-2.300003c-3.900024,0-7.5,1-10.900024,3c-3.299988,2-5.900024,4.699997-7.799988,8.100006c-1.799988,3.399994-2.799988,7.199997-2.799988,11.399994c0,6.399994,2.099976,11.699997,6.200012,16s9.299988,6.399994,15.5,6.399994c6.900024,0,12.599976-2.899994,17.200012-8.600006l3.900024,3.100006c-2.400024,3.300003-5.5,5.899994-9.200012,7.699997s-7.700012,2.699997-12.299988,2.699997c-8.599976,0-15.400024-3.100006-20.299988-9.199997c-4.200012-5.199997-6.200012-11.399994-6.200012-18.699997c0-7.699997,2.5-14.100006,7.599976-19.399994c5-5.199997,11.299988-7.899994,18.900024-7.899994c4.599976,0,8.700012,1,12.400024,2.899994C673.400024,203.800003,676.400024,206.5,678.799988,210z M708.700012,200.199997l22.900024,52.400009h-5.299988l-7.700012-17.199997h-21.099976l-7.599976,17.199997h-5.5l23.200012-52.399994h1.099915V200.199997z M708.099976,211.399994l-8.400024,19h16.799988L708.099976,211.399994z M739.400024,200.199997h9.799988c5.400024,0,9.099976,0.199997,11.099976,0.699997c2.900024,0.699997,5.299988,2.199997,7.099976,4.600006c1.799988,2.300003,2.700012,5.199997,2.700012,8.699997c0,2.899994-0.599976,5.399994-1.900024,7.5c-1.299988,2.199997-3.099976,3.800003-5.400024,4.899994c-2.299988,1.100006-5.599976,1.699997-9.700012,1.699997l17.599976,24.300003h-6.099976l-17.599976-24.300003h-2.799988v24.300003h-4.900024v-52.399994H739.400024z M744.299988,205.399994v17.800003l8.5,0.100006c3.299988,0,5.700012-0.300003,7.299988-1s2.799988-1.699997,3.700012-3.199997s1.299988-3.100006,1.299988-4.899994c0-1.800003-0.400024-3.399994-1.299988-4.800003c-0.900024-1.399994-2.099976-2.5-3.5-3.100006s-3.900024-0.899994-7.200012-0.899994h-8.799988V205.399994z M385.100006,226.100006c-0.200012,0-0.399994,0.100006-0.600006,0.199997l0.100006,0.5l0.600006,4l-1.600006-2.399994L383.5,228.200012c-0.200012,0.600006-0.299988,1.300003-0.200012,2.100006c0,2.300003,1,4.100006,2.100006,4.100006s2-1.899994,1.899994-4.199997C387.100006,227.899994,386.200012,226.100006,385.100006,226.100006" />
	<path fill="#ddd6fe" d="M54.700001,198.899994c7.400002,0,13.700001,2.600006,18.700001,7.899994c5,5.300003,7.5,11.800003,7.5,19.600006c0,7.699997-2.5,14.199997-7.5,19.5s-11.099998,8-18.299999,8c-7.299999,0-13.399998-2.699997-18.399998-8s-7.5-11.800003-7.5-19.300003c0-5,1.1-9.699997,3.400002-14s5.400002-7.699997,9.299999-10.100006C45.900002,200.100006,50.099998,198.899994,54.700001,198.899994z M54.900002,204c-3.599998,0-7.099998,1-10.299999,3c-3.299999,2-5.799999,4.699997-7.599998,8.199997c-1.799999,3.399994-2.700001,7.199997-2.700001,11.399994c0,6.199997,2,11.5,6.099998,15.800003c4,4.300003,8.900002,6.399994,14.599998,6.399994c3.799999,0,7.299999-1,10.599998-3c3.199997-2,5.800003-4.699997,7.599998-8.100006c1.800003-3.399994,2.699997-7.199997,2.699997-11.399994s-0.900002-7.899994-2.699997-11.300003c-1.800003-3.399994-4.400002-6.100006-7.699997-8.100006C62.099998,205,58.599998,204,54.900002,204z M90.800003,200.199997H100.5c3.900002,0,6.900002,0.5,9,1.5s3.699997,2.5,5,4.5c1.199997,2,1.800003,4.300003,1.800003,6.800003c0,2.300003-0.5,4.399994-1.599998,6.399994c-1.099998,1.899994-2.599998,3.5-4.699997,4.699997c2.599998,0.899994,4.5,2,5.900002,3.300003c1.400002,1.199997,2.400002,2.800003,3.199997,4.5c0.800003,1.800003,1.099998,3.699997,1.099998,5.800003c0,4.199997-1.400002,7.800003-4.300003,10.699997s-6.699997,4.399994-11.599998,4.399994h-13.5V200.199997z M95.599998,205.399994v16.800003h2.800003c3.400002,0,5.900002-0.300003,7.5-1S108.800003,219.5,109.700005,218s1.400002-3.100006,1.400002-4.899994c0-2.399994-0.800003-4.300003-2.400002-5.600006c-1.599998-1.399994-4.099998-2.100006-7.5-2.100006H95.599998z M95.599998,227.399994V247.5h6.099998c3.599998,0,6.199997-0.399994,7.900002-1.100006c1.699997-0.699997,3-1.899994,4-3.5s1.5-3.300003,1.5-5.199997c0-2.300003-0.699997-4.399994-2.099998-6.100006c-1.400002-1.699997-3.400002-2.899994-5.900002-3.600006c-1.699997-0.399994-4.599998-0.600006-8.699997-0.600006h-2.800003V227.399994z M130,200.199997h28.100006v5.100006h-23.199997v16.399994h23v5.100006h-23v20.600006h23v5.100006H130V200.199997z M166.800003,200.199997h9.800003c5.399994,0,9.100006,0.199997,11.100006,0.699997c2.899994,0.699997,5.300003,2.199997,7.100006,4.600006c1.800003,2.300003,2.699997,5.199997,2.699997,8.699997c0,2.899994-0.600006,5.399994-1.899994,7.5c-1.300003,2.199997-3.100006,3.800003-5.399994,4.899994c-2.300003,1.100006-5.600006,1.699997-9.699997,1.699997l17.600006,24.300003h-6.100006l-17.600006-24.300003h-2.800003v24.300003h-4.899994v-52.399994H166.800003z M171.699997,205.399994v17.800003l8.5,0.100006c3.300003,0,5.699997-0.300003,7.300003-1s2.800003-1.699997,3.699997-3.199997S192.5,216,192.5,214.200012c0-1.800003-0.399994-3.399994-1.300003-4.800003c-0.899994-1.399994-2.100006-2.5-3.5-3.100006s-3.899994-0.899994-7.199997-0.899994h-8.800003V205.399994z M208.100006,200.199997h28.100006v5.100006H213v16.399994h23v5.100006h-23v20.600006h23v5.100006h-27.899994V200.199997z M259.299988,200.199997h9.5l18.899994,52.400009h-9.700012l-3.799988-10.800003h-20l-4,10.800003h-9.699997L259.299988,200.199997z M264.100006,214.100006l-6.600006,18h13.100006L264.100006,214.100006z M294.5,200.199997h9.399994v33.900009c0,2.899994,0.200012,5,0.700012,6.199997S305.899994,242.5,307,243.199997s2.399994,1.100006,4,1.100006s3.100006-0.399994,4.299988-1.199997c1.200012-0.800003,2-1.800003,2.5-3.100006c0.5-1.199997,0.700012-3.600006,0.700012-7.100006v-32.699997h9.399994V231.5c0,5.300003-0.299988,8.899994-0.799988,11c-0.600006,2-1.600006,4-3.200012,5.899994S320.5,251.699997,318.5,252.599991s-4.399994,1.399994-7.100006,1.399994c-3.600006,0-6.700012-0.899994-9.299988-2.600006c-2.600006-1.699997-4.5-3.899994-5.700012-6.600006c-1.100006-2.600006-1.700012-7.100006-1.700012-13.300003v-31.299973H294.5z M392.899994,244.5c-1,1.399994,0.799988,2.699997-0.200012,3.800003c-1,0.300003-2.600006,0-3.100006-1.100006c0,0-0.100006-1.300003,0.200012-2.899994c0.299988-1.699997,1.600006-5.800003,1.600006-5.800003c4.200012-17.100006-1.799988-33.199997-12.299988-44.899994c-4-4.5-9.299988-3-14.100006-2.399994c-1.5,0.300003-4.200012,1.199997-2.700012,3.800003c0,0,3.799988,3.699997,5,5.100006c1.299988,1.399994,3.799988,4.5,3.799988,4.5s0.899994,1,0.600006,2c-0.100006,0.399994-0.700012,1.199997-1.700012,0.5l-5.399994-6.199997c0,0-4.600006-6.199997-8.700012-5.699997c-2.299988,0.399994-5.399994,2.600006-7.899994,5c-2.399994,2.300003-4.200012,4.800003-4.700012,5.899994c-1.700012,3.699997,1.799988,2.800003,7.5,5.899994c1.899994,1,4.899994,2.5,5,4.100006c-0.399994,2.5-2.100006,0.600006-3.799988-0.300003c-1.299988-0.699997-10.799988-8-13.700012-0.899994c-0.600006,1.300003-1.299988,3-1.700012,4.600006c-0.899994,3.399994-1.100006,6.800003,0.200012,7.800003c1.5,1.100006,3.799988,0.800003,6,0.699997c2.100006-0.199997,3.600006,0,5.799988,1c7.399994,3.600006,12.5,11.699997,12,19.100006c-0.100006,0.300003-0.299988,0.399994-0.399994,0.5c-2.299988,0.699997-4.5-1.399994-6.700012-2.399994c-5.700012-2.100006-14.5-0.5-14.799988,0.100006c-0.700012,1.800003,3.899994,4.100006,4.899994,6.5c1,1.899994,1.399994,4.600006,3,6.200012c0.700012,0.399994,3.399994,0.399994,5,0c1.100006-0.299988,3-3.800003,4.100006-3.800003l19.399994,0.199997c6.100006,2.399994,5.899994-0.600006,5.899994-0.600006c0.299988-2.800003-1.399994-3.399994-1.399994-3.399994c-0.5,8.700012-14-11-14.700012-15.600006c-0.600006,0.800003-1.399994,1.399994-2.600006,1.5h-0.399994v-0.800003h0.399994c2.200012,0,3.200012-3.600006,3.200012-3.600006l0,0l0.100006-0.399994l0.700012,0.199997l-0.100006,0.399994c0,0-0.299988,1.100006-0.899994,2.199997c10.399994,11.399994,17.799988,17,21.600006,19.5l5.899994-0.100006c1.600006,1.100006-0.700012,2.499985,0,3.599991c5.100006,1.200012,10-2.899994,13.200012-7.199997C402.200012,247.600006,397.899994,243.899994,392.899994,244.5 M382.5,240c-3.100006,0.100006-5.700012-5.100006-5.799988-11.5c-0.100006-4,0.899994-7.699997,2.299988-9.800003l8.600006,6.600006c0.100006,1,0.200012,2,0.200012,3C388.100006,234.699997,385.600006,239.899994,382.5,240z" />
</svg>
