<svg xmlns="http://www.w3.org/2000/svg" viewBox="0 0 800 450" width="800" height="450">
	<path fill="#a78bfa" d="M493.899994,219.5c0,12.600006-2.5,24.699997-7.299988,36.199997C482,266.700012,475.300018,276.5,466.899994,285c-0.100006,0.100006-0.200012,0.200012-0.200012,0.200012c-3,3-6.200012,5.799988-9.5,8.299988c-3.899994,3-8,5.600006-12.299988,7.899994c0.200012-0.299988,0.299988-0.5,0.399994-0.700012c-9.700012,15.299988-29.200012,22.799988-49.700012,22.799988c-15.700012,0-28.799988-3.600006-42.100006-9.200012l6.700012-28.799988c6.100006,3.799988,12.600006,6.600006,19.399994,8.600006c6.899994,1.899994,14,2.899994,21.299988,2.899994c18.899994,0,36.799988-6.700012,50.899994-19.100006c2.600006-2.299988,5-4.700012,7.299988-7.299988c2.299988-2.600006,4.399994-5.299988,6.200012-8.100006c8.200012-12.300003,13-27.100006,13-43c0-16.300003-5-31.399994-13.600006-43.899994c-3-4.300003-6.399994-8.399994-10.100006-12c-13.899994-13.399994-32.799988-21.600006-53.600006-21.600006c-42.799988,0-77.5,34.699997-77.5,77.399994c0,21.699997,8.899994,41.299988,23.299988,55.299988l-1.700012,7.100006l-2.299988,10.100006c-2.600006-2.100006-5.100006-4.399994-7.600006-6.799988c-8.5-8.5-15.200012-18.5-19.899994-29.5c-4.799988-11.5-7.299988-23.600006-7.299988-36.199997c0-12.5,2.5-24.699997,7.299988-36.199997c4.700012-11.100006,11.399994-21,19.899994-29.5s18.5-15.199997,29.600006-19.899994c11.5-4.800003,23.600006-7.300003,36.200012-7.300003c12.5,0,24.700012,2.5,36.100006,7.300003c11.100006,4.699997,21,11.399994,29.600006,19.899994c8.5,8.5,15.200012,18.5,19.899994,29.5C491.399994,194.800003,493.899994,207,493.899994,219.5z" />
	<path fill="#ddd6fe" d="M560.5,239.199997l-0.400024-0.100006c-2,2.199997-5.299988,3.699997-9.400024,3.699997c-10.099976,0-16.5-7.899994-16.5-17.800003c0-9.899994,6.700012-17.800003,17.200012-17.800003c4,0,6.799988,1.100006,8.799988,2.699997l0.299988-0.199997v-1.800003h11.5v34c0,10-9.099976,16.599991-19.5,16.599991c-4.900024,0-8.900024-0.399994-13.099976-2l1.400024-8.899994c3.200012,1.199997,6.799988,1.600006,10.900024,1.600006c4.700012,0,8.799988-3,8.799988-7.300003V239.199997z M560.5,229.699997v-11.300003c-2-1.199997-4.5-1.800003-7.700012-1.800003c-4.700012,0-7.099976,3.399994-7.099976,8.5s2.400024,8.5,7.099976,8.5C555.900024,233.5,558.700012,232.5,560.5,229.699997z M639.900024,242.100006h-11.5v-19.800003c0-4.100006-2.299988-5.800003-5.299988-5.800003c-2.5,0-5,0.5-6.599976,1.899994c0.099976,0.800003,0.200012,1.600006,0.200012,2.5V242h-11.5v-19.600006c0-4.199997-2.299988-5.899994-5.299988-5.899994c-2.599976,0-5,1.399994-6.400024,2.699997v22.899994H582v-34.199997h11.5v2.5l0.400024,0.199997c2-2,5.099976-3.300003,8.799988-3.300003c4.400024,0,8.5,1.600006,11.099976,4.899994c2.900024-3,7-4.899994,12.200012-4.899994c7.900024,0,14,5.100006,14,15.100006v19.700012H639.900024z M660.200012,239.199997l-1,2.899994h-9.799988v-49.900009h11.5v18.699997l0.400024,0.100006c2-2.199997,5.299988-3.800003,9.400024-3.800003c9.200012,0,16.5,7.899994,16.5,17.800003c0,9.899994-7.5,17.800003-17.200012,17.800003C665.599976,242.800003,662.700012,241.5,660.200012,239.199997z M660.900024,220.399994v11.199997c1.900024,1.199997,4.599976,1.800003,7.700012,1.800003c3.900024,0,7.099976-3.399994,7.099976-8.5s-3.200012-8.5-7.099976-8.5C665.5,216.5,662.599976,217.5,660.900024,220.399994z M695.099976,192.199997h11.5v19.399994L707,211.799988c2.299988-2.699997,6.099976-4.600006,11-4.600006c6.799988,0,12.400024,5.100006,12.400024,15.100006v19.800003h-11.5v-19c0-4.600006-2.700012-6.600006-6-6.600006c-2.599976,0-4.900024,1.399994-6.299988,2.699997v22.899994h-11.5v-49.899979H695.099976z M406.200012,200.199997c13.799988,0,23.899994,2.800003,35.5,6.5L448,179.300003l0.299988-1.399994c-0.799988-0.399994-1.700012-0.699997-2.5-1c-12.5-5-24.899994-8.199997-39.600006-8.199997c-29,0-56.100006,15.100006-56.100006,46.199997c0,13,5.600006,23,15.600006,31.199997c6.200012,5.100006,14.100006,9.5,23.600006,13.299988c17,6.899994,24.100006,12,24.100006,20.200012c0,0.200012,0,0.399994,0,0.600006c13.700012-2.799988,25.799988-10.100006,34.600006-20.299988c-2.600006-5.199997-6.600006-9.800003-11.700012-13.899994c-6.200012-5.100006-14.100006-9.5-23.600006-13.300003c-17-6.899994-24.100006-12-24.100006-20.199997C388.5,204.5,396.700012,200.199997,406.200012,200.199997z M127.5,242.100006H116v-19.800003c0-4.100006-2.300003-5.800003-5.300003-5.800003c-2.5,0-5,0.5-6.599998,1.899994c0.099998,0.800003,0.199997,1.600006,0.199997,2.5V242H92.800003v-19.600006C92.800003,218.199997,90.5,216.5,87.5,216.5c-2.599998,0-5,1.399994-6.400002,2.699997v22.899994h-11.5v-34.199997h11.5v2.5L81.5,210.599991c2-2,5.099998-3.300003,8.800003-3.300003c4.400002,0,8.5,1.600006,11.099998,4.899994c2.900002-3,7-4.899994,12.199997-4.899994c7.900002,0,14,5.100006,14,15.100006v19.700012H127.5z M161.100006,210.100006l0.300003-0.199997v-2h11.5v34.199997h-11.5V239l-0.399994-0.100006c-2,2.300003-5.399994,3.899994-9.600006,3.899994c-9.199997,0-16.5-7.899994-16.5-17.800003c0-9.899994,7.5-17.800003,17.199997-17.800003C156.199997,207.199997,159,208.399994,161.100006,210.100006z M161.399994,229.199997v-10.800003c-2-1.199997-4.699997-1.899994-7.899994-1.899994c-3.899994,0-7.100006,3.399994-7.100006,8.5s3.199997,8.5,7.100006,8.5C156.800003,233.5,159.800003,232.399994,161.399994,229.199997z M207.5,210.100006l0.300003-0.199997v-2h11.5v34.199997h-11.5V239l-0.399994-0.100006c-2,2.300003-5.399994,3.899994-9.600006,3.899994c-9.199997,0-16.5-7.899994-16.5-17.800003c0-9.899994,7.5-17.800003,17.199997-17.800003C202.600006,207.199997,205.399994,208.399994,207.5,210.100006z M207.800003,229.199997v-10.800003c-2-1.199997-4.699997-1.899994-7.899994-1.899994c-3.899994,0-7.100006,3.399994-7.100006,8.5s3.199997,8.5,7.100006,8.5C203.199997,233.5,206.199997,232.399994,207.800003,229.199997z M254,239.199997l-0.399994-0.100006c-2,2.199997-5.300003,3.699997-9.399994,3.699997c-10.100006,0-16.5-7.899994-16.5-17.800003c0-9.899994,6.699997-17.800003,17.199997-17.800003c4,0,6.800003,1.100006,8.800003,2.699997l0.300003-0.199997v-1.800003H265.5v34c0,10-9.100006,16.599991-19.5,16.599991c-4.899994,0-8.899994-0.399994-13.100006-2l1.399994-8.899994c3.199997,1.199997,6.800003,1.600006,10.899994,1.600006c4.699997,0,8.800003-3,8.800003-7.300003v-2.699982H254z M254,229.699997v-11.300003c-2-1.199997-4.5-1.800003-7.699997-1.800003c-4.699997,0-7.100006,3.399994-7.100006,8.5s2.399994,8.5,7.100006,8.5C249.5,233.5,252.300003,232.5,254,229.699997z" />
</svg>
